  0
SECTION
  2
HEADER
  9
$ACADVER
  1
AC1015
  9
$ACADMAINTVER
 70
     6
  9
$DWGCODEPAGE
  3
ANSI_1252
  9
$INSBASE
 10
0.0
 20
0.0
 30
0.0
  9
$EXTMIN
 10
13.8493775474
 20
36.0888416009
 30
0.0
  9
$EXTMAX
 10
213.8493775474
 20
236.0888416009
 30
0.0
  9
$LIMMIN
 10
0.0
 20
0.0
  9
$LIMMAX
 10
420.0
 20
297.0
  9
$ORTHOMODE
 70
     0
  9
$REGENMODE
 70
     1
  9
$FILLMODE
 70
     1
  9
$QTEXTMODE
 70
     0
  9
$MIRRTEXT
 70
     1
  9
$LTSCALE
 40
1.0
  9
$ATTMODE
 70
     1
  9
$TEXTSIZE
 40
3.5
  9
$TRACEWID
 40
1.0
  9
$TEXTSTYLE
  7
Standard
  9
$CLAYER
  8
0
  9
$CELTYPE
  6
ByLayer
  9
$CECOLOR
 62
   256
  9
$CELTSCALE
 40
1.0
  9
$DISPSILH
 70
     0
  9
$DIMSCALE
 40
1.0
  9
$DIMASZ
 40
3.556
  9
$DIMEXO
 40
0.0
  9
$DIMDLI
 40
3.75
  9
$DIMRND
 40
0.0
  9
$DIMDLE
 40
0.0
  9
$DIMEXE
 40
1.0
  9
$DIMTP
 40
0.0
  9
$DIMTM
 40
0.0
  9
$DIMTXT
 40
3.5
  9
$DIMCEN
 40
2.5
  9
$DIMTSZ
 40
0.0
  9
$DIMTOL
 70
     0
  9
$DIMLIM
 70
     0
  9
$DIMTIH
 70
     1
  9
$DIMTOH
 70
     1
  9
$DIMSE1
 70
     0
  9
$DIMSE2
 70
     0
  9
$DIMTAD
 70
     1
  9
$DIMZIN
 70
     1
  9
$DIMBLK
  1

  9
$DIMASO
 70
     1
  9
$DIMSHO
 70
     1
  9
$DIMPOST
  1

  9
$DIMAPOST
  1

  9
$DIMALT
 70
     0
  9
$DIMALTD
 70
     3
  9
$DIMALTF
 40
0.0393700787
  9
$DIMLFAC
 40
1.0
  9
$DIMTOFL
 70
     1
  9
$DIMTVP
 40
0.0
  9
$DIMTIX
 70
     0
  9
$DIMSOXD
 70
     0
  9
$DIMSAH
 70
     0
  9
$DIMBLK1
  1

  9
$DIMBLK2
  1

  9
$DIMSTYLE
  2
ISO-25
  9
$DIMCLRD
 70
     0
  9
$DIMCLRE
 70
     0
  9
$DIMCLRT
 70
     0
  9
$DIMTFAC
 40
1.0
  9
$DIMGAP
 40
1.524
  9
$DIMJUST
 70
     0
  9
$DIMSD1
 70
     0
  9
$DIMSD2
 70
     0
  9
$DIMTOLJ
 70
     0
  9
$DIMTZIN
 70
     1
  9
$DIMALTZ
 70
     0
  9
$DIMALTTZ
 70
     0
  9
$DIMUPT
 70
     0
  9
$DIMDEC
 70
     2
  9
$DIMTDEC
 70
     2
  9
$DIMALTU
 70
     2
  9
$DIMALTTD
 70
     3
  9
$DIMTXSTY
  7
Standard
  9
$DIMAUNIT
 70
     0
  9
$DIMADEC
 70
     2
  9
$DIMALTRND
 40
0.0
  9
$DIMAZIN
 70
     0
  9
$DIMDSEP
 70
    44
  9
$DIMATFIT
 70
     3
  9
$DIMFRAC
 70
     0
  9
$DIMLDRBLK
  1

  9
$DIMLUNIT
 70
     2
  9
$DIMLWD
 70
    -2
  9
$DIMLWE
 70
    -2
  9
$DIMTMOVE
 70
     0
  9
$LUNITS
 70
     2
  9
$LUPREC
 70
     2
  9
$SKETCHINC
 40
1.0
  9
$FILLETRAD
 40
10.0
  9
$AUNITS
 70
     0
  9
$AUPREC
 70
     2
  9
$MENU
  1
.
  9
$ELEVATION
 40
0.0
  9
$PELEVATION
 40
0.0
  9
$THICKNESS
 40
0.0
  9
$LIMCHECK
 70
     0
  9
$CHAMFERA
 40
0.0
  9
$CHAMFERB
 40
0.0
  9
$CHAMFERC
 40
0.0
  9
$CHAMFERD
 40
0.0
  9
$SKPOLY
 70
     0
  9
$TDCREATE
 40
2459368.696143287
  9
$TDUCREATE
 40
2459368.862809954
  9
$TDUPDATE
 40
2459368.696168576
  9
$TDUUPDATE
 40
2459368.862835243
  9
$TDINDWG
 40
0.0000000116
  9
$TDUSRTIMER
 40
0.0000000116
  9
$USRTIMER
 70
     1
  9
$ANGBASE
 50
0.0
  9
$ANGDIR
 70
     0
  9
$PDMODE
 70
     0
  9
$PDSIZE
 40
-1.0
  9
$PLINEWID
 40
0.0
  9
$SPLFRAME
 70
     0
  9
$SPLINETYPE
 70
     6
  9
$SPLINESEGS
 70
     8
  9
$HANDSEED
  5
1B4
  9
$SURFTAB1
 70
     6
  9
$SURFTAB2
 70
     6
  9
$SURFTYPE
 70
     6
  9
$SURFU
 70
     6
  9
$SURFV
 70
     6
  9
$UCSBASE
  2

  9
$UCSNAME
  2

  9
$UCSORG
 10
0.0
 20
0.0
 30
0.0
  9
$UCSXDIR
 10
1.0
 20
0.0
 30
0.0
  9
$UCSYDIR
 10
0.0
 20
1.0
 30
0.0
  9
$UCSORTHOREF
  2

  9
$UCSORTHOVIEW
 70
     0
  9
$UCSORGTOP
 10
0.0
 20
0.0
 30
0.0
  9
$UCSORGBOTTOM
 10
0.0
 20
0.0
 30
0.0
  9
$UCSORGLEFT
 10
0.0
 20
0.0
 30
0.0
  9
$UCSORGRIGHT
 10
0.0
 20
0.0
 30
0.0
  9
$UCSORGFRONT
 10
0.0
 20
0.0
 30
0.0
  9
$UCSORGBACK
 10
0.0
 20
0.0
 30
0.0
  9
$PUCSBASE
  2

  9
$PUCSNAME
  2

  9
$PUCSORG
 10
0.0
 20
0.0
 30
0.0
  9
$PUCSXDIR
 10
1.0
 20
0.0
 30
0.0
  9
$PUCSYDIR
 10
0.0
 20
1.0
 30
0.0
  9
$PUCSORTHOREF
  2

  9
$PUCSORTHOVIEW
 70
     0
  9
$PUCSORGTOP
 10
0.0
 20
0.0
 30
0.0
  9
$PUCSORGBOTTOM
 10
0.0
 20
0.0
 30
0.0
  9
$PUCSORGLEFT
 10
0.0
 20
0.0
 30
0.0
  9
$PUCSORGRIGHT
 10
0.0
 20
0.0
 30
0.0
  9
$PUCSORGFRONT
 10
0.0
 20
0.0
 30
0.0
  9
$PUCSORGBACK
 10
0.0
 20
0.0
 30
0.0
  9
$USERI1
 70
     0
  9
$USERI2
 70
     0
  9
$USERI3
 70
     0
  9
$USERI4
 70
     0
  9
$USERI5
 70
     0
  9
$USERR1
 40
0.0
  9
$USERR2
 40
0.0
  9
$USERR3
 40
0.0
  9
$USERR4
 40
0.0
  9
$USERR5
 40
0.0
  9
$WORLDVIEW
 70
     1
  9
$SHADEDGE
 70
     3
  9
$SHADEDIF
 70
    70
  9
$TILEMODE
 70
     1
  9
$MAXACTVP
 70
    64
  9
$PINSBASE
 10
0.0
 20
0.0
 30
0.0
  9
$PLIMCHECK
 70
     0
  9
$PEXTMIN
 10
1.0000000000E+20
 20
1.0000000000E+20
 30
1.0000000000E+20
  9
$PEXTMAX
 10
-1.0000000000E+20
 20
-1.0000000000E+20
 30
-1.0000000000E+20
  9
$PLIMMIN
 10
0.0
 20
0.0
  9
$PLIMMAX
 10
420.0
 20
297.0
  9
$UNITMODE
 70
     0
  9
$VISRETAIN
 70
     1
  9
$PLINEGEN
 70
     0
  9
$PSLTSCALE
 70
     1
  9
$TREEDEPTH
 70
  3020
  9
$CMLSTYLE
  2
Standard
  9
$CMLJUST
 70
     0
  9
$CMLSCALE
 40
20.0
  9
$PROXYGRAPHICS
 70
     1
  9
$MEASUREMENT
 70
     1
  9
$CELWEIGHT
370
    -1
  9
$ENDCAPS
280
     0
  9
$JOINSTYLE
280
     0
  9
$LWDISPLAY
290
     1
  9
$INSUNITS
 70
     4
  9
$HYPERLINKBASE
  1

  9
$STYLESHEET
  1

  9
$XEDIT
290
     1
  9
$CEPSNTYPE
380
     0
  9
$PSTYLEMODE
290
     1
  9
$FINGERPRINTGUID
  2
{9da58e2b-e1d9-4063-87aa-01c19d148cb3}
  9
$VERSIONGUID
  2
{FAEB1C32-E019-11D5-929B-00C0DF256EC4}
  9
$EXTNAMES
290
     1
  9
$PSVPSCALE
 40
0.0
  9
$OLESTARTUP
290
     0
  0
ENDSEC
  0
SECTION
  2
CLASSES
  0
CLASS
  1
ACDBDICTIONARYWDFLT
  2
AcDbDictionaryWithDefault
  3
ObjectDBX Classes
 90
        0
280
     0
281
     0
  0
CLASS
  1
VISUALSTYLE
  2
AcDbVisualStyle
  3
ObjectDBX Classes
 90
     4095
280
     0
281
     0
  0
CLASS
  1
MATERIAL
  2
AcDbMaterial
  3
ObjectDBX Classes
 90
     1153
280
     0
281
     0
  0
CLASS
  1
SCALE
  2
AcDbScale
  3
ObjectDBX Classes
 90
     1153
280
     0
281
     0
  0
CLASS
  1
TABLESTYLE
  2
AcDbTableStyle
  3
ObjectDBX Classes
 90
     4095
280
     0
281
     0
  0
CLASS
  1
MLEADERSTYLE
  2
AcDbMLeaderStyle
  3
ACDB_MLEADERSTYLE_CLASS
 90
     4095
280
     0
281
     0
  0
CLASS
  1
SUN
  2
AcDbSun
  3
SCENEOE
 90
     1153
280
     0
281
     0
  0
CLASS
  1
ACDBPLACEHOLDER
  2
AcDbPlaceHolder
  3
ObjectDBX Classes
 90
        0
280
     0
281
     0
  0
CLASS
  1
LAYOUT
  2
AcDbLayout
  3
ObjectDBX Classes
 90
        0
280
     0
281
     0
  0
ENDSEC
  0
SECTION
  2
TABLES
  0
TABLE
  2
VPORT
  5
8
330
0
100
AcDbSymbolTable
 70
     1
  0
VPORT
  5
29
330
8
100
AcDbSymbolTableRecord
100
AcDbViewportTableRecord
  2
*Active
 70
     0
 10
0.0
 20
0.0
 11
1.0
 21
1.0
 12
113.8493775474
 22
136.0888416009
 13
0.0
 23
0.0
 14
10.0
 24
10.0
 15
10.0
 25
10.0
 16
0.0
 26
0.0
 36
1.0
 17
0.0
 27
0.0
 37
0.0
 40
204.0
 41
1.0
 42
50.0
 43
0.0
 44
0.0
 50
0.0
 51
0.0
 71
     0
 72
   100
 73
     1
 74
     3
 75
     0
 76
     0
 77
     0
 78
     0
281
     0
 65
     1
110
0.0
120
0.0
130
0.0
111
1.0
121
0.0
131
0.0
112
0.0
122
1.0
132
0.0
 79
     0
146
0.0
  0
ENDTAB
  0
TABLE
  2
LTYPE
  5
5
330
0
100
AcDbSymbolTable
 70
     6
  0
LTYPE
  5
14
330
5
100
AcDbSymbolTableRecord
100
AcDbLinetypeTableRecord
  2
ByBlock
 70
     0
  3

 72
    65
 73
     0
 40
0.0
  0
LTYPE
  5
15
330
5
100
AcDbSymbolTableRecord
100
AcDbLinetypeTableRecord
  2
ByLayer
 70
     0
  3

 72
    65
 73
     0
 40
0.0
  0
LTYPE
  5
16
330
5
100
AcDbSymbolTableRecord
100
AcDbLinetypeTableRecord
  2
Continuous
 70
     0
  3
Solid line
 72
    65
 73
     0
 40
0.0
  0
LTYPE
  5
6E
330
5
100
AcDbSymbolTableRecord
100
AcDbLinetypeTableRecord
  2
HIDDEN
 70
     0
  3
Hidden __ __ __ __ __ __ __ __ __ __ __ __ __ __
 72
    65
 73
     2
 40
1.905
 49
1.27
 74
     0
 49
-0.635
 74
     0
  0
LTYPE
  5
6F
330
5
100
AcDbSymbolTableRecord
100
AcDbLinetypeTableRecord
  2
PHANTOM
 70
     0
  3
Phantom ______  __  __  ______  __  __  ______
 72
    65
 73
     6
 40
12.7
 49
6.35
 74
     0
 49
-1.27
 74
     0
 49
1.27
 74
     0
 49
-1.27
 74
     0
 49
1.27
 74
     0
 49
-1.27
 74
     0
  0
LTYPE
  5
70
330
5
100
AcDbSymbolTableRecord
100
AcDbLinetypeTableRecord
  2
CENTER
 70
     0
  3
Center ____ _ ____ _ ____ _ ____ _ ____ _ ____
 72
    65
 73
     4
 40
10.16
 49
6.35
 74
     0
 49
-1.27
 74
     0
 49
1.27
 74
     0
 49
-1.27
 74
     0
  0
LTYPE
  5
71
330
5
100
AcDbSymbolTableRecord
100
AcDbLinetypeTableRecord
  2
CENTERX2
 70
     0
  3
Center (2x) ________  __  ________  __  _____
 72
    65
 73
     4
 40
20.32
 49
12.7
 74
     0
 49
-2.54
 74
     0
 49
2.54
 74
     0
 49
-2.54
 74
     0
  0
LTYPE
  5
72
330
5
100
AcDbSymbolTableRecord
100
AcDbLinetypeTableRecord
  2
DOT2
 70
     0
  3
Dot (.5x) ........................................
 72
    65
 73
     2
 40
0.635
 49
0.0
 74
     0
 49
-0.635
 74
     0
  0
ENDTAB
  0
TABLE
  2
LAYER
  5
2
330
0
100
AcDbSymbolTable
 70
     1
  0
LAYER
  5
10
330
2
100
AcDbSymbolTableRecord
100
AcDbLayerTableRecord
  2
0
 70
     0
 62
     7
  6
Continuous
370
    -3
390
F
  0
ENDTAB
  0
TABLE
  2
STYLE
  5
3
330
0
100
AcDbSymbolTable
 70
     2
  0
STYLE
  5
11
330
3
100
AcDbSymbolTableRecord
100
AcDbTextStyleTableRecord
  2
Standard
 70
     0
 40
0.0
 41
1.0
 50
0.0
 71
     0
 42
3.5
  3
txt
  4

  0
STYLE
  5
1B0
330
3
100
AcDbSymbolTableRecord
100
AcDbTextStyleTableRecord
  2
SLDTEXTSTYLE0
 70
     0
 40
0.0
 41
0.7
 50
0.0
 71
     0
 42
3.5
  3
TXT
  4

  0
ENDTAB
  0
TABLE
  2
VIEW
  5
6
330
0
100
AcDbSymbolTable
 70
     0
  0
ENDTAB
  0
TABLE
  2
UCS
  5
7
330
0
100
AcDbSymbolTable
 70
     0
  0
ENDTAB
  0
TABLE
  2
APPID
  5
9
330
0
100
AcDbSymbolTable
 70
     1
  0
APPID
  5
12
330
9
100
AcDbSymbolTableRecord
100
AcDbRegAppTableRecord
  2
ACAD
 70
     0
  0
ENDTAB
  0
TABLE
  2
DIMSTYLE
  5
A
330
0
100
AcDbSymbolTable
 70
     1
100
AcDbDimStyleTable
  0
DIMSTYLE
105
27
330
A
100
AcDbSymbolTableRecord
100
AcDbDimStyleTableRecord
  2
ISO-25
 70
     0
 41
2.5
 42
0.625
 43
3.75
 44
1.25
 73
     0
 74
     0
 77
     1
 78
     8
140
2.5
141
2.5
143
0.0393700787
147
0.625
171
     3
172
     1
178
     0
271
     2
272
     2
274
     3
278
    44
283
     0
284
     8
340
11
  0
ENDTAB
  0
TABLE
  2
BLOCK_RECORD
  5
1
330
0
100
AcDbSymbolTable
 70
     1
  0
BLOCK_RECORD
  5
1F
330
1
100
AcDbSymbolTableRecord
100
AcDbBlockTableRecord
  2
*Model_Space
340
22
  0
BLOCK_RECORD
  5
1B
330
1
100
AcDbSymbolTableRecord
100
AcDbBlockTableRecord
  2
*Paper_Space
340
1E
  0
BLOCK_RECORD
  5
23
330
1
100
AcDbSymbolTableRecord
100
AcDbBlockTableRecord
  2
*Paper_Space0
340
26
  0
ENDTAB
  0
ENDSEC
  0
SECTION
  2
BLOCKS
  0
BLOCK
  5
20
330
1F
100
AcDbEntity
  8
0
100
AcDbBlockBegin
  2
*Model_Space
 70
     0
 10
0.0
 20
0.0
 30
0.0
  3
*Model_Space
  1

  0
ENDBLK
  5
21
330
1F
100
AcDbEntity
  8
0
100
AcDbBlockEnd
  0
BLOCK
  5
1C
330
1B
100
AcDbEntity
 67
     1
  8
0
100
AcDbBlockBegin
  2
*Paper_Space
 70
     0
 10
0.0
 20
0.0
 30
0.0
  3
*Paper_Space
  1

  0
ENDBLK
  5
1D
330
1B
100
AcDbEntity
 67
     1
  8
0
100
AcDbBlockEnd
  0
BLOCK
  5
24
330
23
100
AcDbEntity
  8
0
100
AcDbBlockBegin
  2
*Paper_Space0
 70
     0
 10
0.0
 20
0.0
 30
0.0
  3
*Paper_Space0
  1

  0
ENDBLK
  5
25
330
23
100
AcDbEntity
  8
0
100
AcDbBlockEnd
  0
ENDSEC
  0
SECTION
  2
ENTITIES
  0
LINE
  5
73
330
1F
100
AcDbEntity
  8
0
  6
Continuous
 62
     7
370
    25
100
AcDbLine
 10
154.329740169
 20
57.9152210139
 30
0.0
 11
156.0930959259
 21
55.4881700308
 31
0.0
  0
LINE
  5
74
330
1F
100
AcDbEntity
  8
0
  6
Continuous
 62
     7
370
    25
100
AcDbLine
 10
153.2994049576
 20
57.3902390022
 30
0.0
 11
154.329740169
 21
57.9152210139
 31
0.0
  0
LINE
  5
75
330
1F
100
AcDbEntity
  8
0
  6
Continuous
 62
     7
370
    25
100
AcDbLine
 10
154.2264559408
 20
54.5370694533
 30
0.0
 11
153.2994049576
 21
57.3902390022
 31
0.0
  0
LINE
  5
76
330
1F
100
AcDbEntity
  8
0
  6
Continuous
 62
     7
370
    25
100
AcDbLine
 10
129.1185639106
 20
46.3790208018
 30
0.0
 11
154.2264559408
 21
54.5370694533
 31
0.0
  0
LINE
  5
77
330
1F
100
AcDbEntity
  8
0
  6
Continuous
 62
     7
370
    25
100
AcDbLine
 10
128.1915129274
 20
49.2321903507
 30
0.0
 11
129.1185639106
 21
46.3790208018
 31
0.0
  0
LINE
  5
78
330
1F
100
AcDbEntity
  8
0
  6
Continuous
 62
     7
370
    25
100
AcDbLine
 10
127.0493775474
 20
49.0512938778
 30
0.0
 11
128.1915129274
 21
49.2321903507
 31
0.0
  0
LINE
  5
79
330
1F
100
AcDbEntity
  8
0
  6
Continuous
 62
     7
370
    25
100
AcDbLine
 10
127.0493775474
 20
46.0512938778
 30
0.0
 11
127.0493775474
 21
49.0512938778
 31
0.0
  0
LINE
  5
7A
330
1F
100
AcDbEntity
  8
0
  6
Continuous
 62
     7
370
    25
100
AcDbLine
 10
100.6493775474
 20
46.0512938778
 30
0.0
 11
127.0493775474
 21
46.0512938778
 31
0.0
  0
LINE
  5
7B
330
1F
100
AcDbEntity
  8
0
  6
Continuous
 62
     7
370
    25
100
AcDbLine
 10
100.6493775474
 20
49.0512938778
 30
0.0
 11
100.6493775474
 21
46.0512938778
 31
0.0
  0
LINE
  5
7C
330
1F
100
AcDbEntity
  8
0
  6
Continuous
 62
     7
370
    25
100
AcDbLine
 10
99.5072421673
 20
49.2321903507
 30
0.0
 11
100.6493775474
 21
49.0512938778
 31
0.0
  0
LINE
  5
7D
330
1F
100
AcDbEntity
  8
0
  6
Continuous
 62
     7
370
    25
100
AcDbLine
 10
98.5801911842
 20
46.3790208018
 30
0.0
 11
99.5072421673
 21
49.2321903507
 31
0.0
  0
LINE
  5
7E
330
1F
100
AcDbEntity
  8
0
  6
Continuous
 62
     7
370
    25
100
AcDbLine
 10
73.472299154
 20
54.5370694533
 30
0.0
 11
98.5801911842
 21
46.3790208018
 31
0.0
  0
LINE
  5
7F
330
1F
100
AcDbEntity
  8
0
  6
Continuous
 62
     7
370
    25
100
AcDbLine
 10
74.3993501371
 20
57.3902390022
 30
0.0
 11
73.472299154
 21
54.5370694533
 31
0.0
  0
LINE
  5
80
330
1F
100
AcDbEntity
  8
0
  6
Continuous
 62
     7
370
    25
100
AcDbLine
 10
73.3690149257
 20
57.9152210139
 30
0.0
 11
74.3993501371
 21
57.3902390022
 31
0.0
  0
LINE
  5
81
330
1F
100
AcDbEntity
  8
0
  6
Continuous
 62
     7
370
    25
100
AcDbLine
 10
71.6056591689
 20
55.4881700308
 30
0.0
 11
73.3690149257
 21
57.9152210139
 31
0.0
  0
LINE
  5
82
330
1F
100
AcDbEntity
  8
0
  6
Continuous
 62
     7
370
    25
100
AcDbLine
 10
50.2476105174
 20
71.0057006913
 30
0.0
 11
71.6056591689
 21
55.4881700308
 31
0.0
  0
LINE
  5
83
330
1F
100
AcDbEntity
  8
0
  6
Continuous
 62
     7
370
    25
100
AcDbLine
 10
52.0109662742
 20
73.4327516744
 30
0.0
 11
50.2476105174
 21
71.0057006913
 31
0.0
  0
LINE
  5
84
330
1F
100
AcDbEntity
  8
0
  6
Continuous
 62
     7
370
    25
100
AcDbLine
 10
51.1932876209
 20
74.2504303278
 30
0.0
 11
52.0109662742
 21
73.4327516744
 31
0.0
  0
LINE
  5
85
330
1F
100
AcDbEntity
  8
0
  6
Continuous
 62
     7
370
    25
100
AcDbLine
 10
48.7662366377
 20
72.4870745709
 30
0.0
 11
51.1932876209
 21
74.2504303278
 31
0.0
  0
LINE
  5
86
330
1F
100
AcDbEntity
  8
0
  6
Continuous
 62
     7
370
    25
100
AcDbLine
 10
33.2487059772
 20
93.8451232224
 30
0.0
 11
48.7662366377
 21
72.4870745709
 31
0.0
  0
LINE
  5
87
330
1F
100
AcDbEntity
  8
0
  6
Continuous
 62
     7
370
    25
100
AcDbLine
 10
35.6757569603
 20
95.6084789793
 30
0.0
 11
33.2487059772
 21
93.8451232224
 31
0.0
  0
LINE
  5
88
330
1F
100
AcDbEntity
  8
0
  6
Continuous
 62
     7
370
    25
100
AcDbLine
 10
35.1507749487
 20
96.6388141907
 30
0.0
 11
35.6757569603
 21
95.6084789793
 31
0.0
  0
LINE
  5
89
330
1F
100
AcDbEntity
  8
0
  6
Continuous
 62
     7
370
    25
100
AcDbLine
 10
32.2976053998
 20
95.7117632075
 30
0.0
 11
35.1507749487
 21
96.6388141907
 31
0.0
  0
LINE
  5
8A
330
1F
100
AcDbEntity
  8
0
  6
Continuous
 62
     7
370
    25
100
AcDbLine
 10
24.1395567483
 20
120.8196552377
 30
0.0
 11
32.2976053998
 21
95.7117632075
 31
0.0
  0
LINE
  5
8B
330
1F
100
AcDbEntity
  8
0
  6
Continuous
 62
     7
370
    25
100
AcDbLine
 10
26.9927262972
 20
121.7467062208
 30
0.0
 11
24.1395567483
 21
120.8196552377
 31
0.0
  0
LINE
  5
8C
330
1F
100
AcDbEntity
  8
0
  6
Continuous
 62
     7
370
    25
100
AcDbLine
 10
26.8118298242
 20
122.8888416009
 30
0.0
 11
26.9927262972
 21
121.7467062208
 31
0.0
  0
LINE
  5
8D
330
1F
100
AcDbEntity
  8
0
  6
Continuous
 62
     7
370
    25
100
AcDbLine
 10
23.8118298242
 20
122.8888416009
 30
0.0
 11
26.8118298242
 21
122.8888416009
 31
0.0
  0
LINE
  5
8E
330
1F
100
AcDbEntity
  8
0
  6
Continuous
 62
     7
370
    25
100
AcDbLine
 10
23.8118298242
 20
149.2888416009
 30
0.0
 11
23.8118298242
 21
122.8888416009
 31
0.0
  0
LINE
  5
8F
330
1F
100
AcDbEntity
  8
0
  6
Continuous
 62
     7
370
    25
100
AcDbLine
 10
26.8118298242
 20
149.2888416009
 30
0.0
 11
23.8118298242
 21
149.2888416009
 31
0.0
  0
LINE
  5
90
330
1F
100
AcDbEntity
  8
0
  6
Continuous
 62
     7
370
    25
100
AcDbLine
 10
26.9927262972
 20
150.430976981
 30
0.0
 11
26.8118298242
 21
149.2888416009
 31
0.0
  0
LINE
  5
91
330
1F
100
AcDbEntity
  8
0
  6
Continuous
 62
     7
370
    25
100
AcDbLine
 10
24.1395567483
 20
151.3580279641
 30
0.0
 11
26.9927262972
 21
150.430976981
 31
0.0
  0
LINE
  5
92
330
1F
100
AcDbEntity
  8
0
  6
Continuous
 62
     7
370
    25
100
AcDbLine
 10
32.2976053998
 20
176.4659199943
 30
0.0
 11
24.1395567483
 21
151.3580279641
 31
0.0
  0
LINE
  5
93
330
1F
100
AcDbEntity
  8
0
  6
Continuous
 62
     7
370
    25
100
AcDbLine
 10
35.1507749487
 20
175.5388690112
 30
0.0
 11
32.2976053998
 21
176.4659199943
 31
0.0
  0
LINE
  5
94
330
1F
100
AcDbEntity
  8
0
  6
Continuous
 62
     7
370
    25
100
AcDbLine
 10
35.6757569603
 20
176.5692042226
 30
0.0
 11
35.1507749487
 21
175.5388690112
 31
0.0
  0
LINE
  5
95
330
1F
100
AcDbEntity
  8
0
  6
Continuous
 62
     7
370
    25
100
AcDbLine
 10
33.2487059772
 20
178.3325599794
 30
0.0
 11
35.6757569603
 21
176.5692042226
 31
0.0
  0
LINE
  5
96
330
1F
100
AcDbEntity
  8
0
  6
Continuous
 62
     7
370
    25
100
AcDbLine
 10
48.7662366377
 20
199.6906086309
 30
0.0
 11
33.2487059772
 21
178.3325599794
 31
0.0
  0
LINE
  5
97
330
1F
100
AcDbEntity
  8
0
  6
Continuous
 62
     7
370
    25
100
AcDbLine
 10
51.1932876209
 20
197.9272528741
 30
0.0
 11
48.7662366377
 21
199.6906086309
 31
0.0
  0
LINE
  5
98
330
1F
100
AcDbEntity
  8
0
  6
Continuous
 62
     7
370
    25
100
AcDbLine
 10
52.0109662742
 20
198.7449315274
 30
0.0
 11
51.1932876209
 21
197.9272528741
 31
0.0
  0
LINE
  5
99
330
1F
100
AcDbEntity
  8
0
  6
Continuous
 62
     7
370
    25
100
AcDbLine
 10
50.2476105174
 20
201.1719825105
 30
0.0
 11
52.0109662742
 21
198.7449315274
 31
0.0
  0
LINE
  5
9A
330
1F
100
AcDbEntity
  8
0
  6
Continuous
 62
     7
370
    25
100
AcDbLine
 10
71.6056591689
 20
216.6895131711
 30
0.0
 11
50.2476105174
 21
201.1719825105
 31
0.0
  0
LINE
  5
9B
330
1F
100
AcDbEntity
  8
0
  6
Continuous
 62
     7
370
    25
100
AcDbLine
 10
73.3690149257
 20
214.2624621879
 30
0.0
 11
71.6056591689
 21
216.6895131711
 31
0.0
  0
LINE
  5
9C
330
1F
100
AcDbEntity
  8
0
  6
Continuous
 62
     7
370
    25
100
AcDbLine
 10
74.3993501371
 20
214.7874441996
 30
0.0
 11
73.3690149257
 21
214.2624621879
 31
0.0
  0
LINE
  5
9D
330
1F
100
AcDbEntity
  8
0
  6
Continuous
 62
     7
370
    25
100
AcDbLine
 10
73.472299154
 20
217.6406137485
 30
0.0
 11
74.3993501371
 21
214.7874441996
 31
0.0
  0
LINE
  5
9E
330
1F
100
AcDbEntity
  8
0
  6
Continuous
 62
     7
370
    25
100
AcDbLine
 10
98.5801911842
 20
225.7986624
 30
0.0
 11
73.472299154
 21
217.6406137485
 31
0.0
  0
LINE
  5
9F
330
1F
100
AcDbEntity
  8
0
  6
Continuous
 62
     7
370
    25
100
AcDbLine
 10
99.5072421673
 20
222.9454928511
 30
0.0
 11
98.5801911842
 21
225.7986624
 31
0.0
  0
LINE
  5
A0
330
1F
100
AcDbEntity
  8
0
  6
Continuous
 62
     7
370
    25
100
AcDbLine
 10
100.6493775474
 20
223.1263893241
 30
0.0
 11
99.5072421673
 21
222.9454928511
 31
0.0
  0
LINE
  5
A1
330
1F
100
AcDbEntity
  8
0
  6
Continuous
 62
     7
370
    25
100
AcDbLine
 10
100.6493775474
 20
226.1263893241
 30
0.0
 11
100.6493775474
 21
223.1263893241
 31
0.0
  0
LINE
  5
A2
330
1F
100
AcDbEntity
  8
0
  6
Continuous
 62
     7
370
    25
100
AcDbLine
 10
127.0493775474
 20
226.1263893241
 30
0.0
 11
100.6493775474
 21
226.1263893241
 31
0.0
  0
LINE
  5
A3
330
1F
100
AcDbEntity
  8
0
  6
Continuous
 62
     7
370
    25
100
AcDbLine
 10
127.0493775474
 20
223.1263893241
 30
0.0
 11
127.0493775474
 21
226.1263893241
 31
0.0
  0
LINE
  5
A4
330
1F
100
AcDbEntity
  8
0
  6
Continuous
 62
     7
370
    25
100
AcDbLine
 10
128.1915129274
 20
222.9454928511
 30
0.0
 11
127.0493775474
 21
223.1263893241
 31
0.0
  0
LINE
  5
A5
330
1F
100
AcDbEntity
  8
0
  6
Continuous
 62
     7
370
    25
100
AcDbLine
 10
129.1185639106
 20
225.7986624
 30
0.0
 11
128.1915129274
 21
222.9454928511
 31
0.0
  0
LINE
  5
A6
330
1F
100
AcDbEntity
  8
0
  6
Continuous
 62
     7
370
    25
100
AcDbLine
 10
154.2264559408
 20
217.6406137485
 30
0.0
 11
129.1185639106
 21
225.7986624
 31
0.0
  0
LINE
  5
A7
330
1F
100
AcDbEntity
  8
0
  6
Continuous
 62
     7
370
    25
100
AcDbLine
 10
153.2994049576
 20
214.7874441996
 30
0.0
 11
154.2264559408
 21
217.6406137485
 31
0.0
  0
LINE
  5
A8
330
1F
100
AcDbEntity
  8
0
  6
Continuous
 62
     7
370
    25
100
AcDbLine
 10
154.329740169
 20
214.2624621879
 30
0.0
 11
153.2994049576
 21
214.7874441996
 31
0.0
  0
LINE
  5
A9
330
1F
100
AcDbEntity
  8
0
  6
Continuous
 62
     7
370
    25
100
AcDbLine
 10
156.0930959259
 20
216.6895131711
 30
0.0
 11
154.329740169
 21
214.2624621879
 31
0.0
  0
LINE
  5
AA
330
1F
100
AcDbEntity
  8
0
  6
Continuous
 62
     7
370
    25
100
AcDbLine
 10
177.4511445774
 20
201.1719825105
 30
0.0
 11
156.0930959259
 21
216.6895131711
 31
0.0
  0
LINE
  5
AB
330
1F
100
AcDbEntity
  8
0
  6
Continuous
 62
     7
370
    25
100
AcDbLine
 10
175.6877888205
 20
198.7449315274
 30
0.0
 11
177.4511445774
 21
201.1719825105
 31
0.0
  0
LINE
  5
AC
330
1F
100
AcDbEntity
  8
0
  6
Continuous
 62
     7
370
    25
100
AcDbLine
 10
176.5054674739
 20
197.9272528741
 30
0.0
 11
175.6877888205
 21
198.7449315274
 31
0.0
  0
LINE
  5
AD
330
1F
100
AcDbEntity
  8
0
  6
Continuous
 62
     7
370
    25
100
AcDbLine
 10
178.932518457
 20
199.6906086309
 30
0.0
 11
176.5054674739
 21
197.9272528741
 31
0.0
  0
LINE
  5
AE
330
1F
100
AcDbEntity
  8
0
  6
Continuous
 62
     7
370
    25
100
AcDbLine
 10
194.4500491175
 20
178.3325599794
 30
0.0
 11
178.932518457
 21
199.6906086309
 31
0.0
  0
LINE
  5
AF
330
1F
100
AcDbEntity
  8
0
  6
Continuous
 62
     7
370
    25
100
AcDbLine
 10
192.0229981344
 20
176.5692042226
 30
0.0
 11
194.4500491175
 21
178.3325599794
 31
0.0
  0
LINE
  5
B0
330
1F
100
AcDbEntity
  8
0
  6
Continuous
 62
     7
370
    25
100
AcDbLine
 10
192.5479801461
 20
175.5388690112
 30
0.0
 11
192.0229981344
 21
176.5692042226
 31
0.0
  0
LINE
  5
B1
330
1F
100
AcDbEntity
  8
0
  6
Continuous
 62
     7
370
    25
100
AcDbLine
 10
195.401149695
 20
176.4659199943
 30
0.0
 11
192.5479801461
 21
175.5388690112
 31
0.0
  0
LINE
  5
B2
330
1F
100
AcDbEntity
  8
0
  6
Continuous
 62
     7
370
    25
100
AcDbLine
 10
203.5591983465
 20
151.3580279641
 30
0.0
 11
195.401149695
 21
176.4659199943
 31
0.0
  0
LINE
  5
B3
330
1F
100
AcDbEntity
  8
0
  6
Continuous
 62
     7
370
    25
100
AcDbLine
 10
200.7060287976
 20
150.430976981
 30
0.0
 11
203.5591983465
 21
151.3580279641
 31
0.0
  0
LINE
  5
B4
330
1F
100
AcDbEntity
  8
0
  6
Continuous
 62
     7
370
    25
100
AcDbLine
 10
200.8869252705
 20
149.2888416009
 30
0.0
 11
200.7060287976
 21
150.430976981
 31
0.0
  0
LINE
  5
B5
330
1F
100
AcDbEntity
  8
0
  6
Continuous
 62
     7
370
    25
100
AcDbLine
 10
203.8869252705
 20
149.2888416009
 30
0.0
 11
200.8869252705
 21
149.2888416009
 31
0.0
  0
LINE
  5
B6
330
1F
100
AcDbEntity
  8
0
  6
Continuous
 62
     7
370
    25
100
AcDbLine
 10
203.8869252705
 20
122.8888416009
 30
0.0
 11
203.8869252705
 21
149.2888416009
 31
0.0
  0
LINE
  5
B7
330
1F
100
AcDbEntity
  8
0
  6
Continuous
 62
     7
370
    25
100
AcDbLine
 10
200.8869252705
 20
122.8888416009
 30
0.0
 11
203.8869252705
 21
122.8888416009
 31
0.0
  0
LINE
  5
B8
330
1F
100
AcDbEntity
  8
0
  6
Continuous
 62
     7
370
    25
100
AcDbLine
 10
200.7060287976
 20
121.7467062208
 30
0.0
 11
200.8869252705
 21
122.8888416009
 31
0.0
  0
LINE
  5
B9
330
1F
100
AcDbEntity
  8
0
  6
Continuous
 62
     7
370
    25
100
AcDbLine
 10
203.5591983465
 20
120.8196552377
 30
0.0
 11
200.7060287976
 21
121.7467062208
 31
0.0
  0
LINE
  5
BA
330
1F
100
AcDbEntity
  8
0
  6
Continuous
 62
     7
370
    25
100
AcDbLine
 10
195.401149695
 20
95.7117632075
 30
0.0
 11
203.5591983465
 21
120.8196552377
 31
0.0
  0
LINE
  5
BB
330
1F
100
AcDbEntity
  8
0
  6
Continuous
 62
     7
370
    25
100
AcDbLine
 10
192.5479801461
 20
96.6388141907
 30
0.0
 11
195.401149695
 21
95.7117632075
 31
0.0
  0
LINE
  5
BC
330
1F
100
AcDbEntity
  8
0
  6
Continuous
 62
     7
370
    25
100
AcDbLine
 10
192.0229981344
 20
95.6084789793
 30
0.0
 11
192.5479801461
 21
96.6388141907
 31
0.0
  0
LINE
  5
BD
330
1F
100
AcDbEntity
  8
0
  6
Continuous
 62
     7
370
    25
100
AcDbLine
 10
194.4500491175
 20
93.8451232224
 30
0.0
 11
192.0229981344
 21
95.6084789793
 31
0.0
  0
LINE
  5
BE
330
1F
100
AcDbEntity
  8
0
  6
Continuous
 62
     7
370
    25
100
AcDbLine
 10
178.932518457
 20
72.4870745709
 30
0.0
 11
194.4500491175
 21
93.8451232224
 31
0.0
  0
LINE
  5
BF
330
1F
100
AcDbEntity
  8
0
  6
Continuous
 62
     7
370
    25
100
AcDbLine
 10
176.5054674739
 20
74.2504303278
 30
0.0
 11
178.932518457
 21
72.4870745709
 31
0.0
  0
LINE
  5
C0
330
1F
100
AcDbEntity
  8
0
  6
Continuous
 62
     7
370
    25
100
AcDbLine
 10
175.6877888205
 20
73.4327516744
 30
0.0
 11
176.5054674739
 21
74.2504303278
 31
0.0
  0
LINE
  5
C1
330
1F
100
AcDbEntity
  8
0
  6
Continuous
 62
     7
370
    25
100
AcDbLine
 10
177.4511445774
 20
71.0057006913
 30
0.0
 11
175.6877888205
 21
73.4327516744
 31
0.0
  0
LINE
  5
C2
330
1F
100
AcDbEntity
  8
0
  6
Continuous
 62
     7
370
    25
100
AcDbLine
 10
156.0930959259
 20
55.4881700308
 30
0.0
 11
177.4511445774
 21
71.0057006913
 31
0.0
  0
CIRCLE
  5
C3
330
1F
100
AcDbEntity
  8
0
  6
Continuous
 62
     7
370
    25
100
AcDbCircle
 10
113.8493775474
 20
136.0888416009
 30
0.0
 40
100.0000000000007
  0
CIRCLE
  5
C4
330
1F
100
AcDbEntity
  8
0
  6
Continuous
 62
     7
370
    25
100
AcDbCircle
 10
143.6386158051
 20
44.4069934301
 30
0.0
 40
2.600000000000011
  0
CIRCLE
  5
C5
330
1F
100
AcDbEntity
  8
0
  6
Continuous
 62
     7
370
    25
100
AcDbCircle
 10
170.5118758684
 20
58.0996033432
 30
0.0
 40
2.600000000000012
  0
CIRCLE
  5
C6
330
1F
100
AcDbEntity
  8
0
  6
Continuous
 62
     7
370
    25
100
AcDbCircle
 10
191.8386158051
 20
79.4263432799
 30
0.0
 40
2.599999999999992
  0
CIRCLE
  5
C7
330
1F
100
AcDbEntity
  8
0
  6
Continuous
 62
     7
370
    25
100
AcDbCircle
 10
205.5312257182
 20
106.2996033432
 30
0.0
 40
2.599999999999993
  0
CIRCLE
  5
C8
330
1F
100
AcDbEntity
  8
0
  6
Continuous
 62
     7
370
    25
100
AcDbCircle
 10
210.2493775474
 20
136.0888416009
 30
0.0
 40
2.599999999999994
  0
CIRCLE
  5
C9
330
1F
100
AcDbEntity
  8
0
  6
Continuous
 62
     7
370
    25
100
AcDbCircle
 10
205.5312257182
 20
165.8780798587
 30
0.0
 40
2.599999999999997
  0
CIRCLE
  5
CA
330
1F
100
AcDbEntity
  8
0
  6
Continuous
 62
     7
370
    25
100
AcDbCircle
 10
191.8386158051
 20
192.7513399219
 30
0.0
 40
2.600000000000024
  0
CIRCLE
  5
CB
330
1F
100
AcDbEntity
  8
0
  6
Continuous
 62
     7
370
    25
100
AcDbCircle
 10
170.5118758684
 20
214.0780798587
 30
0.0
 40
2.600000000000007
  0
CIRCLE
  5
CC
330
1F
100
AcDbEntity
  8
0
  6
Continuous
 62
     7
370
    25
100
AcDbCircle
 10
143.6386158051
 20
227.7706897718
 30
0.0
 40
2.59999999999998
  0
CIRCLE
  5
CD
330
1F
100
AcDbEntity
  8
0
  6
Continuous
 62
     7
370
    25
100
AcDbCircle
 10
113.8493775474
 20
232.4888416009
 30
0.0
 40
2.599999999999994
  0
CIRCLE
  5
CE
330
1F
100
AcDbEntity
  8
0
  6
Continuous
 62
     7
370
    25
100
AcDbCircle
 10
84.0601392896
 20
227.7706897718
 30
0.0
 40
2.600000000000002
  0
CIRCLE
  5
CF
330
1F
100
AcDbEntity
  8
0
  6
Continuous
 62
     7
370
    25
100
AcDbCircle
 10
57.1868792264
 20
214.0780798587
 30
0.0
 40
2.600000000000028
  0
CIRCLE
  5
D0
330
1F
100
AcDbEntity
  8
0
  6
Continuous
 62
     7
370
    25
100
AcDbCircle
 10
35.8601392896
 20
192.7513399219
 30
0.0
 40
2.600000000000001
  0
CIRCLE
  5
D1
330
1F
100
AcDbEntity
  8
0
  6
Continuous
 62
     7
370
    25
100
AcDbCircle
 10
22.1675293765
 20
165.8780798587
 30
0.0
 40
2.600000000000005
  0
CIRCLE
  5
D2
330
1F
100
AcDbEntity
  8
0
  6
Continuous
 62
     7
370
    25
100
AcDbCircle
 10
17.4493775474
 20
136.0888416009
 30
0.0
 40
2.600000000000005
  0
CIRCLE
  5
D3
330
1F
100
AcDbEntity
  8
0
  6
Continuous
 62
     7
370
    25
100
AcDbCircle
 10
22.1675293765
 20
106.2996033432
 30
0.0
 40
2.600000000000006
  0
CIRCLE
  5
D4
330
1F
100
AcDbEntity
  8
0
  6
Continuous
 62
     7
370
    25
100
AcDbCircle
 10
35.8601392896
 20
79.4263432799
 30
0.0
 40
2.600000000000009
  0
CIRCLE
  5
D5
330
1F
100
AcDbEntity
  8
0
  6
Continuous
 62
     7
370
    25
100
AcDbCircle
 10
57.1868792264
 20
58.0996033432
 30
0.0
 40
2.600000000000009
  0
CIRCLE
  5
D6
330
1F
100
AcDbEntity
  8
0
  6
Continuous
 62
     7
370
    25
100
AcDbCircle
 10
84.0601392896
 20
44.4069934301
 30
0.0
 40
2.599999999999998
  0
CIRCLE
  5
D7
330
1F
100
AcDbEntity
  8
0
  6
Continuous
 62
     7
370
    25
100
AcDbCircle
 10
113.8493775474
 20
39.6888416009
 30
0.0
 40
2.600000000000001
  0
SPLINE
  5
D8
330
1F
100
AcDbEntity
  8
0
  6
Continuous
 62
     7
370
    25
100
AcDbSpline
210
0.0
220
0.0
230
1.0
 70
     8
 71
     5
 72
    13
 73
     7
 74
     0
 42
0.00000001
 43
0.00000001
 40
0.0
 40
0.0
 40
0.0
 40
0.0
 40
0.0
 40
0.0
 40
0.5
 40
1.0
 40
1.0
 40
1.0
 40
1.0
 40
1.0
 40
1.0
 10
76.43723156851094
 20
179.8928364876037
 30
0.0
 10
76.97092486712508
 20
180.3430884331394
 30
0.0
 10
81.04813268644146
 20
181.0900939554314
 30
0.0
 10
85.74270053033784
 20
179.3693287886948
 30
0.0
 10
86.080156094114
 20
184.3579281655216
 30
0.0
 10
88.42092941738892
 20
187.7788083302268
 30
0.0
 10
89.04932765773822
 20
188.0832274540845
 30
0.0
  0
SPLINE
  5
D9
330
1F
100
AcDbEntity
  8
0
  6
Continuous
 62
     7
370
    25
100
AcDbSpline
210
0.0
220
0.0
230
1.0
 70
     8
 71
     5
 72
    13
 73
     7
 74
     0
 42
0.00000001
 43
0.00000001
 40
0.0
 40
0.0
 40
0.0
 40
0.0
 40
0.0
 40
0.0
 40
0.5
 40
1.0
 40
1.0
 40
1.0
 40
1.0
 40
1.0
 40
1.0
 10
89.04932765773822
 20
188.0832274540845
 30
0.0
 10
89.68136957678614
 20
188.3800074466895
 30
0.0
 10
93.81298916457749
 20
188.0463003385718
 30
0.0
 10
97.90222669096275
 20
185.1691252565161
 30
0.0
 10
99.51932826234842
 20
189.9004023048215
 30
0.0
 10
102.6657306064273
 20
192.5988820882189
 30
0.0
 10
103.3515061629231
 20
192.730286949458
 30
0.0
  0
SPLINE
  5
DA
330
1F
100
AcDbEntity
  8
0
  6
Continuous
 62
     7
370
    25
100
AcDbSpline
210
0.0
220
0.0
230
1.0
 70
     8
 71
     5
 72
    13
 73
     7
 74
     0
 42
0.00000001
 43
0.00000001
 40
0.0
 40
0.0
 40
0.0
 40
0.0
 40
0.0
 40
0.0
 40
0.5
 40
1.0
 40
1.0
 40
1.0
 40
1.0
 40
1.0
 40
1.0
 10
103.3515061629223
 20
192.7302869494578
 30
0.0
 10
104.0388240901195
 20
192.8533699230881
 30
0.0
 10
107.9432923993021
 20
191.4616917725021
 30
0.0
 10
111.1485248285377
 20
187.6241815022127
 30
0.0
 10
113.9350696078295
 20
191.7757075099598
 30
0.0
 10
117.6726788526392
 20
193.5678899742595
 30
0.0
 10
118.3690972544039
 20
193.5173255487434
 30
0.0
  0
SPLINE
  5
DB
330
1F
100
AcDbEntity
  8
0
  6
Continuous
 62
     7
370
    25
100
AcDbSpline
210
0.0
220
0.0
230
1.0
 70
     8
 71
     5
 72
    13
 73
     7
 74
     0
 42
0.00000001
 43
0.00000001
 40
0.0
 40
0.0
 40
0.0
 40
0.0
 40
0.0
 40
0.0
 40
0.5
 40
1.0
 40
1.0
 40
1.0
 40
1.0
 40
1.0
 40
1.0
 10
118.3690972544039
 20
193.5173255487434
 30
0.0
 10
119.0648516088586
 20
193.4583236021503
 30
0.0
 10
122.4760855766005
 20
191.1035149752013
 30
0.0
 10
124.5788816155309
 20
186.5671894998129
 30
0.0
 10
128.3449711810034
 20
189.8560448302948
 30
0.0
 10
132.4190754332012
 20
190.6197957022763
 30
0.0
 10
133.0786769170406
 20
190.3907078720423
 30
0.0
  0
SPLINE
  5
DC
330
1F
100
AcDbEntity
  8
0
  6
Continuous
 62
     7
370
    25
100
AcDbSpline
210
0.0
220
0.0
230
1.0
 70
     8
 71
     5
 72
    13
 73
     7
 74
     0
 42
0.00000001
 43
0.00000001
 40
0.0
 40
0.0
 40
0.0
 40
0.0
 40
0.0
 40
0.0
 40
0.5
 40
1.0
 40
1.0
 40
1.0
 40
1.0
 40
1.0
 40
1.0
 10
133.0786769170406
 20
190.3907078720423
 30
0.0
 10
133.735453189285
 20
190.1536418903808
 30
0.0
 10
136.4209828580153
 20
186.9961791034902
 30
0.0
 10
137.2780404316223
 20
182.0701815075182
 30
0.0
 10
141.7670220031456
 20
184.272236105053
 30
0.0
 10
145.8999777907201
 20
183.9555070249487
 30
0.0
 10
146.4778116055533
 20
183.5635077470416
 30
0.0
  0
SPLINE
  5
DD
330
1F
100
AcDbEntity
  8
0
  6
Continuous
 62
     7
370
    25
100
AcDbSpline
210
0.0
220
0.0
230
1.0
 70
     8
 71
     5
 72
    13
 73
     7
 74
     0
 42
0.00000001
 43
0.00000001
 40
0.0
 40
0.0
 40
0.0
 40
0.0
 40
0.0
 40
0.0
 40
0.5
 40
1.0
 40
1.0
 40
1.0
 40
1.0
 40
1.0
 40
1.0
 10
146.4778116055533
 20
183.5635077470416
 30
0.0
 10
147.0508515780081
 20
183.164533385192
 30
0.0
 10
148.8276625388505
 20
179.4195923093325
 30
0.0
 10
148.3805745898473
 20
174.4396211883463
 30
0.0
 10
153.2865314917149
 20
175.4048086711794
 30
0.0
 10
157.1966847077752
 20
174.0291842023788
 30
0.0
 10
157.653372434037
 20
173.5009875797786
 30
0.0
  0
SPLINE
  5
DE
330
1F
100
AcDbEntity
  8
0
  6
Continuous
 62
     7
370
    25
100
AcDbSpline
210
0.0
220
0.0
230
1.0
 70
     8
 71
     5
 72
    13
 73
     7
 74
     0
 42
0.00000001
 43
0.00000001
 40
0.0
 40
0.0
 40
0.0
 40
0.0
 40
0.0
 40
0.0
 40
0.5
 40
1.0
 40
1.0
 40
1.0
 40
1.0
 40
1.0
 40
1.0
 10
157.653372434037
 20
173.5009875797786
 30
0.0
 10
158.1036243795727
 20
172.9672942811645
 30
0.0
 10
158.8506299018647
 20
168.8900864618481
 30
0.0
 10
157.1298647351282
 20
164.1955186179517
 30
0.0
 10
162.1184641119549
 20
163.8580630541756
 30
0.0
 10
165.5393442766602
 20
161.5172897309007
 30
0.0
 10
165.8437634005179
 20
160.8888914905514
 30
0.0
  0
SPLINE
  5
DF
330
1F
100
AcDbEntity
  8
0
  6
Continuous
 62
     7
370
    25
100
AcDbSpline
210
0.0
220
0.0
230
1.0
 70
     8
 71
     5
 72
    13
 73
     7
 74
     0
 42
0.00000001
 43
0.00000001
 40
0.0
 40
0.0
 40
0.0
 40
0.0
 40
0.0
 40
0.0
 40
0.5
 40
1.0
 40
1.0
 40
1.0
 40
1.0
 40
1.0
 40
1.0
 10
165.8437634005179
 20
160.8888914905514
 30
0.0
 10
166.1405433931229
 20
160.2568495715035
 30
0.0
 10
165.8068362850053
 20
156.1252299837122
 30
0.0
 10
162.9296612029496
 20
152.0359924573269
 30
0.0
 10
167.6609382512551
 20
150.4188908859413
 30
0.0
 10
170.3594180346524
 20
147.2724885418624
 30
0.0
 10
170.4908228958916
 20
146.5867129853666
 30
0.0
  0
SPLINE
  5
E0
330
1F
100
AcDbEntity
  8
0
  6
Continuous
 62
     7
370
    25
100
AcDbSpline
210
0.0
220
0.0
230
1.0
 70
     8
 71
     5
 72
    13
 73
     7
 74
     0
 42
0.00000001
 43
0.00000001
 40
0.0
 40
0.0
 40
0.0
 40
0.0
 40
0.0
 40
0.0
 40
0.5
 40
1.0
 40
1.0
 40
1.0
 40
1.0
 40
1.0
 40
1.0
 10
170.4908228958916
 20
146.5867129853666
 30
0.0
 10
170.6139058695218
 20
145.8993950581694
 30
0.0
 10
169.2222277189358
 20
141.9949267489868
 30
0.0
 10
165.3847174486464
 20
138.7896943197513
 30
0.0
 10
169.5362434563935
 20
136.0031495404594
 30
0.0
 10
171.3284259206931
 20
132.2655402956498
 30
0.0
 10
171.277861495177
 20
131.569121893885
 30
0.0
  0
SPLINE
  5
E1
330
1F
100
AcDbEntity
  8
0
  6
Continuous
 62
     7
370
    25
100
AcDbSpline
210
0.0
220
0.0
230
1.0
 70
     8
 71
     5
 72
    13
 73
     7
 74
     0
 42
0.00000001
 43
0.00000001
 40
0.0
 40
0.0
 40
0.0
 40
0.0
 40
0.0
 40
0.0
 40
0.5
 40
1.0
 40
1.0
 40
1.0
 40
1.0
 40
1.0
 40
1.0
 10
171.277861495177
 20
131.569121893885
 30
0.0
 10
171.2188595485839
 20
130.8733675394303
 30
0.0
 10
168.864050921635
 20
127.4621335716884
 30
0.0
 10
164.3277254462465
 20
125.359337532758
 30
0.0
 10
167.6165807767285
 20
121.5932479672856
 30
0.0
 10
168.3803316487099
 20
117.5191437150877
 30
0.0
 10
168.1512438184758
 20
116.8595422312484
 30
0.0
  0
SPLINE
  5
E2
330
1F
100
AcDbEntity
  8
0
  6
Continuous
 62
     7
370
    25
100
AcDbSpline
210
0.0
220
0.0
230
1.0
 70
     8
 71
     5
 72
    13
 73
     7
 74
     0
 42
0.00000001
 43
0.00000001
 40
0.0
 40
0.0
 40
0.0
 40
0.0
 40
0.0
 40
0.0
 40
0.5
 40
1.0
 40
1.0
 40
1.0
 40
1.0
 40
1.0
 40
1.0
 10
168.1512438184758
 20
116.8595422312484
 30
0.0
 10
167.9141778368144
 20
116.202765959004
 30
0.0
 10
164.7567150499239
 20
113.5172362902736
 30
0.0
 10
159.8307174539517
 20
112.6601787166666
 30
0.0
 10
162.0327720514866
 20
108.1711971451434
 30
0.0
 10
161.7160429713823
 20
104.0382413575689
 30
0.0
 10
161.3240436934752
 20
103.4604075427357
 30
0.0
  0
SPLINE
  5
E3
330
1F
100
AcDbEntity
  8
0
  6
Continuous
 62
     7
370
    25
100
AcDbSpline
210
0.0
220
0.0
230
1.0
 70
     8
 71
     5
 72
    13
 73
     7
 74
     0
 42
0.00000001
 43
0.00000001
 40
0.0
 40
0.0
 40
0.0
 40
0.0
 40
0.0
 40
0.0
 40
0.5
 40
1.0
 40
1.0
 40
1.0
 40
1.0
 40
1.0
 40
1.0
 10
161.3240436934752
 20
103.4604075427357
 30
0.0
 10
160.9250693316255
 20
102.8873675702808
 30
0.0
 10
157.180128255766
 20
101.1105566094384
 30
0.0
 10
152.2001571347799
 20
101.5576445584417
 30
0.0
 10
153.1653446176129
 20
96.65168765657405
 30
0.0
 10
151.7897201488124
 20
92.74153444051376
 30
0.0
 10
151.2615235262121
 20
92.28484671425201
 30
0.0
  0
SPLINE
  5
E4
330
1F
100
AcDbEntity
  8
0
  6
Continuous
 62
     7
370
    25
100
AcDbSpline
210
0.0
220
0.0
230
1.0
 70
     8
 71
     5
 72
    13
 73
     7
 74
     0
 42
0.00000001
 43
0.00000001
 40
0.0
 40
0.0
 40
0.0
 40
0.0
 40
0.0
 40
0.0
 40
0.5
 40
1.0
 40
1.0
 40
1.0
 40
1.0
 40
1.0
 40
1.0
 10
151.2615235262121
 20
92.28484671425201
 30
0.0
 10
150.727830227598
 20
91.83459476871626
 30
0.0
 10
146.6506224082816
 20
91.08758924642427
 30
0.0
 10
141.9560545643852
 20
92.80835441316083
 30
0.0
 10
141.6185990006091
 20
87.81975503633406
 30
0.0
 10
139.2778256773342
 20
84.39887487162878
 30
0.0
 10
138.6494274369849
 20
84.0944557477711
 30
0.0
  0
SPLINE
  5
E5
330
1F
100
AcDbEntity
  8
0
  6
Continuous
 62
     7
370
    25
100
AcDbSpline
210
0.0
220
0.0
230
1.0
 70
     8
 71
     5
 72
    13
 73
     7
 74
     0
 42
0.00000001
 43
0.00000001
 40
0.0
 40
0.0
 40
0.0
 40
0.0
 40
0.0
 40
0.0
 40
0.5
 40
1.0
 40
1.0
 40
1.0
 40
1.0
 40
1.0
 40
1.0
 10
138.6494274369846
 20
84.09445574777092
 30
0.0
 10
138.0173855179366
 20
83.79767575516595
 30
0.0
 10
133.8857659301453
 20
84.1313828632836
 30
0.0
 10
129.79652840376
 20
87.00855794533936
 30
0.0
 10
128.1794268323744
 20
82.27728089703392
 30
0.0
 10
125.0330244882955
 20
79.57880111363656
 30
0.0
 10
124.3472489317997
 20
79.44739625239745
 30
0.0
  0
SPLINE
  5
E6
330
1F
100
AcDbEntity
  8
0
  6
Continuous
 62
     7
370
    25
100
AcDbSpline
210
0.0
220
0.0
230
1.0
 70
     8
 71
     5
 72
    13
 73
     7
 74
     0
 42
0.00000001
 43
0.00000001
 40
0.0
 40
0.0
 40
0.0
 40
0.0
 40
0.0
 40
0.0
 40
0.5
 40
1.0
 40
1.0
 40
1.0
 40
1.0
 40
1.0
 40
1.0
 10
124.3472489318001
 20
79.44739625239752
 30
0.0
 10
123.6599310046028
 20
79.32431327876725
 30
0.0
 10
119.7554626954203
 20
80.71599142935334
 30
0.0
 10
116.5502302661848
 20
84.55350169964275
 30
0.0
 10
113.7636854868928
 20
80.40197569189563
 30
0.0
 10
110.0260762420832
 20
78.609793227596
 30
0.0
 10
109.3296578403184
 20
78.66035765311209
 30
0.0
  0
SPLINE
  5
E7
330
1F
100
AcDbEntity
  8
0
  6
Continuous
 62
     7
370
    25
100
AcDbSpline
210
0.0
220
0.0
230
1.0
 70
     8
 71
     5
 72
    13
 73
     7
 74
     0
 42
0.00000001
 43
0.00000001
 40
0.0
 40
0.0
 40
0.0
 40
0.0
 40
0.0
 40
0.0
 40
0.5
 40
1.0
 40
1.0
 40
1.0
 40
1.0
 40
1.0
 40
1.0
 10
109.3296578403184
 20
78.66035765311209
 30
0.0
 10
108.6339034858638
 20
78.71935959970519
 30
0.0
 10
105.2226695181219
 20
81.07416822665417
 30
0.0
 10
103.1198734791915
 20
85.61049370204265
 30
0.0
 10
99.35378391371906
 20
82.32163837156068
 30
0.0
 10
95.27967966152114
 20
81.55788749957928
 30
0.0
 10
94.62007817768183
 20
81.78697532981333
 30
0.0
  0
SPLINE
  5
E8
330
1F
100
AcDbEntity
  8
0
  6
Continuous
 62
     7
370
    25
100
AcDbSpline
210
0.0
220
0.0
230
1.0
 70
     8
 71
     5
 72
    13
 73
     7
 74
     0
 42
0.00000001
 43
0.00000001
 40
0.0
 40
0.0
 40
0.0
 40
0.0
 40
0.0
 40
0.0
 40
0.5
 40
1.0
 40
1.0
 40
1.0
 40
1.0
 40
1.0
 40
1.0
 10
94.62007817768183
 20
81.78697532981333
 30
0.0
 10
93.96330190543743
 20
82.0240413114748
 30
0.0
 10
91.27777223670711
 20
85.18150409836537
 30
0.0
 10
90.42071466310016
 20
90.10750169433747
 30
0.0
 10
85.9317330915769
 20
87.9054470968026
 30
0.0
 10
81.79877730400237
 20
88.22217617690696
 30
0.0
 10
81.22094348916917
 20
88.61417545481405
 30
0.0
  0
SPLINE
  5
E9
330
1F
100
AcDbEntity
  8
0
  6
Continuous
 62
     7
370
    25
100
AcDbSpline
210
0.0
220
0.0
230
1.0
 70
     8
 71
     5
 72
    13
 73
     7
 74
     0
 42
0.00000001
 43
0.00000001
 40
0.0
 40
0.0
 40
0.0
 40
0.0
 40
0.0
 40
0.0
 40
0.5
 40
1.0
 40
1.0
 40
1.0
 40
1.0
 40
1.0
 40
1.0
 10
81.22094348916917
 20
88.61417545481405
 30
0.0
 10
80.64790351671435
 20
89.01314981666374
 30
0.0
 10
78.87109255587197
 20
92.75809089252324
 30
0.0
 10
79.31818050487519
 20
97.7380620135094
 30
0.0
 10
74.41222360300759
 20
96.77287453067638
 30
0.0
 10
70.50207038694728
 20
98.14849899947691
 30
0.0
 10
70.04538266068555
 20
98.6766956220771
 30
0.0
  0
SPLINE
  5
EA
330
1F
100
AcDbEntity
  8
0
  6
Continuous
 62
     7
370
    25
100
AcDbSpline
210
0.0
220
0.0
230
1.0
 70
     8
 71
     5
 72
    13
 73
     7
 74
     0
 42
0.00000001
 43
0.00000001
 40
0.0
 40
0.0
 40
0.0
 40
0.0
 40
0.0
 40
0.0
 40
0.5
 40
1.0
 40
1.0
 40
1.0
 40
1.0
 40
1.0
 40
1.0
 10
70.04538266068555
 20
98.67669562207712
 30
0.0
 10
69.59513071514979
 20
99.21038892069126
 30
0.0
 10
68.8481251928578
 20
103.2875967400076
 30
0.0
 10
70.5688903595944
 20
107.982164583904
 30
0.0
 10
65.58029098276762
 20
108.3196201476802
 30
0.0
 10
62.15941081806236
 20
110.6603934709551
 30
0.0
 10
61.85499169420466
 20
111.2887917113044
 30
0.0
  0
SPLINE
  5
EB
330
1F
100
AcDbEntity
  8
0
  6
Continuous
 62
     7
370
    25
100
AcDbSpline
210
0.0
220
0.0
230
1.0
 70
     8
 71
     5
 72
    13
 73
     7
 74
     0
 42
0.00000001
 43
0.00000001
 40
0.0
 40
0.0
 40
0.0
 40
0.0
 40
0.0
 40
0.0
 40
0.5
 40
1.0
 40
1.0
 40
1.0
 40
1.0
 40
1.0
 40
1.0
 10
61.85499169420468
 20
111.2887917113044
 30
0.0
 10
61.55821170159971
 20
111.9208336303523
 30
0.0
 10
61.89191880971734
 20
116.0524532181437
 30
0.0
 10
64.76909389177308
 20
120.1416907445289
 30
0.0
 10
60.03781684346763
 20
121.7587923159146
 30
0.0
 10
57.33933706007027
 20
124.9051946599935
 30
0.0
 10
57.20793219883115
 20
125.5909702164892
 30
0.0
  0
SPLINE
  5
EC
330
1F
100
AcDbEntity
  8
0
  6
Continuous
 62
     7
370
    25
100
AcDbSpline
210
0.0
220
0.0
230
1.0
 70
     8
 71
     5
 72
    13
 73
     7
 74
     0
 42
0.00000001
 43
0.00000001
 40
0.0
 40
0.0
 40
0.0
 40
0.0
 40
0.0
 40
0.0
 40
0.5
 40
1.0
 40
1.0
 40
1.0
 40
1.0
 40
1.0
 40
1.0
 10
57.20793219883115
 20
125.5909702164892
 30
0.0
 10
57.08484922520088
 20
126.2782881436865
 30
0.0
 10
58.47652737578697
 20
130.182756452869
 30
0.0
 10
62.31403764607641
 20
133.3879888821045
 30
0.0
 10
58.16251163832928
 20
136.1745336613965
 30
0.0
 10
56.37032917402968
 20
139.9121429062061
 30
0.0
 10
56.42089359954577
 20
140.6085613079709
 30
0.0
  0
SPLINE
  5
ED
330
1F
100
AcDbEntity
  8
0
  6
Continuous
 62
     7
370
    25
100
AcDbSpline
210
0.0
220
0.0
230
1.0
 70
     8
 71
     5
 72
    13
 73
     7
 74
     0
 42
0.00000001
 43
0.00000001
 40
0.0
 40
0.0
 40
0.0
 40
0.0
 40
0.0
 40
0.0
 40
0.5
 40
1.0
 40
1.0
 40
1.0
 40
1.0
 40
1.0
 40
1.0
 10
56.42089359954577
 20
140.6085613079709
 30
0.0
 10
56.47989554613888
 20
141.3043156624255
 30
0.0
 10
58.83470417308786
 20
144.7155496301674
 30
0.0
 10
63.37102964847634
 20
146.8183456690978
 30
0.0
 10
60.0821743179944
 20
150.5844352345702
 30
0.0
 10
59.31842344601301
 20
154.6585394867682
 30
0.0
 10
59.54751127624706
 20
155.3181409706075
 30
0.0
  0
SPLINE
  5
EE
330
1F
100
AcDbEntity
  8
0
  6
Continuous
 62
     7
370
    25
100
AcDbSpline
210
0.0
220
0.0
230
1.0
 70
     8
 71
     5
 72
    13
 73
     7
 74
     0
 42
0.00000001
 43
0.00000001
 40
0.0
 40
0.0
 40
0.0
 40
0.0
 40
0.0
 40
0.0
 40
0.5
 40
1.0
 40
1.0
 40
1.0
 40
1.0
 40
1.0
 40
1.0
 10
59.54751127624706
 20
155.3181409706075
 30
0.0
 10
59.78457725790854
 20
155.9749172428519
 30
0.0
 10
62.94204004479909
 20
158.6604469115822
 30
0.0
 10
67.86803764077119
 20
159.5175044851891
 30
0.0
 10
65.66598304323635
 20
164.0064860567124
 30
0.0
 10
65.98271212334072
 20
168.1394418442869
 30
0.0
 10
66.37471140124782
 20
168.7172756591201
 30
0.0
  0
SPLINE
  5
EF
330
1F
100
AcDbEntity
  8
0
  6
Continuous
 62
     7
370
    25
100
AcDbSpline
210
0.0
220
0.0
230
1.0
 70
     8
 71
     5
 72
    13
 73
     7
 74
     0
 42
0.00000001
 43
0.00000001
 40
0.0
 40
0.0
 40
0.0
 40
0.0
 40
0.0
 40
0.0
 40
0.5
 40
1.0
 40
1.0
 40
1.0
 40
1.0
 40
1.0
 40
1.0
 10
66.37471140124784
 20
168.7172756591201
 30
0.0
 10
66.77368576309752
 20
169.2903156315749
 30
0.0
 10
70.51862683895703
 20
171.0671265924173
 30
0.0
 10
75.49859795994317
 20
170.620038643414
 30
0.0
 10
74.53341047711017
 20
175.5259955452816
 30
0.0
 10
75.90903494591073
 20
179.4361487613419
 30
0.0
 10
76.43723156851094
 20
179.8928364876037
 30
0.0
  0
ARC
  5
F0
330
1F
100
AcDbEntity
  8
0
  6
Continuous
 62
     7
370
    25
100
AcDbCircle
 10
113.8493775474
 20
136.0888416009
 30
0.0
 40
66.00000000000001
100
AcDbArc
 50
111.838093841
 51
119.161906159
  0
LINE
  5
F1
330
1F
100
AcDbEntity
  8
0
  6
Continuous
 62
     7
370
    25
100
AcDbLine
 10
81.6889518122
 20
193.7230937131
 30
0.0
 11
74.6232931195
 21
204.6032539803
 31
0.0
  0
LINE
  5
F2
330
1F
100
AcDbEntity
  8
0
  6
Continuous
 62
     7
370
    25
100
AcDbLine
 10
77.2953871212
 20
209.8475337398
 30
0.0
 11
74.6232931195
 21
204.6032539803
 31
0.0
  0
ARC
  5
F3
330
1F
100
AcDbEntity
  8
0
  6
Continuous
 62
     7
370
    25
100
AcDbCircle
 10
77.2062864688
 20
209.8929327897
 30
0.0
 40
0.1000000000000363
100
AcDbArc
 50
333.0
 51
116.403999788
  0
ARC
  5
F4
330
1F
100
AcDbEntity
  8
0
  6
Continuous
 62
     7
370
    25
100
AcDbCircle
 10
113.8493775474
 20
136.0888416009
 30
0.0
 40
82.50000000000003
100
AcDbArc
 50
116.403999788
 51
129.596000212
  0
ARC
  5
F5
330
1F
100
AcDbEntity
  8
0
  6
Continuous
 62
     7
370
    25
100
AcDbCircle
 10
61.3300731436
 20
199.5827993051
 30
0.0
 40
0.1000000000000335
100
AcDbArc
 50
129.596000212
 51
273.0
  0
LINE
  5
F6
330
1F
100
AcDbEntity
  8
0
  6
Continuous
 62
     7
370
    25
100
AcDbLine
 10
61.3353067392
 20
199.4829363517
 30
0.0
 11
67.2130332364
 21
199.7909749446
 31
0.0
  0
LINE
  5
F7
330
1F
100
AcDbEntity
  8
0
  6
Continuous
 62
     7
370
    25
100
AcDbLine
 10
74.2786919291
 20
188.9108146775
 30
0.0
 11
67.2130332364
 21
199.7909749446
 31
0.0
  0
ARC
  5
F8
330
1F
100
AcDbEntity
  8
0
  6
Continuous
 62
     7
370
    25
100
AcDbCircle
 10
113.8493775474
 20
136.0888416009
 30
0.0
 40
66.00000000000001
100
AcDbArc
 50
126.838093841
 51
134.161906159
  0
LINE
  5
F9
330
1F
100
AcDbEntity
  8
0
  6
Continuous
 62
     7
370
    25
100
AcDbLine
 10
67.8679496484
 20
183.4355235161
 30
0.0
 11
58.2270547465
 21
192.1162242764
 31
0.0
  0
LINE
  5
FA
330
1F
100
AcDbEntity
  8
0
  6
Continuous
 62
     7
370
    25
100
AcDbLine
 10
59.4507798734
 20
197.8733983544
 30
0.0
 11
58.2270547465
 21
192.1162242764
 31
0.0
  0
ARC
  5
FB
330
1F
100
AcDbEntity
  8
0
  6
Continuous
 62
     7
370
    25
100
AcDbCircle
 10
59.3529651134
 20
197.8941895234
 30
0.0
 40
0.1000000000000224
100
AcDbArc
 50
348.0
 51
131.4039997879
  0
ARC
  5
FC
330
1F
100
AcDbEntity
  8
0
  6
Continuous
 62
     7
370
    25
100
AcDbCircle
 10
113.8493775474
 20
136.0888416009
 30
0.0
 40
82.50000000000003
100
AcDbArc
 50
131.403999788
 51
144.596000212
  0
ARC
  5
FD
330
1F
100
AcDbEntity
  8
0
  6
Continuous
 62
     7
370
    25
100
AcDbCircle
 10
46.6861795422
 20
183.8262989455
 30
0.0
 40
0.1000000000000055
100
AcDbArc
 50
144.596000212
 51
288.0
  0
LINE
  5
FE
330
1F
100
AcDbEntity
  8
0
  6
Continuous
 62
     7
370
    25
100
AcDbLine
 10
46.7170812417
 20
183.7311932939
 30
0.0
 11
52.3148028107
 21
185.5500032857
 31
0.0
  0
LINE
  5
FF
330
1F
100
AcDbEntity
  8
0
  6
Continuous
 62
     7
370
    25
100
AcDbLine
 10
61.9556977126
 20
176.8693025253
 30
0.0
 11
52.3148028107
 21
185.5500032857
 31
0.0
  0
ARC
  5
100
330
1F
100
AcDbEntity
  8
0
  6
Continuous
 62
     7
370
    25
100
AcDbCircle
 10
113.8493775474
 20
136.0888416009
 30
0.0
 40
66.00000000000001
100
AcDbArc
 50
141.838093841
 51
149.161906159
  0
LINE
  5
101
330
1F
100
AcDbEntity
  8
0
  6
Continuous
 62
     7
370
    25
100
AcDbLine
 10
57.1805058081
 20
169.9213551906
 30
0.0
 11
45.6213857521
 21
175.8110210329
 31
0.0
  0
LINE
  5
102
330
1F
100
AcDbEntity
  8
0
  6
Continuous
 62
     7
370
    25
100
AcDbLine
 10
45.3133471592
 20
181.68874753
 30
0.0
 11
45.6213857521
 21
175.8110210329
 31
0.0
  0
ARC
  5
103
330
1F
100
AcDbEntity
  8
0
  6
Continuous
 62
     7
370
    25
100
AcDbCircle
 10
45.2134842057
 20
181.6835139344
 30
0.0
 40
0.1000000000000357
100
AcDbArc
 50
3.0
 51
146.403999788
  0
ARC
  5
104
330
1F
100
AcDbEntity
  8
0
  6
Continuous
 62
     7
370
    25
100
AcDbCircle
 10
113.8493775474
 20
136.0888416009
 30
0.0
 40
82.50000000000004
100
AcDbArc
 50
146.403999788
 51
159.596000212
  0
ARC
  5
105
330
1F
100
AcDbEntity
  8
0
  6
Continuous
 62
     7
370
    25
100
AcDbCircle
 10
36.6193468925
 20
164.8165697577
 30
0.0
 40
0.1000000000000372
100
AcDbArc
 50
159.596000212
 51
303.0
  0
LINE
  5
106
330
1F
100
AcDbEntity
  8
0
  6
Continuous
 62
     7
370
    25
100
AcDbLine
 10
36.673810796
 20
164.7327027009
 30
0.0
 11
41.6100519626
 21
167.9383351963
 31
0.0
  0
LINE
  5
107
330
1F
100
AcDbEntity
  8
0
  6
Continuous
 62
     7
370
    25
100
AcDbLine
 10
53.1691720185
 20
162.0486693541
 30
0.0
 11
41.6100519626
 21
167.9383351963
 31
0.0
  0
ARC
  5
108
330
1F
100
AcDbEntity
  8
0
  6
Continuous
 62
     7
370
    25
100
AcDbCircle
 10
113.8493775474
 20
136.0888416009
 30
0.0
 40
66.0
100
AcDbArc
 50
156.838093841
 51
164.161906159
  0
LINE
  5
109
330
1F
100
AcDbEntity
  8
0
  6
Continuous
 62
     7
370
    25
100
AcDbLine
 10
50.354951927
 20
154.1015569749
 30
0.0
 11
37.6653416466
 21
156.798816905
 31
0.0
  0
LINE
  5
10A
330
1F
100
AcDbEntity
  8
0
  6
Continuous
 62
     7
370
    25
100
AcDbLine
 10
35.8465316548
 20
162.396538474
 30
0.0
 11
37.6653416466
 21
156.798816905
 31
0.0
  0
ARC
  5
10B
330
1F
100
AcDbEntity
  8
0
  6
Continuous
 62
     7
370
    25
100
AcDbCircle
 10
35.7514260031
 20
162.3656367746
 30
0.0
 40
0.1000000000000383
100
AcDbArc
 50
18.0
 51
161.4039997879
  0
ARC
  5
10C
330
1F
100
AcDbEntity
  8
0
  6
Continuous
 62
     7
370
    25
100
AcDbCircle
 10
113.8493775474
 20
136.0888416009
 30
0.0
 40
82.50000000000001
100
AcDbArc
 50
161.403999788
 51
174.596000212
  0
ARC
  5
10D
330
1F
100
AcDbEntity
  8
0
  6
Continuous
 62
     7
370
    25
100
AcDbCircle
 10
31.8156132032
 20
143.8490933708
 30
0.0
 40
0.1000000000000095
100
AcDbArc
 50
174.596000212
 51
318.0
  0
LINE
  5
10E
330
1F
100
AcDbEntity
  8
0
  6
Continuous
 62
     7
370
    25
100
AcDbLine
 10
31.8899276858
 20
143.7821803102
 30
0.0
 11
35.8282917719
 21
148.1561767522
 31
0.0
  0
LINE
  5
10F
330
1F
100
AcDbEntity
  8
0
  6
Continuous
 62
     7
370
    25
100
AcDbLine
 10
48.5179020524
 20
145.4589168221
 30
0.0
 11
35.8282917719
 21
148.1561767522
 31
0.0
  0
ARC
  5
110
330
1F
100
AcDbEntity
  8
0
  6
Continuous
 62
     7
370
    25
100
AcDbCircle
 10
113.8493775474
 20
136.0888416009
 30
0.0
 40
66.0
100
AcDbArc
 50
171.838093841
 51
179.161906159
  0
LINE
  5
111
330
1F
100
AcDbEntity
  8
0
  6
Continuous
 62
     7
370
    25
100
AcDbLine
 10
47.8564382225
 20
137.0542219738
 30
0.0
 11
34.9011136875
 21
136.3752621851
 31
0.0
  0
LINE
  5
112
330
1F
100
AcDbEntity
  8
0
  6
Continuous
 62
     7
370
    25
100
AcDbLine
 10
31.6954811921
 20
141.3115033516
 30
0.0
 11
34.9011136875
 21
136.3752621851
 31
0.0
  0
ARC
  5
113
330
1F
100
AcDbEntity
  8
0
  6
Continuous
 62
     7
370
    25
100
AcDbCircle
 10
31.6116141353
 20
141.2570394481
 30
0.0
 40
0.1000000000000258
100
AcDbArc
 50
33.0
 51
176.403999788
  0
ARC
  5
114
330
1F
100
AcDbEntity
  8
0
  6
Continuous
 62
     7
370
    25
100
AcDbCircle
 10
113.8493775474
 20
136.0888416009
 30
0.0
 40
82.50000000000001
100
AcDbArc
 50
176.403999788
 51
189.596000212
  0
ARC
  5
115
330
1F
100
AcDbEntity
  8
0
  6
Continuous
 62
     7
370
    25
100
AcDbCircle
 10
32.6023449868
 20
122.3527686503
 30
0.0
 40
0.1000000000000132
100
AcDbArc
 50
189.596000212
 51
333.0
  0
LINE
  5
116
330
1F
100
AcDbEntity
  8
0
  6
Continuous
 62
     7
370
    25
100
AcDbLine
 10
32.6914456392
 20
122.3073696003
 30
0.0
 11
35.363539641
 21
127.5516493598
 31
0.0
  0
LINE
  5
117
330
1F
100
AcDbEntity
  8
0
  6
Continuous
 62
     7
370
    25
100
AcDbLine
 10
48.3188641759
 20
128.2306091486
 30
0.0
 11
35.363539641
 21
127.5516493598
 31
0.0
  0
ARC
  5
118
330
1F
100
AcDbEntity
  8
0
  6
Continuous
 62
     7
370
    25
100
AcDbCircle
 10
113.8493775474
 20
136.0888416009
 30
0.0
 40
66.0
100
AcDbArc
 50
186.838093841
 51
194.161906159
  0
LINE
  5
119
330
1F
100
AcDbEntity
  8
0
  6
Continuous
 62
     7
370
    25
100
AcDbLine
 10
49.8552342745
 20
119.9410978957
 30
0.0
 11
37.5170794424
 21
115.9321883756
 31
0.0
  0
LINE
  5
11A
330
1F
100
AcDbEntity
  8
0
  6
Continuous
 62
     7
370
    25
100
AcDbLine
 10
33.1430830004
 20
119.8705524618
 30
0.0
 11
37.5170794424
 21
115.9321883756
 31
0.0
  0
ARC
  5
11B
330
1F
100
AcDbEntity
  8
0
  6
Continuous
 62
     7
370
    25
100
AcDbCircle
 10
33.0761699397
 20
119.7962379792
 30
0.0
 40
0.1000000000000321
100
AcDbArc
 50
48.0
 51
191.403999788
  0
ARC
  5
11C
330
1F
100
AcDbEntity
  8
0
  6
Continuous
 62
     7
370
    25
100
AcDbCircle
 10
113.8493775474
 20
136.0888416009
 30
0.0
 40
82.50000000000001
100
AcDbArc
 50
191.403999788
 51
204.596000212
  0
ARC
  5
11D
330
1F
100
AcDbEntity
  8
0
  6
Continuous
 62
     7
370
    25
100
AcDbCircle
 10
38.9259277723
 20
101.7925346014
 30
0.0
 40
0.1000000000000166
100
AcDbArc
 50
204.596000212
 51
348.0
  0
LINE
  5
11E
330
1F
100
AcDbEntity
  8
0
  6
Continuous
 62
     7
370
    25
100
AcDbLine
 10
39.0237425324
 20
101.7717434323
 30
0.0
 11
40.2474676593
 21
107.5289175102
 31
0.0
  0
LINE
  5
11F
330
1F
100
AcDbEntity
  8
0
  6
Continuous
 62
     7
370
    25
100
AcDbLine
 10
52.5856224914
 20
111.5378270303
 30
0.0
 11
40.2474676593
 21
107.5289175102
 31
0.0
  0
ARC
  5
120
330
1F
100
AcDbEntity
  8
0
  6
Continuous
 62
     7
370
    25
100
AcDbCircle
 10
113.8493775474
 20
136.0888416009
 30
0.0
 40
66.0
100
AcDbArc
 50
201.838093841
 51
209.161906159
  0
LINE
  5
121
330
1F
100
AcDbEntity
  8
0
  6
Continuous
 62
     7
370
    25
100
AcDbLine
 10
56.2151254352
 20
103.9284158657
 30
0.0
 11
45.334965168
 21
96.862757173
 31
0.0
  0
LINE
  5
122
330
1F
100
AcDbEntity
  8
0
  6
Continuous
 62
     7
370
    25
100
AcDbLine
 10
40.0906854085
 20
99.5348511748
 30
0.0
 11
45.334965168
 21
96.862757173
 31
0.0
  0
ARC
  5
123
330
1F
100
AcDbEntity
  8
0
  6
Continuous
 62
     7
370
    25
100
AcDbCircle
 10
40.0452863585
 20
99.4457505224
 30
0.0
 40
0.1000000000000236
100
AcDbArc
 50
63.0
 51
206.403999788
  0
ARC
  5
124
330
1F
100
AcDbEntity
  8
0
  6
Continuous
 62
     7
370
    25
100
AcDbCircle
 10
113.8493775474
 20
136.0888416009
 30
0.0
 40
82.50000000000003
100
AcDbArc
 50
206.403999788
 51
219.596000212
  0
ARC
  5
125
330
1F
100
AcDbEntity
  8
0
  6
Continuous
 62
     7
370
    25
100
AcDbCircle
 10
50.3554198431
 20
83.5695371972
 30
0.0
 40
0.1000000000000135
100
AcDbArc
 50
219.596000212
 51
3.0
  0
LINE
  5
126
330
1F
100
AcDbEntity
  8
0
  6
Continuous
 62
     7
370
    25
100
AcDbLine
 10
50.4552827966
 20
83.5747707928
 30
0.0
 11
50.1472442037
 21
89.4524972899
 31
0.0
  0
LINE
  5
127
330
1F
100
AcDbEntity
  8
0
  6
Continuous
 62
     7
370
    25
100
AcDbLine
 10
61.0274044708
 20
96.5181559826
 30
0.0
 11
50.1472442037
 21
89.4524972899
 31
0.0
  0
ARC
  5
128
330
1F
100
AcDbEntity
  8
0
  6
Continuous
 62
     7
370
    25
100
AcDbCircle
 10
113.8493775474
 20
136.0888416009
 30
0.0
 40
66.00000000000001
100
AcDbArc
 50
216.838093841
 51
224.161906159
  0
LINE
  5
129
330
1F
100
AcDbEntity
  8
0
  6
Continuous
 62
     7
370
    25
100
AcDbLine
 10
66.5026956322
 20
90.107413702
 30
0.0
 11
57.8219948719
 21
80.4665188001
 31
0.0
  0
LINE
  5
12A
330
1F
100
AcDbEntity
  8
0
  6
Continuous
 62
     7
370
    25
100
AcDbLine
 10
52.0648207939
 20
81.690243927
 30
0.0
 11
57.8219948719
 21
80.4665188001
 31
0.0
  0
ARC
  5
12B
330
1F
100
AcDbEntity
  8
0
  6
Continuous
 62
     7
370
    25
100
AcDbCircle
 10
52.0440296248
 20
81.5924291669
 30
0.0
 40
0.1000000000000465
100
AcDbArc
 50
78.0
 51
221.403999788
  0
ARC
  5
12C
330
1F
100
AcDbEntity
  8
0
  6
Continuous
 62
     7
370
    25
100
AcDbCircle
 10
113.8493775474
 20
136.0888416009
 30
0.0
 40
82.50000000000003
100
AcDbArc
 50
221.403999788
 51
234.596000212
  0
ARC
  5
12D
330
1F
100
AcDbEntity
  8
0
  6
Continuous
 62
     7
370
    25
100
AcDbCircle
 10
66.1119202028
 20
68.9256435958
 30
0.0
 40
0.1000000000000393
100
AcDbArc
 50
234.596000212
 51
18.0
  0
LINE
  5
12E
330
1F
100
AcDbEntity
  8
0
  6
Continuous
 62
     7
370
    25
100
AcDbLine
 10
66.2070258544
 20
68.9565452952
 30
0.0
 11
64.3882158626
 21
74.5542668642
 31
0.0
  0
LINE
  5
12F
330
1F
100
AcDbEntity
  8
0
  6
Continuous
 62
     7
370
    25
100
AcDbLine
 10
73.068916623
 20
84.1951617661
 30
0.0
 11
64.3882158626
 21
74.5542668642
 31
0.0
  0
ARC
  5
130
330
1F
100
AcDbEntity
  8
0
  6
Continuous
 62
     7
370
    25
100
AcDbCircle
 10
113.8493775474
 20
136.0888416009
 30
0.0
 40
66.0
100
AcDbArc
 50
231.838093841
 51
239.161906159
  0
LINE
  5
131
330
1F
100
AcDbEntity
  8
0
  6
Continuous
 62
     7
370
    25
100
AcDbLine
 10
80.0168639577
 20
79.4199698616
 30
0.0
 11
74.1271981154
 21
67.8608498057
 31
0.0
  0
LINE
  5
132
330
1F
100
AcDbEntity
  8
0
  6
Continuous
 62
     7
370
    25
100
AcDbLine
 10
68.2494716183
 20
67.5528112128
 30
0.0
 11
74.1271981154
 21
67.8608498057
 31
0.0
  0
ARC
  5
133
330
1F
100
AcDbEntity
  8
0
  6
Continuous
 62
     7
370
    25
100
AcDbCircle
 10
68.2547052139
 20
67.4529482593
 30
0.0
 40
0.1000000000000062
100
AcDbArc
 50
93.0
 51
236.403999788
  0
ARC
  5
134
330
1F
100
AcDbEntity
  8
0
  6
Continuous
 62
     7
370
    25
100
AcDbCircle
 10
113.8493775474
 20
136.0888416009
 30
0.0
 40
82.49999999999999
100
AcDbArc
 50
236.403999788
 51
249.596000212
  0
ARC
  5
135
330
1F
100
AcDbEntity
  8
0
  6
Continuous
 62
     7
370
    25
100
AcDbCircle
 10
85.1216493906
 20
58.8588109461
 30
0.0
 40
0.1000000000000207
100
AcDbArc
 50
249.596000212
 51
33.0
  0
LINE
  5
136
330
1F
100
AcDbEntity
  8
0
  6
Continuous
 62
     7
370
    25
100
AcDbLine
 10
85.2055164474
 20
58.9132748496
 30
0.0
 11
81.999883952
 21
63.8495160161
 31
0.0
  0
LINE
  5
137
330
1F
100
AcDbEntity
  8
0
  6
Continuous
 62
     7
370
    25
100
AcDbLine
 10
87.8895497942
 20
75.408636072
 30
0.0
 11
81.999883952
 21
63.8495160161
 31
0.0
  0
ARC
  5
138
330
1F
100
AcDbEntity
  8
0
  6
Continuous
 62
     7
370
    25
100
AcDbCircle
 10
113.8493775474
 20
136.0888416009
 30
0.0
 40
65.99999999999999
100
AcDbArc
 50
246.838093841
 51
254.161906159
  0
LINE
  5
139
330
1F
100
AcDbEntity
  8
0
  6
Continuous
 62
     7
370
    25
100
AcDbLine
 10
95.8366621734
 20
72.5944159806
 30
0.0
 11
93.1394022433
 21
59.9048057001
 31
0.0
  0
LINE
  5
13A
330
1F
100
AcDbEntity
  8
0
  6
Continuous
 62
     7
370
    25
100
AcDbLine
 10
87.5416806743
 20
58.0859957083
 30
0.0
 11
93.1394022433
 21
59.9048057001
 31
0.0
  0
ARC
  5
13B
330
1F
100
AcDbEntity
  8
0
  6
Continuous
 62
     7
370
    25
100
AcDbCircle
 10
87.5725823737
 20
57.9908900567
 30
0.0
 40
0.1000000000000338
100
AcDbArc
 50
108.0
 51
251.403999788
  0
ARC
  5
13C
330
1F
100
AcDbEntity
  8
0
  6
Continuous
 62
     7
370
    25
100
AcDbCircle
 10
113.8493775474
 20
136.0888416009
 30
0.0
 40
82.5
100
AcDbArc
 50
251.403999788
 51
264.596000212
  0
ARC
  5
13D
330
1F
100
AcDbEntity
  8
0
  6
Continuous
 62
     7
370
    25
100
AcDbCircle
 10
106.0891257774
 20
54.0550772568
 30
0.0
 40
0.1000000000000072
100
AcDbArc
 50
264.596000212
 51
48.0
  0
LINE
  5
13E
330
1F
100
AcDbEntity
  8
0
  6
Continuous
 62
     7
370
    25
100
AcDbLine
 10
106.1560388381
 20
54.1293917393
 30
0.0
 11
101.782042396
 21
58.0677558255
 31
0.0
  0
LINE
  5
13F
330
1F
100
AcDbEntity
  8
0
  6
Continuous
 62
     7
370
    25
100
AcDbLine
 10
104.4793023262
 20
70.757366106
 30
0.0
 11
101.782042396
 21
58.0677558255
 31
0.0
  0
ARC
  5
140
330
1F
100
AcDbEntity
  8
0
  6
Continuous
 62
     7
370
    25
100
AcDbCircle
 10
113.8493775474
 20
136.0888416009
 30
0.0
 40
65.99999999999999
100
AcDbArc
 50
261.838093841
 51
269.161906159
  0
LINE
  5
141
330
1F
100
AcDbEntity
  8
0
  6
Continuous
 62
     7
370
    25
100
AcDbLine
 10
112.8839971745
 20
70.0959022761
 30
0.0
 11
113.5629569632
 21
57.1405777411
 31
0.0
  0
LINE
  5
142
330
1F
100
AcDbEntity
  8
0
  6
Continuous
 62
     7
370
    25
100
AcDbLine
 10
108.6267157967
 20
53.9349452457
 30
0.0
 11
113.5629569632
 21
57.1405777411
 31
0.0
  0
ARC
  5
143
330
1F
100
AcDbEntity
  8
0
  6
Continuous
 62
     7
370
    25
100
AcDbCircle
 10
108.6811797002
 20
53.8510781889
 30
0.0
 40
0.1000000000000266
100
AcDbArc
 50
123.0
 51
266.403999788
  0
ARC
  5
144
330
1F
100
AcDbEntity
  8
0
  6
Continuous
 62
     7
370
    25
100
AcDbCircle
 10
113.8493775474
 20
136.0888416009
 30
0.0
 40
82.5
100
AcDbArc
 50
266.403999788
 51
279.596000212
  0
ARC
  5
145
330
1F
100
AcDbEntity
  8
0
  6
Continuous
 62
     7
370
    25
100
AcDbCircle
 10
127.585450498
 20
54.8418090404
 30
0.0
 40
0.1000000000000248
100
AcDbArc
 50
279.596000212
 51
63.0
  0
LINE
  5
146
330
1F
100
AcDbEntity
  8
0
  6
Continuous
 62
     7
370
    25
100
AcDbLine
 10
127.630849548
 20
54.9309096928
 30
0.0
 11
122.3865697885
 21
57.6030036945
 31
0.0
  0
LINE
  5
147
330
1F
100
AcDbEntity
  8
0
  6
Continuous
 62
     7
370
    25
100
AcDbLine
 10
121.7076099997
 20
70.5583282295
 30
0.0
 11
122.3865697885
 21
57.6030036945
 31
0.0
  0
ARC
  5
148
330
1F
100
AcDbEntity
  8
0
  6
Continuous
 62
     7
370
    25
100
AcDbCircle
 10
113.8493775474
 20
136.0888416009
 30
0.0
 40
65.99999999999999
100
AcDbArc
 50
276.838093841
 51
284.161906159
  0
LINE
  5
149
330
1F
100
AcDbEntity
  8
0
  6
Continuous
 62
     7
370
    25
100
AcDbLine
 10
129.9971212526
 20
72.094698328
 30
0.0
 11
134.0060307727
 21
59.756543496
 31
0.0
  0
LINE
  5
14A
330
1F
100
AcDbEntity
  8
0
  6
Continuous
 62
     7
370
    25
100
AcDbLine
 10
130.0676666865
 20
55.3825470539
 30
0.0
 11
134.0060307727
 21
59.756543496
 31
0.0
  0
ARC
  5
14B
330
1F
100
AcDbEntity
  8
0
  6
Continuous
 62
     7
370
    25
100
AcDbCircle
 10
130.1419811691
 20
55.3156339933
 30
0.0
 40
0.1000000000000293
100
AcDbArc
 50
138.0
 51
281.4039997879
  0
ARC
  5
14C
330
1F
100
AcDbEntity
  8
0
  6
Continuous
 62
     7
370
    25
100
AcDbCircle
 10
113.8493775474
 20
136.0888416009
 30
0.0
 40
82.5
100
AcDbArc
 50
281.403999788
 51
294.596000212
  0
ARC
  5
14D
330
1F
100
AcDbEntity
  8
0
  6
Continuous
 62
     7
370
    25
100
AcDbCircle
 10
148.1456845469
 20
61.1653918259
 30
0.0
 40
0.1000000000000166
100
AcDbArc
 50
294.596000212
 51
78.0
  0
LINE
  5
14E
330
1F
100
AcDbEntity
  8
0
  6
Continuous
 62
     7
370
    25
100
AcDbLine
 10
148.166475716
 20
61.263206586
 30
0.0
 11
142.4093016381
 21
62.4869317129
 31
0.0
  0
LINE
  5
14F
330
1F
100
AcDbEntity
  8
0
  6
Continuous
 62
     7
370
    25
100
AcDbLine
 10
138.4003921179
 20
74.825086545
 30
0.0
 11
142.4093016381
 21
62.4869317129
 31
0.0
  0
ARC
  5
150
330
1F
100
AcDbEntity
  8
0
  6
Continuous
 62
     7
370
    25
100
AcDbCircle
 10
113.8493775474
 20
136.0888416009
 30
0.0
 40
66.0
100
AcDbArc
 50
291.838093841
 51
299.161906159
  0
LINE
  5
151
330
1F
100
AcDbEntity
  8
0
  6
Continuous
 62
     7
370
    25
100
AcDbLine
 10
146.0098032825
 20
78.4545894887
 30
0.0
 11
153.0754619752
 21
67.5744292216
 31
0.0
  0
LINE
  5
152
330
1F
100
AcDbEntity
  8
0
  6
Continuous
 62
     7
370
    25
100
AcDbLine
 10
150.4033679735
 20
62.3301494621
 30
0.0
 11
153.0754619752
 21
67.5744292216
 31
0.0
  0
ARC
  5
153
330
1F
100
AcDbEntity
  8
0
  6
Continuous
 62
     7
370
    25
100
AcDbCircle
 10
150.4924686259
 20
62.2847504121
 30
0.0
 40
0.1000000000000299
100
AcDbArc
 50
153.0
 51
296.403999788
  0
ARC
  5
154
330
1F
100
AcDbEntity
  8
0
  6
Continuous
 62
     7
370
    25
100
AcDbCircle
 10
113.8493775474
 20
136.0888416009
 30
0.0
 40
82.50000000000003
100
AcDbArc
 50
296.403999788
 51
309.596000212
  0
ARC
  5
155
330
1F
100
AcDbEntity
  8
0
  6
Continuous
 62
     7
370
    25
100
AcDbCircle
 10
166.3686819511
 20
72.5948838967
 30
0.0
 40
0.1000000000000245
100
AcDbArc
 50
309.596000212
 51
93.0
  0
LINE
  5
156
330
1F
100
AcDbEntity
  8
0
  6
Continuous
 62
     7
370
    25
100
AcDbLine
 10
166.3634483555
 20
72.6947468502
 30
0.0
 11
160.4857218584
 21
72.3867082572
 31
0.0
  0
LINE
  5
157
330
1F
100
AcDbEntity
  8
0
  6
Continuous
 62
     7
370
    25
100
AcDbLine
 10
153.4200631657
 20
83.2668685244
 30
0.0
 11
160.4857218584
 21
72.3867082572
 31
0.0
  0
ARC
  5
158
330
1F
100
AcDbEntity
  8
0
  6
Continuous
 62
     7
370
    25
100
AcDbCircle
 10
113.8493775474
 20
136.0888416009
 30
0.0
 40
66.00000000000001
100
AcDbArc
 50
306.838093841
 51
314.161906159
  0
LINE
  5
159
330
1F
100
AcDbEntity
  8
0
  6
Continuous
 62
     7
370
    25
100
AcDbLine
 10
159.8308054463
 20
88.7421596858
 30
0.0
 11
169.4717003482
 21
80.0614589254
 31
0.0
  0
LINE
  5
15A
330
1F
100
AcDbEntity
  8
0
  6
Continuous
 62
     7
370
    25
100
AcDbLine
 10
168.2479752213
 20
74.3042848475
 30
0.0
 11
169.4717003482
 21
80.0614589254
 31
0.0
  0
ARC
  5
15B
330
1F
100
AcDbEntity
  8
0
  6
Continuous
 62
     7
370
    25
100
AcDbCircle
 10
168.3457899814
 20
74.2834936784
 30
0.0
 40
0.1000000000000505
100
AcDbArc
 50
168.0
 51
311.403999788
  0
ARC
  5
15C
330
1F
100
AcDbEntity
  8
0
  6
Continuous
 62
     7
370
    25
100
AcDbCircle
 10
113.8493775474
 20
136.0888416009
 30
0.0
 40
82.50000000000003
100
AcDbArc
 50
311.403999788
 51
324.596000212
  0
ARC
  5
15D
330
1F
100
AcDbEntity
  8
0
  6
Continuous
 62
     7
370
    25
100
AcDbCircle
 10
181.0125755525
 20
88.3513842564
 30
0.0
 40
0.1000000000000128
100
AcDbArc
 50
324.596000212
 51
108.0
  0
LINE
  5
15E
330
1F
100
AcDbEntity
  8
0
  6
Continuous
 62
     7
370
    25
100
AcDbLine
 10
180.981673853
 20
88.446489908
 30
0.0
 11
175.3839522841
 21
86.6276799162
 31
0.0
  0
LINE
  5
15F
330
1F
100
AcDbEntity
  8
0
  6
Continuous
 62
     7
370
    25
100
AcDbLine
 10
165.7430573821
 20
95.3083806765
 30
0.0
 11
175.3839522841
 21
86.6276799162
 31
0.0
  0
ARC
  5
160
330
1F
100
AcDbEntity
  8
0
  6
Continuous
 62
     7
370
    25
100
AcDbCircle
 10
113.8493775474
 20
136.0888416009
 30
0.0
 40
66.0
100
AcDbArc
 50
321.838093841
 51
329.161906159
  0
LINE
  5
161
330
1F
100
AcDbEntity
  8
0
  6
Continuous
 62
     7
370
    25
100
AcDbLine
 10
170.5182492867
 20
102.2563280112
 30
0.0
 11
182.0773693426
 21
96.366662169
 31
0.0
  0
LINE
  5
162
330
1F
100
AcDbEntity
  8
0
  6
Continuous
 62
     7
370
    25
100
AcDbLine
 10
182.3854079355
 20
90.4889356718
 30
0.0
 11
182.0773693426
 21
96.366662169
 31
0.0
  0
ARC
  5
163
330
1F
100
AcDbEntity
  8
0
  6
Continuous
 62
     7
370
    25
100
AcDbCircle
 10
182.485270889
 20
90.4941692675
 30
0.0
 40
0.1000000000000221
100
AcDbArc
 50
183.0
 51
326.4039997879
  0
ARC
  5
164
330
1F
100
AcDbEntity
  8
0
  6
Continuous
 62
     7
370
    25
100
AcDbCircle
 10
113.8493775474
 20
136.0888416009
 30
0.0
 40
82.50000000000001
100
AcDbArc
 50
326.403999788
 51
339.596000212
  0
ARC
  5
165
330
1F
100
AcDbEntity
  8
0
  6
Continuous
 62
     7
370
    25
100
AcDbCircle
 10
191.0794082022
 20
107.3611134442
 30
0.0
 40
0.100000000000014
100
AcDbArc
 50
339.596000212
 51
123.0
  0
LINE
  5
166
330
1F
100
AcDbEntity
  8
0
  6
Continuous
 62
     7
370
    25
100
AcDbLine
 10
191.0249442987
 20
107.4449805009
 30
0.0
 11
186.0887031322
 21
104.2393480055
 31
0.0
  0
LINE
  5
167
330
1F
100
AcDbEntity
  8
0
  6
Continuous
 62
     7
370
    25
100
AcDbLine
 10
174.5295830762
 20
110.1290138478
 30
0.0
 11
186.0887031322
 21
104.2393480055
 31
0.0
  0
ARC
  5
168
330
1F
100
AcDbEntity
  8
0
  6
Continuous
 62
     7
370
    25
100
AcDbCircle
 10
113.8493775474
 20
136.0888416009
 30
0.0
 40
66.00000000000001
100
AcDbArc
 50
336.838093841
 51
344.161906159
  0
LINE
  5
169
330
1F
100
AcDbEntity
  8
0
  6
Continuous
 62
     7
370
    25
100
AcDbLine
 10
177.3438031677
 20
118.076126227
 30
0.0
 11
190.0334134482
 21
115.3788662968
 31
0.0
  0
LINE
  5
16A
330
1F
100
AcDbEntity
  8
0
  6
Continuous
 62
     7
370
    25
100
AcDbLine
 10
191.8522234399
 20
109.7811447279
 30
0.0
 11
190.0334134482
 21
115.3788662968
 31
0.0
  0
ARC
  5
16B
330
1F
100
AcDbEntity
  8
0
  6
Continuous
 62
     7
370
    25
100
AcDbCircle
 10
191.9473290916
 20
109.8120464273
 30
0.0
 40
0.1000000000000158
100
AcDbArc
 50
198.0
 51
341.403999788
  0
ARC
  5
16C
330
1F
100
AcDbEntity
  8
0
  6
Continuous
 62
     7
370
    25
100
AcDbCircle
 10
113.8493775474
 20
136.0888416009
 30
0.0
 40
82.50000000000003
100
AcDbArc
 50
341.403999788
 51
354.596000212
  0
ARC
  5
16D
330
1F
100
AcDbEntity
  8
0
  6
Continuous
 62
     7
370
    25
100
AcDbCircle
 10
195.8831418915
 20
128.328589831
 30
0.0
 40
0.1000000000000271
100
AcDbArc
 50
354.596000212
 51
138.0
  0
LINE
  5
16E
330
1F
100
AcDbEntity
  8
0
  6
Continuous
 62
     7
370
    25
100
AcDbLine
 10
195.8088274089
 20
128.3955028916
 30
0.0
 11
191.8704633228
 21
124.0215064496
 31
0.0
  0
LINE
  5
16F
330
1F
100
AcDbEntity
  8
0
  6
Continuous
 62
     7
370
    25
100
AcDbLine
 10
179.1808530423
 20
126.7187663798
 30
0.0
 11
191.8704633228
 21
124.0215064496
 31
0.0
  0
ARC
  5
170
330
1F
100
AcDbEntity
  8
0
  6
Continuous
 62
     7
370
    25
100
AcDbCircle
 10
113.8493775474
 20
136.0888416009
 30
0.0
 40
66.00000000000003
100
AcDbArc
 50
351.838093841
 51
359.161906159
  0
LINE
  5
171
330
1F
100
AcDbEntity
  8
0
  6
Continuous
 62
     7
370
    25
100
AcDbLine
 10
179.8423168722
 20
135.123461228
 30
0.0
 11
192.7976414072
 21
135.8024210168
 31
0.0
  0
LINE
  5
172
330
1F
100
AcDbEntity
  8
0
  6
Continuous
 62
     7
370
    25
100
AcDbLine
 10
196.0032739026
 20
130.8661798502
 30
0.0
 11
192.7976414072
 21
135.8024210168
 31
0.0
  0
ARC
  5
173
330
1F
100
AcDbEntity
  8
0
  6
Continuous
 62
     7
370
    25
100
AcDbCircle
 10
196.0871409594
 20
130.9206437537
 30
0.0
 40
0.1000000000000098
100
AcDbArc
 50
213.0
 51
356.4039997879
  0
ARC
  5
174
330
1F
100
AcDbEntity
  8
0
  6
Continuous
 62
     7
370
    25
100
AcDbCircle
 10
113.8493775474
 20
136.0888416009
 30
0.0
 40
82.50000000000003
100
AcDbArc
 50
356.403999788
 51
9.596000212
  0
ARC
  5
175
330
1F
100
AcDbEntity
  8
0
  6
Continuous
 62
     7
370
    25
100
AcDbCircle
 10
195.0964101079
 20
149.8249145516
 30
0.0
 40
0.1000000000000365
100
AcDbArc
 50
9.596000212
 51
153.0
  0
LINE
  5
176
330
1F
100
AcDbEntity
  8
0
  6
Continuous
 62
     7
370
    25
100
AcDbLine
 10
195.0073094555
 20
149.8703136015
 30
0.0
 11
192.3352154538
 21
144.626033842
 31
0.0
  0
LINE
  5
177
330
1F
100
AcDbEntity
  8
0
  6
Continuous
 62
     7
370
    25
100
AcDbLine
 10
179.3798909188
 20
143.9470740533
 30
0.0
 11
192.3352154538
 21
144.626033842
 31
0.0
  0
ARC
  5
178
330
1F
100
AcDbEntity
  8
0
  6
Continuous
 62
     7
370
    25
100
AcDbCircle
 10
113.8493775474
 20
136.0888416009
 30
0.0
 40
66.00000000000003
100
AcDbArc
 50
6.838093841
 51
14.161906159
  0
LINE
  5
179
330
1F
100
AcDbEntity
  8
0
  6
Continuous
 62
     7
370
    25
100
AcDbLine
 10
177.8435208203
 20
152.2365853061
 30
0.0
 11
190.1816756523
 21
156.2454948262
 31
0.0
  0
LINE
  5
17A
330
1F
100
AcDbEntity
  8
0
  6
Continuous
 62
     7
370
    25
100
AcDbLine
 10
194.5556720944
 20
152.3071307401
 30
0.0
 11
190.1816756523
 21
156.2454948262
 31
0.0
  0
ARC
  5
17B
330
1F
100
AcDbEntity
  8
0
  6
Continuous
 62
     7
370
    25
100
AcDbCircle
 10
194.622585155
 20
152.3814452226
 30
0.0
 40
0.1000000000000153
100
AcDbArc
 50
228.0
 51
11.4039997879
  0
ARC
  5
17C
330
1F
100
AcDbEntity
  8
0
  6
Continuous
 62
     7
370
    25
100
AcDbCircle
 10
113.8493775474
 20
136.0888416009
 30
0.0
 40
82.50000000000004
100
AcDbArc
 50
11.403999788
 51
24.596000212
  0
ARC
  5
17D
330
1F
100
AcDbEntity
  8
0
  6
Continuous
 62
     7
370
    25
100
AcDbCircle
 10
188.7728273224
 20
170.3851486005
 30
0.0
 40
0.1000000000000155
100
AcDbArc
 50
24.596000212
 51
168.0
  0
LINE
  5
17E
330
1F
100
AcDbEntity
  8
0
  6
Continuous
 62
     7
370
    25
100
AcDbLine
 10
188.6750125623
 20
170.4059397696
 30
0.0
 11
187.4512874354
 21
164.6487656916
 31
0.0
  0
LINE
  5
17F
330
1F
100
AcDbEntity
  8
0
  6
Continuous
 62
     7
370
    25
100
AcDbLine
 10
175.1131326033
 20
160.6398561715
 30
0.0
 11
187.4512874354
 21
164.6487656916
 31
0.0
  0
ARC
  5
180
330
1F
100
AcDbEntity
  8
0
  6
Continuous
 62
     7
370
    25
100
AcDbCircle
 10
113.8493775474
 20
136.0888416009
 30
0.0
 40
66.00000000000004
100
AcDbArc
 50
21.838093841
 51
29.161906159
  0
LINE
  5
181
330
1F
100
AcDbEntity
  8
0
  6
Continuous
 62
     7
370
    25
100
AcDbLine
 10
171.4836296596
 20
168.2492673361
 30
0.0
 11
182.3637899267
 21
175.3149260288
 31
0.0
  0
LINE
  5
182
330
1F
100
AcDbEntity
  8
0
  6
Continuous
 62
     7
370
    25
100
AcDbLine
 10
187.6080696862
 20
172.6428320271
 30
0.0
 11
182.3637899267
 21
175.3149260288
 31
0.0
  0
ARC
  5
183
330
1F
100
AcDbEntity
  8
0
  6
Continuous
 62
     7
370
    25
100
AcDbCircle
 10
187.6534687362
 20
172.7319326795
 30
0.0
 40
0.1000000000000359
100
AcDbArc
 50
243.0
 51
26.4039997879
  0
ARC
  5
184
330
1F
100
AcDbEntity
  8
0
  6
Continuous
 62
     7
370
    25
100
AcDbCircle
 10
113.8493775474
 20
136.0888416009
 30
0.0
 40
82.50000000000004
100
AcDbArc
 50
26.403999788
 51
39.596000212
  0
ARC
  5
185
330
1F
100
AcDbEntity
  8
0
  6
Continuous
 62
     7
370
    25
100
AcDbCircle
 10
177.3433352516
 20
188.6081460047
 30
0.0
 40
0.1000000000000245
100
AcDbArc
 50
39.596000212
 51
183.0
  0
LINE
  5
186
330
1F
100
AcDbEntity
  8
0
  6
Continuous
 62
     7
370
    25
100
AcDbLine
 10
177.2434722981
 20
188.6029124091
 30
0.0
 11
177.551510891
 21
182.7251859119
 31
0.0
  0
LINE
  5
187
330
1F
100
AcDbEntity
  8
0
  6
Continuous
 62
     7
370
    25
100
AcDbLine
 10
166.6713506239
 20
175.6595272192
 30
0.0
 11
177.551510891
 21
182.7251859119
 31
0.0
  0
ARC
  5
188
330
1F
100
AcDbEntity
  8
0
  6
Continuous
 62
     7
370
    25
100
AcDbCircle
 10
113.8493775474
 20
136.0888416009
 30
0.0
 40
66.00000000000004
100
AcDbArc
 50
36.838093841
 51
44.161906159
  0
LINE
  5
189
330
1F
100
AcDbEntity
  8
0
  6
Continuous
 62
     7
370
    25
100
AcDbLine
 10
161.1960594625
 20
182.0702694999
 30
0.0
 11
169.8767602229
 21
191.7111644018
 31
0.0
  0
LINE
  5
18A
330
1F
100
AcDbEntity
  8
0
  6
Continuous
 62
     7
370
    25
100
AcDbLine
 10
175.6339343008
 20
190.4874392749
 30
0.0
 11
169.8767602229
 21
191.7111644018
 31
0.0
  0
ARC
  5
18B
330
1F
100
AcDbEntity
  8
0
  6
Continuous
 62
     7
370
    25
100
AcDbCircle
 10
175.6547254699
 20
190.5852540349
 30
0.0
 40
0.1000000000000317
100
AcDbArc
 50
258.0
 51
41.403999788
  0
ARC
  5
18C
330
1F
100
AcDbEntity
  8
0
  6
Continuous
 62
     7
370
    25
100
AcDbCircle
 10
113.8493775474
 20
136.0888416009
 30
0.0
 40
82.50000000000006
100
AcDbArc
 50
41.403999788
 51
54.596000212
  0
ARC
  5
18D
330
1F
100
AcDbEntity
  8
0
  6
Continuous
 62
     7
370
    25
100
AcDbCircle
 10
161.5868348919
 20
203.252039606
 30
0.0
 40
0.1000000000000075
100
AcDbArc
 50
54.596000212
 51
198.0
  0
LINE
  5
18E
330
1F
100
AcDbEntity
  8
0
  6
Continuous
 62
     7
370
    25
100
AcDbLine
 10
161.4917292403
 20
203.2211379066
 30
0.0
 11
163.3105392321
 21
197.6234163376
 31
0.0
  0
LINE
  5
18F
330
1F
100
AcDbEntity
  8
0
  6
Continuous
 62
     7
370
    25
100
AcDbLine
 10
154.6298384717
 20
187.9825214357
 30
0.0
 11
163.3105392321
 21
197.6234163376
 31
0.0
  0
ARC
  5
190
330
1F
100
AcDbEntity
  8
0
  6
Continuous
 62
     7
370
    25
100
AcDbCircle
 10
113.8493775474
 20
136.0888416009
 30
0.0
 40
66.00000000000003
100
AcDbArc
 50
51.838093841
 51
59.161906159
  0
LINE
  5
191
330
1F
100
AcDbEntity
  8
0
  6
Continuous
 62
     7
370
    25
100
AcDbLine
 10
147.681891137
 20
192.7577133402
 30
0.0
 11
153.5715569793
 21
204.3168333961
 31
0.0
  0
LINE
  5
192
330
1F
100
AcDbEntity
  8
0
  6
Continuous
 62
     7
370
    25
100
AcDbLine
 10
159.4492834764
 20
204.6248719891
 30
0.0
 11
153.5715569793
 21
204.3168333961
 31
0.0
  0
ARC
  5
193
330
1F
100
AcDbEntity
  8
0
  6
Continuous
 62
     7
370
    25
100
AcDbCircle
 10
159.4440498808
 20
204.7247349426
 30
0.0
 40
0.1000000000000229
100
AcDbArc
 50
273.0
 51
56.4039997879
  0
ARC
  5
194
330
1F
100
AcDbEntity
  8
0
  6
Continuous
 62
     7
370
    25
100
AcDbCircle
 10
113.8493775474
 20
136.0888416009
 30
0.0
 40
82.50000000000006
100
AcDbArc
 50
56.403999788
 51
69.596000212
  0
ARC
  5
195
330
1F
100
AcDbEntity
  8
0
  6
Continuous
 62
     7
370
    25
100
AcDbCircle
 10
142.5771057041
 20
213.3188722558
 30
0.0
 40
0.100000000000014
100
AcDbArc
 50
69.596000212
 51
213.0
  0
LINE
  5
196
330
1F
100
AcDbEntity
  8
0
  6
Continuous
 62
     7
370
    25
100
AcDbLine
 10
142.4932386473
 20
213.2644083523
 30
0.0
 11
145.6988711428
 21
208.3281671857
 31
0.0
  0
LINE
  5
197
330
1F
100
AcDbEntity
  8
0
  6
Continuous
 62
     7
370
    25
100
AcDbLine
 10
139.8092053005
 20
196.7690471298
 30
0.0
 11
145.6988711428
 21
208.3281671857
 31
0.0
  0
ARC
  5
198
330
1F
100
AcDbEntity
  8
0
  6
Continuous
 62
     7
370
    25
100
AcDbCircle
 10
113.8493775474
 20
136.0888416009
 30
0.0
 40
66.00000000000006
100
AcDbArc
 50
66.838093841
 51
74.161906159
  0
LINE
  5
199
330
1F
100
AcDbEntity
  8
0
  6
Continuous
 62
     7
370
    25
100
AcDbLine
 10
131.8620929213
 20
199.5832672213
 30
0.0
 11
134.5593528515
 21
212.2728775017
 31
0.0
  0
LINE
  5
19A
330
1F
100
AcDbEntity
  8
0
  6
Continuous
 62
     7
370
    25
100
AcDbLine
 10
140.1570744204
 20
214.0916874935
 30
0.0
 11
134.5593528515
 21
212.2728775017
 31
0.0
  0
ARC
  5
19B
330
1F
100
AcDbEntity
  8
0
  6
Continuous
 62
     7
370
    25
100
AcDbCircle
 10
140.126172721
 20
214.1867931451
 30
0.0
 40
0.1000000000000248
100
AcDbArc
 50
288.0
 51
71.4039997879
  0
ARC
  5
19C
330
1F
100
AcDbEntity
  8
0
  6
Continuous
 62
     7
370
    25
100
AcDbCircle
 10
113.8493775474
 20
136.0888416009
 30
0.0
 40
82.50000000000004
100
AcDbArc
 50
71.403999788
 51
84.596000212
  0
ARC
  5
19D
330
1F
100
AcDbEntity
  8
0
  6
Continuous
 62
     7
370
    25
100
AcDbCircle
 10
121.6096293173
 20
218.1226059451
 30
0.0
 40
0.1000000000000015
100
AcDbArc
 50
84.596000212
 51
228.0
  0
LINE
  5
19E
330
1F
100
AcDbEntity
  8
0
  6
Continuous
 62
     7
370
    25
100
AcDbLine
 10
121.5427162566
 20
218.0482914625
 30
0.0
 11
125.9167126987
 21
214.1099273764
 31
0.0
  0
LINE
  5
19F
330
1F
100
AcDbEntity
  8
0
  6
Continuous
 62
     7
370
    25
100
AcDbLine
 10
123.2194527685
 20
201.4203170959
 30
0.0
 11
125.9167126987
 21
214.1099273764
 31
0.0
  0
ARC
  5
1A0
330
1F
100
AcDbEntity
  8
0
  6
Continuous
 62
     7
370
    25
100
AcDbCircle
 10
113.8493775474
 20
136.0888416009
 30
0.0
 40
66.00000000000003
100
AcDbArc
 50
81.838093841
 51
89.161906159
  0
LINE
  5
1A1
330
1F
100
AcDbEntity
  8
0
  6
Continuous
 62
     7
370
    25
100
AcDbLine
 10
114.8147579203
 20
202.0817809258
 30
0.0
 11
114.1357981315
 21
215.0371054607
 31
0.0
  0
LINE
  5
1A2
330
1F
100
AcDbEntity
  8
0
  6
Continuous
 62
     7
370
    25
100
AcDbLine
 10
119.072039298
 20
218.2427379562
 30
0.0
 11
114.1357981315
 21
215.0371054607
 31
0.0
  0
ARC
  5
1A3
330
1F
100
AcDbEntity
  8
0
  6
Continuous
 62
     7
370
    25
100
AcDbCircle
 10
119.0175753945
 20
218.326605013
 30
0.0
 40
0.1000000000000129
100
AcDbArc
 50
303.0
 51
86.403999788
  0
ARC
  5
1A4
330
1F
100
AcDbEntity
  8
0
  6
Continuous
 62
     7
370
    25
100
AcDbCircle
 10
113.8493775474
 20
136.0888416009
 30
0.0
 40
82.50000000000003
100
AcDbArc
 50
86.403999788
 51
99.596000212
  0
ARC
  5
1A5
330
1F
100
AcDbEntity
  8
0
  6
Continuous
 62
     7
370
    25
100
AcDbCircle
 10
100.1133045967
 20
217.3358741615
 30
0.0
 40
0.1000000000000165
100
AcDbArc
 50
99.596000212
 51
243.0
  0
LINE
  5
1A6
330
1F
100
AcDbEntity
  8
0
  6
Continuous
 62
     7
370
    25
100
AcDbLine
 10
100.0679055467
 20
217.2467735091
 30
0.0
 11
105.3121853062
 21
214.5746795073
 31
0.0
  0
LINE
  5
1A7
330
1F
100
AcDbEntity
  8
0
  6
Continuous
 62
     7
370
    25
100
AcDbLine
 10
105.991145095
 20
201.6193549724
 30
0.0
 11
105.3121853062
 21
214.5746795073
 31
0.0
  0
ARC
  5
1A8
330
1F
100
AcDbEntity
  8
0
  6
Continuous
 62
     7
370
    25
100
AcDbCircle
 10
113.8493775474
 20
136.0888416009
 30
0.0
 40
66.00000000000001
100
AcDbArc
 50
96.838093841
 51
104.161906159
  0
LINE
  5
1A9
330
1F
100
AcDbEntity
  8
0
  6
Continuous
 62
     7
370
    25
100
AcDbLine
 10
97.7016338422
 20
200.0829848738
 30
0.0
 11
93.6927243221
 21
212.4211397059
 31
0.0
  0
LINE
  5
1AA
330
1F
100
AcDbEntity
  8
0
  6
Continuous
 62
     7
370
    25
100
AcDbLine
 10
97.6310884082
 20
216.7951361479
 30
0.0
 11
93.6927243221
 21
212.4211397059
 31
0.0
  0
ARC
  5
1AB
330
1F
100
AcDbEntity
  8
0
  6
Continuous
 62
     7
370
    25
100
AcDbCircle
 10
97.5567739257
 20
216.8620492086
 30
0.0
 40
0.100000000000046
100
AcDbArc
 50
318.0
 51
101.403999788
  0
ARC
  5
1AC
330
1F
100
AcDbEntity
  8
0
  6
Continuous
 62
     7
370
    25
100
AcDbCircle
 10
113.8493775474
 20
136.0888416009
 30
0.0
 40
82.50000000000003
100
AcDbArc
 50
101.403999788
 51
114.596000212
  0
ARC
  5
1AD
330
1F
100
AcDbEntity
  8
0
  6
Continuous
 62
     7
370
    25
100
AcDbCircle
 10
79.5530705478
 20
211.012291376
 30
0.0
 40
0.1000000000000489
100
AcDbArc
 50
114.596000212
 51
258.0
  0
LINE
  5
1AE
330
1F
100
AcDbEntity
  8
0
  6
Continuous
 62
     7
370
    25
100
AcDbLine
 10
79.5322793787
 20
210.9144766159
 30
0.0
 11
85.2894534567
 21
209.6907514889
 31
0.0
  0
LINE
  5
1AF
330
1F
100
AcDbEntity
  8
0
  6
Continuous
 62
     7
370
    25
100
AcDbLine
 10
89.2983629768
 20
197.3525966569
 30
0.0
 11
85.2894534567
 21
209.6907514889
 31
0.0
  0
MTEXT
  5
1B1
330
1F
100
AcDbEntity
  8
0
  6
Continuous
 62
     7
100
AcDbMText
 10
13.8493775474
 20
35.0692752092
 30
0.0
 40
4.83362
 41
0.0
 71
     1
 72
     1
  1
SOLIDWORKS Educational Product.
  7
SLDTEXTSTYLE0
 73
     1
 44
1.0
  0
MTEXT
  5
1B2
330
1F
100
AcDbEntity
  8
0
  6
Continuous
 62
     7
100
AcDbMText
 10
13.8493775474
 20
27.8188452092
 30
0.0
 40
4.83362
 41
0.0
 71
     1
 72
     1
  1
For Instructional Use Only.
  7
SLDTEXTSTYLE0
 73
     1
 44
1.0
  0
ENDSEC
  0
SECTION
  2
OBJECTS
  0
DICTIONARY
  5
C
330
0
100
AcDbDictionary
281
     1
  3
ACAD_GROUP
350
D
  3
ACAD_LAYOUT
350
1A
  3
ACAD_MLINESTYLE
350
17
  3
ACAD_PLOTSETTINGS
350
19
  3
ACAD_PLOTSTYLENAME
350
E
  3
ACAD_SCALELIST
350
47
  3
DWGPROPS
350
1B3
  0
DICTIONARY
  5
D
102
{ACAD_REACTORS
330
C
102
}
330
C
100
AcDbDictionary
281
     1
  0
DICTIONARY
  5
1A
102
{ACAD_REACTORS
330
C
102
}
330
C
100
AcDbDictionary
281
     1
  3
Layout1
350
1E
  3
Layout2
350
26
  3
Model
350
22
  0
DICTIONARY
  5
17
102
{ACAD_REACTORS
330
C
102
}
330
C
100
AcDbDictionary
281
     1
  3
Standard
350
18
  0
DICTIONARY
  5
19
102
{ACAD_REACTORS
330
C
102
}
330
C
100
AcDbDictionary
281
     1
  0
ACDBDICTIONARYWDFLT
  5
E
102
{ACAD_REACTORS
330
C
102
}
330
C
100
AcDbDictionary
281
     1
  3
Normal
350
F
100
AcDbDictionaryWithDefault
340
F
  0
DICTIONARY
  5
47
102
{ACAD_REACTORS
330
C
102
}
330
C
100
AcDbDictionary
281
     1
  3
A0
350
48
  3
A1
350
49
  3
A2
350
4A
  3
A3
350
4B
  3
A4
350
4C
  3
A5
350
4D
  3
A6
350
4E
  3
A7
350
4F
  3
A8
350
50
  3
A9
350
51
  3
B0
350
52
  3
B1
350
53
  3
B2
350
54
  3
B3
350
55
  3
B4
350
56
  3
B5
350
57
  3
B6
350
58
  3
B7
350
59
  3
B8
350
5A
  3
B9
350
5B
  3
C0
350
5C
  3
C1
350
5D
  3
C2
350
5E
  3
C3
350
5F
  3
C4
350
60
  3
C5
350
61
  3
C6
350
62
  3
C7
350
63
  3
C8
350
64
  3
C9
350
65
  3
D0
350
66
  3
D1
350
67
  3
D2
350
68
  0
XRECORD
  5
1B3
102
{ACAD_REACTORS
330
C
102
}
330
C
100
AcDbXrecord
280
     1
  1
DWGPROPS COOKIE
  2

  3

  4

  6

  7

  8
Brad Greer
  9

300
=
301
=
302
=
303
=
304
=
305
=
306
=
307
=
308
=
309
=
 40
0.0
 41
2459368.862809954
 42
2459368.862835243
  1

 90
        0
  0
LAYOUT
  5
1E
102
{ACAD_REACTORS
330
1A
102
}
330
1A
100
AcDbPlotSettings
  1

  2
none_device
  4

  6

 40
0.0
 41
0.0
 42
0.0
 43
0.0
 44
0.0
 45
0.0
 46
0.0
 47
0.0
 48
0.0
 49
0.0
140
0.0
141
0.0
142
1.0
143
1.0
 70
   688
 72
     1
 73
     0
 74
     5
  7

 75
    16
147
1.0
148
0.0
149
0.0
100
AcDbLayout
  1
Layout1
 70
     1
 71
     1
 10
0.0
 20
0.0
 11
420.0
 21
297.0
 12
0.0
 22
0.0
 32
0.0
 14
1.0000000000E+20
 24
1.0000000000E+20
 34
1.0000000000E+20
 15
-1.0000000000E+20
 25
-1.0000000000E+20
 35
-1.0000000000E+20
146
0.0
 13
0.0
 23
0.0
 33
0.0
 16
1.0
 26
0.0
 36
0.0
 17
0.0
 27
1.0
 37
0.0
 76
     0
330
1B
  0
LAYOUT
  5
26
102
{ACAD_REACTORS
330
1A
102
}
330
1A
100
AcDbPlotSettings
  1

  2
none_device
  4

  6

 40
0.0
 41
0.0
 42
0.0
 43
0.0
 44
0.0
 45
0.0
 46
0.0
 47
0.0
 48
0.0
 49
0.0
140
0.0
141
0.0
142
1.0
143
1.0
 70
   688
 72
     1
 73
     0
 74
     5
  7

 75
    16
147
1.0
148
0.0
149
0.0
100
AcDbLayout
  1
Layout2
 70
     1
 71
     2
 10
0.0
 20
0.0
 11
0.0
 21
0.0
 12
0.0
 22
0.0
 32
0.0
 14
0.0
 24
0.0
 34
0.0
 15
0.0
 25
0.0
 35
0.0
146
0.0
 13
0.0
 23
0.0
 33
0.0
 16
1.0
 26
0.0
 36
0.0
 17
0.0
 27
1.0
 37
0.0
 76
     0
330
23
  0
LAYOUT
  5
22
102
{ACAD_REACTORS
330
1A
102
}
330
1A
100
AcDbPlotSettings
  1

  2
none_device
  4
ANSI_A_(11.00_x_8.50_Inches)
  6

 40
6.35
 41
19.05
 42
6.35000508
 43
19.05000254
 44
279.4
 45
215.9
 46
11.6785984282
 47
-56.5388267331
 48
0.0
 49
0.0
140
0.0
141
0.0
142
0.042075
143
1.0
 70
  1696
 72
     0
 73
     0
 74
     0
  7

 75
     0
147
0.0179189148
148
-1300.4909072572
149
0.0
100
AcDbLayout
  1
Model
 70
     1
 71
     0
 10
0.0
 20
0.0
 11
420.0
 21
297.0
 12
0.0
 22
0.0
 32
0.0
 14
13.8493775474
 24
36.0888416009
 34
0.0
 15
213.8493775474
 25
236.0888416009
 35
0.0
146
0.0
 13
0.0
 23
0.0
 33
0.0
 16
1.0
 26
0.0
 36
0.0
 17
0.0
 27
1.0
 37
0.0
 76
     0
330
1F
331
29
  0
MLINESTYLE
  5
18
102
{ACAD_REACTORS
330
17
102
}
330
17
100
AcDbMlineStyle
  2
Standard
 70
     0
  3

 62
   256
 51
90.0
 52
90.0
 71
     2
 49
0.5
 62
   256
  6
BYLAYER
 49
-0.5
 62
   256
  6
BYLAYER
  0
ACDBPLACEHOLDER
  5
F
102
{ACAD_REACTORS
330
E
102
}
330
E
  0
SCALE
  5
48
102
{ACAD_REACTORS
330
47
102
}
330
47
100
AcDbScale
 70
     0
300
1:1
140
1.0
141
1.0
290
     1
  0
SCALE
  5
49
102
{ACAD_REACTORS
330
47
102
}
330
47
100
AcDbScale
 70
     0
300
1:2
140
1.0
141
2.0
290
     0
  0
SCALE
  5
4A
102
{ACAD_REACTORS
330
47
102
}
330
47
100
AcDbScale
 70
     0
300
1:4
140
1.0
141
4.0
290
     0
  0
SCALE
  5
4B
102
{ACAD_REACTORS
330
47
102
}
330
47
100
AcDbScale
 70
     0
300
1:5
140
1.0
141
5.0
290
     0
  0
SCALE
  5
4C
102
{ACAD_REACTORS
330
47
102
}
330
47
100
AcDbScale
 70
     0
300
1:8
140
1.0
141
8.0
290
     0
  0
SCALE
  5
4D
102
{ACAD_REACTORS
330
47
102
}
330
47
100
AcDbScale
 70
     0
300
1:10
140
1.0
141
10.0
290
     0
  0
SCALE
  5
4E
102
{ACAD_REACTORS
330
47
102
}
330
47
100
AcDbScale
 70
     0
300
1:16
140
1.0
141
16.0
290
     0
  0
SCALE
  5
4F
102
{ACAD_REACTORS
330
47
102
}
330
47
100
AcDbScale
 70
     0
300
1:20
140
1.0
141
20.0
290
     0
  0
SCALE
  5
50
102
{ACAD_REACTORS
330
47
102
}
330
47
100
AcDbScale
 70
     0
300
1:30
140
1.0
141
30.0
290
     0
  0
SCALE
  5
51
102
{ACAD_REACTORS
330
47
102
}
330
47
100
AcDbScale
 70
     0
300
1:40
140
1.0
141
40.0
290
     0
  0
SCALE
  5
52
102
{ACAD_REACTORS
330
47
102
}
330
47
100
AcDbScale
 70
     0
300
1:50
140
1.0
141
50.0
290
     0
  0
SCALE
  5
53
102
{ACAD_REACTORS
330
47
102
}
330
47
100
AcDbScale
 70
     0
300
1:100
140
1.0
141
100.0
290
     0
  0
SCALE
  5
54
102
{ACAD_REACTORS
330
47
102
}
330
47
100
AcDbScale
 70
     0
300
2:1
140
2.0
141
1.0
290
     0
  0
SCALE
  5
55
102
{ACAD_REACTORS
330
47
102
}
330
47
100
AcDbScale
 70
     0
300
4:1
140
4.0
141
1.0
290
     0
  0
SCALE
  5
56
102
{ACAD_REACTORS
330
47
102
}
330
47
100
AcDbScale
 70
     0
300
8:1
140
8.0
141
1.0
290
     0
  0
SCALE
  5
57
102
{ACAD_REACTORS
330
47
102
}
330
47
100
AcDbScale
 70
     0
300
10:1
140
10.0
141
1.0
290
     0
  0
SCALE
  5
58
102
{ACAD_REACTORS
330
47
102
}
330
47
100
AcDbScale
 70
     0
300
100:1
140
100.0
141
1.0
290
     0
  0
SCALE
  5
59
102
{ACAD_REACTORS
330
47
102
}
330
47
100
AcDbScale
 70
     0
300
1/128" = 1'-0"
140
0.0078125
141
12.0
290
     0
  0
SCALE
  5
5A
102
{ACAD_REACTORS
330
47
102
}
330
47
100
AcDbScale
 70
     0
300
1/64" = 1'-0"
140
0.015625
141
12.0
290
     0
  0
SCALE
  5
5B
102
{ACAD_REACTORS
330
47
102
}
330
47
100
AcDbScale
 70
     0
300
1/32" = 1'-0"
140
0.03125
141
12.0
290
     0
  0
SCALE
  5
5C
102
{ACAD_REACTORS
330
47
102
}
330
47
100
AcDbScale
 70
     0
300
1/16" = 1'-0"
140
0.0625
141
12.0
290
     0
  0
SCALE
  5
5D
102
{ACAD_REACTORS
330
47
102
}
330
47
100
AcDbScale
 70
     0
300
3/32" = 1'-0"
140
0.09375
141
12.0
290
     0
  0
SCALE
  5
5E
102
{ACAD_REACTORS
330
47
102
}
330
47
100
AcDbScale
 70
     0
300
1/8" = 1'-0"
140
0.125
141
12.0
290
     0
  0
SCALE
  5
5F
102
{ACAD_REACTORS
330
47
102
}
330
47
100
AcDbScale
 70
     0
300
3/16" = 1'-0"
140
0.1875
141
12.0
290
     0
  0
SCALE
  5
60
102
{ACAD_REACTORS
330
47
102
}
330
47
100
AcDbScale
 70
     0
300
1/4" = 1'-0"
140
0.25
141
12.0
290
     0
  0
SCALE
  5
61
102
{ACAD_REACTORS
330
47
102
}
330
47
100
AcDbScale
 70
     0
300
3/8" = 1'-0"
140
0.375
141
12.0
290
     0
  0
SCALE
  5
62
102
{ACAD_REACTORS
330
47
102
}
330
47
100
AcDbScale
 70
     0
300
1/2" = 1'-0"
140
0.5
141
12.0
290
     0
  0
SCALE
  5
63
102
{ACAD_REACTORS
330
47
102
}
330
47
100
AcDbScale
 70
     0
300
3/4" = 1'-0"
140
0.75
141
12.0
290
     0
  0
SCALE
  5
64
102
{ACAD_REACTORS
330
47
102
}
330
47
100
AcDbScale
 70
     0
300
1" = 1'-0"
140
1.0
141
12.0
290
     0
  0
SCALE
  5
65
102
{ACAD_REACTORS
330
47
102
}
330
47
100
AcDbScale
 70
     0
300
1-1/2" = 1'-0"
140
1.5
141
12.0
290
     0
  0
SCALE
  5
66
102
{ACAD_REACTORS
330
47
102
}
330
47
100
AcDbScale
 70
     0
300
3" = 1'-0"
140
3.0
141
12.0
290
     0
  0
SCALE
  5
67
102
{ACAD_REACTORS
330
47
102
}
330
47
100
AcDbScale
 70
     0
300
6" = 1'-0"
140
6.0
141
12.0
290
     0
  0
SCALE
  5
68
102
{ACAD_REACTORS
330
47
102
}
330
47
100
AcDbScale
 70
     0
300
1'-0" = 1'-0"
140
12.0
141
12.0
290
     0
  0
ENDSEC
  0
EOF
