  0
SECTION
  2
HEADER
  9
$ACADVER
  1
AC1015
  9
$ACADMAINTVER
 70
     6
  9
$DWGCODEPAGE
  3
ANSI_1252
  9
$INSBASE
 10
0.0
 20
0.0
 30
0.0
  9
$EXTMIN
 10
28.5807746826
 20
155.8934351195
 30
0.0
  9
$EXTMAX
 10
228.5807746826
 20
355.8934351195
 30
0.0
  9
$LIMMIN
 10
0.0
 20
0.0
  9
$LIMMAX
 10
420.0
 20
297.0
  9
$ORTHOMODE
 70
     0
  9
$REGENMODE
 70
     1
  9
$FILLMODE
 70
     1
  9
$QTEXTMODE
 70
     0
  9
$MIRRTEXT
 70
     1
  9
$LTSCALE
 40
1.0
  9
$ATTMODE
 70
     1
  9
$TEXTSIZE
 40
3.5
  9
$TRACEWID
 40
1.0
  9
$TEXTSTYLE
  7
Standard
  9
$CLAYER
  8
0
  9
$CELTYPE
  6
ByLayer
  9
$CECOLOR
 62
   256
  9
$CELTSCALE
 40
1.0
  9
$DISPSILH
 70
     0
  9
$DIMSCALE
 40
1.0
  9
$DIMASZ
 40
3.556
  9
$DIMEXO
 40
0.0
  9
$DIMDLI
 40
3.75
  9
$DIMRND
 40
0.0
  9
$DIMDLE
 40
0.0
  9
$DIMEXE
 40
1.0
  9
$DIMTP
 40
0.0
  9
$DIMTM
 40
0.0
  9
$DIMTXT
 40
3.5
  9
$DIMCEN
 40
2.5
  9
$DIMTSZ
 40
0.0
  9
$DIMTOL
 70
     0
  9
$DIMLIM
 70
     0
  9
$DIMTIH
 70
     1
  9
$DIMTOH
 70
     1
  9
$DIMSE1
 70
     0
  9
$DIMSE2
 70
     0
  9
$DIMTAD
 70
     1
  9
$DIMZIN
 70
     1
  9
$DIMBLK
  1

  9
$DIMASO
 70
     1
  9
$DIMSHO
 70
     1
  9
$DIMPOST
  1

  9
$DIMAPOST
  1

  9
$DIMALT
 70
     0
  9
$DIMALTD
 70
     3
  9
$DIMALTF
 40
0.0393700787
  9
$DIMLFAC
 40
1.0
  9
$DIMTOFL
 70
     1
  9
$DIMTVP
 40
0.0
  9
$DIMTIX
 70
     0
  9
$DIMSOXD
 70
     0
  9
$DIMSAH
 70
     0
  9
$DIMBLK1
  1

  9
$DIMBLK2
  1

  9
$DIMSTYLE
  2
ISO-25
  9
$DIMCLRD
 70
     0
  9
$DIMCLRE
 70
     0
  9
$DIMCLRT
 70
     0
  9
$DIMTFAC
 40
1.0
  9
$DIMGAP
 40
1.524
  9
$DIMJUST
 70
     0
  9
$DIMSD1
 70
     0
  9
$DIMSD2
 70
     0
  9
$DIMTOLJ
 70
     0
  9
$DIMTZIN
 70
     1
  9
$DIMALTZ
 70
     0
  9
$DIMALTTZ
 70
     0
  9
$DIMUPT
 70
     0
  9
$DIMDEC
 70
     2
  9
$DIMTDEC
 70
     2
  9
$DIMALTU
 70
     2
  9
$DIMALTTD
 70
     3
  9
$DIMTXSTY
  7
Standard
  9
$DIMAUNIT
 70
     0
  9
$DIMADEC
 70
     2
  9
$DIMALTRND
 40
0.0
  9
$DIMAZIN
 70
     0
  9
$DIMDSEP
 70
    44
  9
$DIMATFIT
 70
     3
  9
$DIMFRAC
 70
     0
  9
$DIMLDRBLK
  1

  9
$DIMLUNIT
 70
     2
  9
$DIMLWD
 70
    -2
  9
$DIMLWE
 70
    -2
  9
$DIMTMOVE
 70
     0
  9
$LUNITS
 70
     2
  9
$LUPREC
 70
     2
  9
$SKETCHINC
 40
1.0
  9
$FILLETRAD
 40
10.0
  9
$AUNITS
 70
     0
  9
$AUPREC
 70
     2
  9
$MENU
  1
.
  9
$ELEVATION
 40
0.0
  9
$PELEVATION
 40
0.0
  9
$THICKNESS
 40
0.0
  9
$LIMCHECK
 70
     0
  9
$CHAMFERA
 40
0.0
  9
$CHAMFERB
 40
0.0
  9
$CHAMFERC
 40
0.0
  9
$CHAMFERD
 40
0.0
  9
$SKPOLY
 70
     0
  9
$TDCREATE
 40
2459303.088136389
  9
$TDUCREATE
 40
2459303.254803055
  9
$TDUPDATE
 40
2459303.088185648
  9
$TDUUPDATE
 40
2459303.254852315
  9
$TDINDWG
 40
0.0000000116
  9
$TDUSRTIMER
 40
0.0000000116
  9
$USRTIMER
 70
     1
  9
$ANGBASE
 50
0.0
  9
$ANGDIR
 70
     0
  9
$PDMODE
 70
     0
  9
$PDSIZE
 40
-1.0
  9
$PLINEWID
 40
0.0
  9
$SPLFRAME
 70
     0
  9
$SPLINETYPE
 70
     6
  9
$SPLINESEGS
 70
     8
  9
$HANDSEED
  5
1FC
  9
$SURFTAB1
 70
     6
  9
$SURFTAB2
 70
     6
  9
$SURFTYPE
 70
     6
  9
$SURFU
 70
     6
  9
$SURFV
 70
     6
  9
$UCSBASE
  2

  9
$UCSNAME
  2

  9
$UCSORG
 10
0.0
 20
0.0
 30
0.0
  9
$UCSXDIR
 10
1.0
 20
0.0
 30
0.0
  9
$UCSYDIR
 10
0.0
 20
1.0
 30
0.0
  9
$UCSORTHOREF
  2

  9
$UCSORTHOVIEW
 70
     0
  9
$UCSORGTOP
 10
0.0
 20
0.0
 30
0.0
  9
$UCSORGBOTTOM
 10
0.0
 20
0.0
 30
0.0
  9
$UCSORGLEFT
 10
0.0
 20
0.0
 30
0.0
  9
$UCSORGRIGHT
 10
0.0
 20
0.0
 30
0.0
  9
$UCSORGFRONT
 10
0.0
 20
0.0
 30
0.0
  9
$UCSORGBACK
 10
0.0
 20
0.0
 30
0.0
  9
$PUCSBASE
  2

  9
$PUCSNAME
  2

  9
$PUCSORG
 10
0.0
 20
0.0
 30
0.0
  9
$PUCSXDIR
 10
1.0
 20
0.0
 30
0.0
  9
$PUCSYDIR
 10
0.0
 20
1.0
 30
0.0
  9
$PUCSORTHOREF
  2

  9
$PUCSORTHOVIEW
 70
     0
  9
$PUCSORGTOP
 10
0.0
 20
0.0
 30
0.0
  9
$PUCSORGBOTTOM
 10
0.0
 20
0.0
 30
0.0
  9
$PUCSORGLEFT
 10
0.0
 20
0.0
 30
0.0
  9
$PUCSORGRIGHT
 10
0.0
 20
0.0
 30
0.0
  9
$PUCSORGFRONT
 10
0.0
 20
0.0
 30
0.0
  9
$PUCSORGBACK
 10
0.0
 20
0.0
 30
0.0
  9
$USERI1
 70
     0
  9
$USERI2
 70
     0
  9
$USERI3
 70
     0
  9
$USERI4
 70
     0
  9
$USERI5
 70
     0
  9
$USERR1
 40
0.0
  9
$USERR2
 40
0.0
  9
$USERR3
 40
0.0
  9
$USERR4
 40
0.0
  9
$USERR5
 40
0.0
  9
$WORLDVIEW
 70
     1
  9
$SHADEDGE
 70
     3
  9
$SHADEDIF
 70
    70
  9
$TILEMODE
 70
     1
  9
$MAXACTVP
 70
    64
  9
$PINSBASE
 10
0.0
 20
0.0
 30
0.0
  9
$PLIMCHECK
 70
     0
  9
$PEXTMIN
 10
1.0000000000E+20
 20
1.0000000000E+20
 30
1.0000000000E+20
  9
$PEXTMAX
 10
-1.0000000000E+20
 20
-1.0000000000E+20
 30
-1.0000000000E+20
  9
$PLIMMIN
 10
0.0
 20
0.0
  9
$PLIMMAX
 10
420.0
 20
297.0
  9
$UNITMODE
 70
     0
  9
$VISRETAIN
 70
     1
  9
$PLINEGEN
 70
     0
  9
$PSLTSCALE
 70
     1
  9
$TREEDEPTH
 70
  3020
  9
$CMLSTYLE
  2
Standard
  9
$CMLJUST
 70
     0
  9
$CMLSCALE
 40
20.0
  9
$PROXYGRAPHICS
 70
     1
  9
$MEASUREMENT
 70
     1
  9
$CELWEIGHT
370
    -1
  9
$ENDCAPS
280
     0
  9
$JOINSTYLE
280
     0
  9
$LWDISPLAY
290
     1
  9
$INSUNITS
 70
     4
  9
$HYPERLINKBASE
  1

  9
$STYLESHEET
  1

  9
$XEDIT
290
     1
  9
$CEPSNTYPE
380
     0
  9
$PSTYLEMODE
290
     1
  9
$FINGERPRINTGUID
  2
{e2a075b7-f72e-4594-babe-a7b5c27ad7d7}
  9
$VERSIONGUID
  2
{FAEB1C32-E019-11D5-929B-00C0DF256EC4}
  9
$EXTNAMES
290
     1
  9
$PSVPSCALE
 40
0.0
  9
$OLESTARTUP
290
     0
  0
ENDSEC
  0
SECTION
  2
CLASSES
  0
CLASS
  1
ACDBDICTIONARYWDFLT
  2
AcDbDictionaryWithDefault
  3
ObjectDBX Classes
 90
        0
280
     0
281
     0
  0
CLASS
  1
VISUALSTYLE
  2
AcDbVisualStyle
  3
ObjectDBX Classes
 90
     4095
280
     0
281
     0
  0
CLASS
  1
MATERIAL
  2
AcDbMaterial
  3
ObjectDBX Classes
 90
     1153
280
     0
281
     0
  0
CLASS
  1
SCALE
  2
AcDbScale
  3
ObjectDBX Classes
 90
     1153
280
     0
281
     0
  0
CLASS
  1
TABLESTYLE
  2
AcDbTableStyle
  3
ObjectDBX Classes
 90
     4095
280
     0
281
     0
  0
CLASS
  1
MLEADERSTYLE
  2
AcDbMLeaderStyle
  3
ACDB_MLEADERSTYLE_CLASS
 90
     4095
280
     0
281
     0
  0
CLASS
  1
SUN
  2
AcDbSun
  3
SCENEOE
 90
     1153
280
     0
281
     0
  0
CLASS
  1
ACDBPLACEHOLDER
  2
AcDbPlaceHolder
  3
ObjectDBX Classes
 90
        0
280
     0
281
     0
  0
CLASS
  1
LAYOUT
  2
AcDbLayout
  3
ObjectDBX Classes
 90
        0
280
     0
281
     0
  0
ENDSEC
  0
SECTION
  2
TABLES
  0
TABLE
  2
VPORT
  5
8
330
0
100
AcDbSymbolTable
 70
     1
  0
VPORT
  5
29
330
8
100
AcDbSymbolTableRecord
100
AcDbViewportTableRecord
  2
*Active
 70
     0
 10
0.0
 20
0.0
 11
1.0
 21
1.0
 12
128.5807746826
 22
255.8934351195
 13
0.0
 23
0.0
 14
10.0
 24
10.0
 15
10.0
 25
10.0
 16
0.0
 26
0.0
 36
1.0
 17
0.0
 27
0.0
 37
0.0
 40
204.0
 41
1.0
 42
50.0
 43
0.0
 44
0.0
 50
0.0
 51
0.0
 71
     0
 72
   100
 73
     1
 74
     3
 75
     0
 76
     0
 77
     0
 78
     0
281
     0
 65
     1
110
0.0
120
0.0
130
0.0
111
1.0
121
0.0
131
0.0
112
0.0
122
1.0
132
0.0
 79
     0
146
0.0
  0
ENDTAB
  0
TABLE
  2
LTYPE
  5
5
330
0
100
AcDbSymbolTable
 70
     6
  0
LTYPE
  5
14
330
5
100
AcDbSymbolTableRecord
100
AcDbLinetypeTableRecord
  2
ByBlock
 70
     0
  3

 72
    65
 73
     0
 40
0.0
  0
LTYPE
  5
15
330
5
100
AcDbSymbolTableRecord
100
AcDbLinetypeTableRecord
  2
ByLayer
 70
     0
  3

 72
    65
 73
     0
 40
0.0
  0
LTYPE
  5
16
330
5
100
AcDbSymbolTableRecord
100
AcDbLinetypeTableRecord
  2
Continuous
 70
     0
  3
Solid line
 72
    65
 73
     0
 40
0.0
  0
LTYPE
  5
6E
330
5
100
AcDbSymbolTableRecord
100
AcDbLinetypeTableRecord
  2
HIDDEN
 70
     0
  3
Hidden __ __ __ __ __ __ __ __ __ __ __ __ __ __
 72
    65
 73
     2
 40
1.905
 49
1.27
 74
     0
 49
-0.635
 74
     0
  0
LTYPE
  5
6F
330
5
100
AcDbSymbolTableRecord
100
AcDbLinetypeTableRecord
  2
PHANTOM
 70
     0
  3
Phantom ______  __  __  ______  __  __  ______
 72
    65
 73
     6
 40
12.7
 49
6.35
 74
     0
 49
-1.27
 74
     0
 49
1.27
 74
     0
 49
-1.27
 74
     0
 49
1.27
 74
     0
 49
-1.27
 74
     0
  0
LTYPE
  5
70
330
5
100
AcDbSymbolTableRecord
100
AcDbLinetypeTableRecord
  2
CENTER
 70
     0
  3
Center ____ _ ____ _ ____ _ ____ _ ____ _ ____
 72
    65
 73
     4
 40
10.16
 49
6.35
 74
     0
 49
-1.27
 74
     0
 49
1.27
 74
     0
 49
-1.27
 74
     0
  0
LTYPE
  5
71
330
5
100
AcDbSymbolTableRecord
100
AcDbLinetypeTableRecord
  2
CENTERX2
 70
     0
  3
Center (2x) ________  __  ________  __  _____
 72
    65
 73
     4
 40
20.32
 49
12.7
 74
     0
 49
-2.54
 74
     0
 49
2.54
 74
     0
 49
-2.54
 74
     0
  0
LTYPE
  5
72
330
5
100
AcDbSymbolTableRecord
100
AcDbLinetypeTableRecord
  2
DOT2
 70
     0
  3
Dot (.5x) ........................................
 72
    65
 73
     2
 40
0.635
 49
0.0
 74
     0
 49
-0.635
 74
     0
  0
ENDTAB
  0
TABLE
  2
LAYER
  5
2
330
0
100
AcDbSymbolTable
 70
     1
  0
LAYER
  5
10
330
2
100
AcDbSymbolTableRecord
100
AcDbLayerTableRecord
  2
0
 70
     0
 62
     7
  6
Continuous
370
    -3
390
F
  0
ENDTAB
  0
TABLE
  2
STYLE
  5
3
330
0
100
AcDbSymbolTable
 70
     2
  0
STYLE
  5
11
330
3
100
AcDbSymbolTableRecord
100
AcDbTextStyleTableRecord
  2
Standard
 70
     0
 40
0.0
 41
1.0
 50
0.0
 71
     0
 42
3.5
  3
txt
  4

  0
STYLE
  5
1F8
330
3
100
AcDbSymbolTableRecord
100
AcDbTextStyleTableRecord
  2
SLDTEXTSTYLE0
 70
     0
 40
0.0
 41
0.7
 50
0.0
 71
     0
 42
3.5
  3
TXT
  4

  0
ENDTAB
  0
TABLE
  2
VIEW
  5
6
330
0
100
AcDbSymbolTable
 70
     0
  0
ENDTAB
  0
TABLE
  2
UCS
  5
7
330
0
100
AcDbSymbolTable
 70
     0
  0
ENDTAB
  0
TABLE
  2
APPID
  5
9
330
0
100
AcDbSymbolTable
 70
     1
  0
APPID
  5
12
330
9
100
AcDbSymbolTableRecord
100
AcDbRegAppTableRecord
  2
ACAD
 70
     0
  0
ENDTAB
  0
TABLE
  2
DIMSTYLE
  5
A
330
0
100
AcDbSymbolTable
 70
     1
100
AcDbDimStyleTable
  0
DIMSTYLE
105
27
330
A
100
AcDbSymbolTableRecord
100
AcDbDimStyleTableRecord
  2
ISO-25
 70
     0
 41
2.5
 42
0.625
 43
3.75
 44
1.25
 73
     0
 74
     0
 77
     1
 78
     8
140
2.5
141
2.5
143
0.0393700787
147
0.625
171
     3
172
     1
178
     0
271
     2
272
     2
274
     3
278
    44
283
     0
284
     8
340
11
  0
ENDTAB
  0
TABLE
  2
BLOCK_RECORD
  5
1
330
0
100
AcDbSymbolTable
 70
     1
  0
BLOCK_RECORD
  5
1F
330
1
100
AcDbSymbolTableRecord
100
AcDbBlockTableRecord
  2
*Model_Space
340
22
  0
BLOCK_RECORD
  5
1B
330
1
100
AcDbSymbolTableRecord
100
AcDbBlockTableRecord
  2
*Paper_Space
340
1E
  0
BLOCK_RECORD
  5
23
330
1
100
AcDbSymbolTableRecord
100
AcDbBlockTableRecord
  2
*Paper_Space0
340
26
  0
ENDTAB
  0
ENDSEC
  0
SECTION
  2
BLOCKS
  0
BLOCK
  5
20
330
1F
100
AcDbEntity
  8
0
100
AcDbBlockBegin
  2
*Model_Space
 70
     0
 10
0.0
 20
0.0
 30
0.0
  3
*Model_Space
  1

  0
ENDBLK
  5
21
330
1F
100
AcDbEntity
  8
0
100
AcDbBlockEnd
  0
BLOCK
  5
1C
330
1B
100
AcDbEntity
 67
     1
  8
0
100
AcDbBlockBegin
  2
*Paper_Space
 70
     0
 10
0.0
 20
0.0
 30
0.0
  3
*Paper_Space
  1

  0
ENDBLK
  5
1D
330
1B
100
AcDbEntity
 67
     1
  8
0
100
AcDbBlockEnd
  0
BLOCK
  5
24
330
23
100
AcDbEntity
  8
0
100
AcDbBlockBegin
  2
*Paper_Space0
 70
     0
 10
0.0
 20
0.0
 30
0.0
  3
*Paper_Space0
  1

  0
ENDBLK
  5
25
330
23
100
AcDbEntity
  8
0
100
AcDbBlockEnd
  0
ENDSEC
  0
SECTION
  2
ENTITIES
  0
CIRCLE
  5
73
330
1F
100
AcDbEntity
  8
0
  6
Continuous
 62
     7
370
    25
100
AcDbCircle
 10
128.5807746826
 20
255.8934351195
 30
0.0
 40
100.0000000000007
  0
LINE
  5
74
330
1F
100
AcDbEntity
  8
0
  6
Continuous
 62
     7
370
    25
100
AcDbLine
 10
171.2444326363
 20
178.8896235017
 30
0.0
 11
172.2522288168
 21
179.4566716646
 31
0.0
  0
LINE
  5
75
330
1F
100
AcDbEntity
  8
0
  6
Continuous
 62
     7
370
    25
100
AcDbLine
 10
172.2884203462
 20
176.0771353397
 30
0.0
 11
171.2444326363
 21
178.8896235017
 31
0.0
  0
LINE
  5
76
330
1F
100
AcDbEntity
  8
0
  6
Continuous
 62
     7
370
    25
100
AcDbLine
 10
147.5385245203
 20
166.8900434926
 30
0.0
 11
172.2884203462
 21
176.0771353397
 31
0.0
  0
LINE
  5
77
330
1F
100
AcDbEntity
  8
0
  6
Continuous
 62
     7
370
    25
100
AcDbLine
 10
146.4945368104
 20
169.7025316547
 30
0.0
 11
147.5385245203
 21
166.8900434926
 31
0.0
  0
LINE
  5
78
330
1F
100
AcDbEntity
  8
0
  6
Continuous
 62
     7
370
    25
100
AcDbLine
 10
145.3608381669
 20
169.474662951
 30
0.0
 11
146.4945368104
 21
169.7025316547
 31
0.0
  0
LINE
  5
79
330
1F
100
AcDbEntity
  8
0
  6
Continuous
 62
     7
370
    25
100
AcDbLine
 10
145.4846228428
 20
166.4772178132
 30
0.0
 11
145.3608381669
 21
169.474662951
 31
0.0
  0
LINE
  5
7A
330
1F
100
AcDbEntity
  8
0
  6
Continuous
 62
     7
370
    25
100
AcDbLine
 10
119.1071056303
 20
165.3879126655
 30
0.0
 11
145.4846228428
 21
166.4772178132
 31
0.0
  0
LINE
  5
7B
330
1F
100
AcDbEntity
  8
0
  6
Continuous
 62
     7
370
    25
100
AcDbLine
 10
118.9833209544
 20
168.3853578032
 30
0.0
 11
119.1071056303
 21
165.3879126655
 31
0.0
  0
LINE
  5
7C
330
1F
100
AcDbEntity
  8
0
  6
Continuous
 62
     7
370
    25
100
AcDbLine
 10
117.8346941701
 20
168.5189739351
 30
0.0
 11
118.9833209544
 21
168.3853578032
 31
0.0
  0
LINE
  5
7D
330
1F
100
AcDbEntity
  8
0
  6
Continuous
 62
     7
370
    25
100
AcDbLine
 10
117.0261589054
 20
165.629982636
 30
0.0
 11
117.8346941701
 21
168.5189739351
 31
0.0
  0
LINE
  5
7E
330
1F
100
AcDbEntity
  8
0
  6
Continuous
 62
     7
370
    25
100
AcDbLine
 10
91.6030354741
 20
172.7450929651
 30
0.0
 11
117.0261589054
 21
165.629982636
 31
0.0
  0
LINE
  5
7F
330
1F
100
AcDbEntity
  8
0
  6
Continuous
 62
     7
370
    25
100
AcDbLine
 10
92.4115707388
 20
175.6340842642
 30
0.0
 11
91.6030354741
 21
172.7450929651
 31
0.0
  0
LINE
  5
80
330
1F
100
AcDbEntity
  8
0
  6
Continuous
 62
     7
370
    25
100
AcDbLine
 10
91.3604514062
 20
176.1161059536
 30
0.0
 11
92.4115707388
 21
175.6340842642
 31
0.0
  0
LINE
  5
81
330
1F
100
AcDbEntity
  8
0
  6
Continuous
 62
     7
370
    25
100
AcDbLine
 10
89.6987412661
 20
173.6183630904
 30
0.0
 11
91.3604514062
 21
176.1161059536
 31
0.0
  0
LINE
  5
82
330
1F
100
AcDbEntity
  8
0
  6
Continuous
 62
     7
370
    25
100
AcDbLine
 10
67.7186040707
 20
188.2414123235
 30
0.0
 11
89.6987412661
 21
173.6183630904
 31
0.0
  0
LINE
  5
83
330
1F
100
AcDbEntity
  8
0
  6
Continuous
 62
     7
370
    25
100
AcDbLine
 10
69.3803142108
 20
190.7391551866
 30
0.0
 11
67.7186040707
 21
188.2414123235
 31
0.0
  0
LINE
  5
84
330
1F
100
AcDbEntity
  8
0
  6
Continuous
 62
     7
370
    25
100
AcDbLine
 10
68.5295932138
 20
191.5223987922
 30
0.0
 11
69.3803142108
 21
190.7391551866
 31
0.0
  0
LINE
  5
85
330
1F
100
AcDbEntity
  8
0
  6
Continuous
 62
     7
370
    25
100
AcDbLine
 10
66.1773679646
 20
189.6604008392
 30
0.0
 11
68.5295932138
 21
191.5223987922
 31
0.0
  0
LINE
  5
86
330
1F
100
AcDbEntity
  8
0
  6
Continuous
 62
     7
370
    25
100
AcDbLine
 10
49.7917859784
 20
210.3599830324
 30
0.0
 11
66.1773679646
 21
189.6604008392
 31
0.0
  0
LINE
  5
87
330
1F
100
AcDbEntity
  8
0
  6
Continuous
 62
     7
370
    25
100
AcDbLine
 10
52.1440112277
 20
212.2219809854
 30
0.0
 11
49.7917859784
 21
210.3599830324
 31
0.0
  0
LINE
  5
88
330
1F
100
AcDbEntity
  8
0
  6
Continuous
 62
     7
370
    25
100
AcDbLine
 10
51.5769630648
 20
213.2297771659
 30
0.0
 11
52.1440112277
 21
212.2219809854
 31
0.0
  0
LINE
  5
89
330
1F
100
AcDbEntity
  8
0
  6
Continuous
 62
     7
370
    25
100
AcDbLine
 10
48.7644749028
 20
212.185789456
 30
0.0
 11
51.5769630648
 21
213.2297771659
 31
0.0
  0
LINE
  5
8A
330
1F
100
AcDbEntity
  8
0
  6
Continuous
 62
     7
370
    25
100
AcDbLine
 10
39.5773830557
 20
236.9356852819
 30
0.0
 11
48.7644749028
 21
212.185789456
 31
0.0
  0
LINE
  5
8B
330
1F
100
AcDbEntity
  8
0
  6
Continuous
 62
     7
370
    25
100
AcDbLine
 10
42.3898712178
 20
237.9796729918
 30
0.0
 11
39.5773830557
 21
236.9356852819
 31
0.0
  0
LINE
  5
8C
330
1F
100
AcDbEntity
  8
0
  6
Continuous
 62
     7
370
    25
100
AcDbLine
 10
42.1620025141
 20
239.1133716353
 30
0.0
 11
42.3898712178
 21
237.9796729918
 31
0.0
  0
LINE
  5
8D
330
1F
100
AcDbEntity
  8
0
  6
Continuous
 62
     7
370
    25
100
AcDbLine
 10
39.1645573763
 20
238.9895869594
 30
0.0
 11
42.1620025141
 21
239.1133716353
 31
0.0
  0
LINE
  5
8E
330
1F
100
AcDbEntity
  8
0
  6
Continuous
 62
     7
370
    25
100
AcDbLine
 10
38.0752522286
 20
265.3671041719
 30
0.0
 11
39.1645573763
 21
238.9895869594
 31
0.0
  0
LINE
  5
8F
330
1F
100
AcDbEntity
  8
0
  6
Continuous
 62
     7
370
    25
100
AcDbLine
 10
41.0726973663
 20
265.4908888478
 30
0.0
 11
38.0752522286
 21
265.3671041719
 31
0.0
  0
LINE
  5
90
330
1F
100
AcDbEntity
  8
0
  6
Continuous
 62
     7
370
    25
100
AcDbLine
 10
41.2063134982
 20
266.6395156321
 30
0.0
 11
41.0726973663
 21
265.4908888478
 31
0.0
  0
LINE
  5
91
330
1F
100
AcDbEntity
  8
0
  6
Continuous
 62
     7
370
    25
100
AcDbLine
 10
38.3173221991
 20
267.4480508968
 30
0.0
 11
41.2063134982
 21
266.6395156321
 31
0.0
  0
LINE
  5
92
330
1F
100
AcDbEntity
  8
0
  6
Continuous
 62
     7
370
    25
100
AcDbLine
 10
45.4324325283
 20
292.8711743281
 30
0.0
 11
38.3173221991
 21
267.4480508968
 31
0.0
  0
LINE
  5
93
330
1F
100
AcDbEntity
  8
0
  6
Continuous
 62
     7
370
    25
100
AcDbLine
 10
48.3214238273
 20
292.0626390634
 30
0.0
 11
45.4324325283
 21
292.8711743281
 31
0.0
  0
LINE
  5
94
330
1F
100
AcDbEntity
  8
0
  6
Continuous
 62
     7
370
    25
100
AcDbLine
 10
48.8034455167
 20
293.113758396
 30
0.0
 11
48.3214238273
 21
292.0626390634
 31
0.0
  0
LINE
  5
95
330
1F
100
AcDbEntity
  8
0
  6
Continuous
 62
     7
370
    25
100
AcDbLine
 10
46.3057026536
 20
294.7754685361
 30
0.0
 11
48.8034455167
 21
293.113758396
 31
0.0
  0
LINE
  5
96
330
1F
100
AcDbEntity
  8
0
  6
Continuous
 62
     7
370
    25
100
AcDbLine
 10
60.9287518866
 20
316.7556057315
 30
0.0
 11
46.3057026536
 21
294.7754685361
 31
0.0
  0
LINE
  5
97
330
1F
100
AcDbEntity
  8
0
  6
Continuous
 62
     7
370
    25
100
AcDbLine
 10
63.4264947497
 20
315.0938955914
 30
0.0
 11
60.9287518866
 21
316.7556057315
 31
0.0
  0
LINE
  5
98
330
1F
100
AcDbEntity
  8
0
  6
Continuous
 62
     7
370
    25
100
AcDbLine
 10
64.2097383553
 20
315.9446165884
 30
0.0
 11
63.4264947497
 21
315.0938955914
 31
0.0
  0
LINE
  5
99
330
1F
100
AcDbEntity
  8
0
  6
Continuous
 62
     7
370
    25
100
AcDbLine
 10
62.3477404023
 20
318.2968418376
 30
0.0
 11
64.2097383553
 21
315.9446165884
 31
0.0
  0
LINE
  5
9A
330
1F
100
AcDbEntity
  8
0
  6
Continuous
 62
     7
370
    25
100
AcDbLine
 10
83.0473225955
 20
334.6824238237
 30
0.0
 11
62.3477404023
 21
318.2968418376
 31
0.0
  0
LINE
  5
9B
330
1F
100
AcDbEntity
  8
0
  6
Continuous
 62
     7
370
    25
100
AcDbLine
 10
84.9093205485
 20
332.3301985745
 30
0.0
 11
83.0473225955
 21
334.6824238237
 31
0.0
  0
LINE
  5
9C
330
1F
100
AcDbEntity
  8
0
  6
Continuous
 62
     7
370
    25
100
AcDbLine
 10
85.917116729
 20
332.8972467374
 30
0.0
 11
84.9093205485
 21
332.3301985745
 31
0.0
  0
LINE
  5
9D
330
1F
100
AcDbEntity
  8
0
  6
Continuous
 62
     7
370
    25
100
AcDbLine
 10
84.8731290191
 20
335.7097348994
 30
0.0
 11
85.917116729
 21
332.8972467374
 31
0.0
  0
LINE
  5
9E
330
1F
100
AcDbEntity
  8
0
  6
Continuous
 62
     7
370
    25
100
AcDbLine
 10
109.623024845
 20
344.8968267465
 30
0.0
 11
84.8731290191
 21
335.7097348994
 31
0.0
  0
LINE
  5
9F
330
1F
100
AcDbEntity
  8
0
  6
Continuous
 62
     7
370
    25
100
AcDbLine
 10
110.6670125549
 20
342.0843385844
 30
0.0
 11
109.623024845
 21
344.8968267465
 31
0.0
  0
LINE
  5
A0
330
1F
100
AcDbEntity
  8
0
  6
Continuous
 62
     7
370
    25
100
AcDbLine
 10
111.8007111984
 20
342.3122072881
 30
0.0
 11
110.6670125549
 21
342.0843385844
 31
0.0
  0
LINE
  5
A1
330
1F
100
AcDbEntity
  8
0
  6
Continuous
 62
     7
370
    25
100
AcDbLine
 10
111.6769265225
 20
345.3096524259
 30
0.0
 11
111.8007111984
 21
342.3122072881
 31
0.0
  0
LINE
  5
A2
330
1F
100
AcDbEntity
  8
0
  6
Continuous
 62
     7
370
    25
100
AcDbLine
 10
138.054443735
 20
346.3989575736
 30
0.0
 11
111.6769265225
 21
345.3096524259
 31
0.0
  0
LINE
  5
A3
330
1F
100
AcDbEntity
  8
0
  6
Continuous
 62
     7
370
    25
100
AcDbLine
 10
138.1782284109
 20
343.4015124358
 30
0.0
 11
138.054443735
 21
346.3989575736
 31
0.0
  0
LINE
  5
A4
330
1F
100
AcDbEntity
  8
0
  6
Continuous
 62
     7
370
    25
100
AcDbLine
 10
139.3268551952
 20
343.267896304
 30
0.0
 11
138.1782284109
 21
343.4015124358
 31
0.0
  0
LINE
  5
A5
330
1F
100
AcDbEntity
  8
0
  6
Continuous
 62
     7
370
    25
100
AcDbLine
 10
140.1353904599
 20
346.156887603
 30
0.0
 11
139.3268551952
 21
343.267896304
 31
0.0
  0
LINE
  5
A6
330
1F
100
AcDbEntity
  8
0
  6
Continuous
 62
     7
370
    25
100
AcDbLine
 10
165.5585138912
 20
339.0417772739
 30
0.0
 11
140.1353904599
 21
346.156887603
 31
0.0
  0
LINE
  5
A7
330
1F
100
AcDbEntity
  8
0
  6
Continuous
 62
     7
370
    25
100
AcDbLine
 10
164.7499786265
 20
336.1527859749
 30
0.0
 11
165.5585138912
 21
339.0417772739
 31
0.0
  0
LINE
  5
A8
330
1F
100
AcDbEntity
  8
0
  6
Continuous
 62
     7
370
    25
100
AcDbLine
 10
165.8010979591
 20
335.6707642855
 30
0.0
 11
164.7499786265
 21
336.1527859749
 31
0.0
  0
LINE
  5
A9
330
1F
100
AcDbEntity
  8
0
  6
Continuous
 62
     7
370
    25
100
AcDbLine
 10
167.4628080992
 20
338.1685071486
 30
0.0
 11
165.8010979591
 21
335.6707642855
 31
0.0
  0
LINE
  5
AA
330
1F
100
AcDbEntity
  8
0
  6
Continuous
 62
     7
370
    25
100
AcDbLine
 10
189.4429452946
 20
323.5454579156
 30
0.0
 11
167.4628080992
 21
338.1685071486
 31
0.0
  0
LINE
  5
AB
330
1F
100
AcDbEntity
  8
0
  6
Continuous
 62
     7
370
    25
100
AcDbLine
 10
187.7812351545
 20
321.0477150525
 30
0.0
 11
189.4429452946
 21
323.5454579156
 31
0.0
  0
LINE
  5
AC
330
1F
100
AcDbEntity
  8
0
  6
Continuous
 62
     7
370
    25
100
AcDbLine
 10
188.6319561515
 20
320.2644714469
 30
0.0
 11
187.7812351545
 21
321.0477150525
 31
0.0
  0
LINE
  5
AD
330
1F
100
AcDbEntity
  8
0
  6
Continuous
 62
     7
370
    25
100
AcDbLine
 10
190.9841814007
 20
322.1264693999
 30
0.0
 11
188.6319561515
 21
320.2644714469
 31
0.0
  0
LINE
  5
AE
330
1F
100
AcDbEntity
  8
0
  6
Continuous
 62
     7
370
    25
100
AcDbLine
 10
207.3697633869
 20
301.4268872066
 30
0.0
 11
190.9841814007
 21
322.1264693999
 31
0.0
  0
LINE
  5
AF
330
1F
100
AcDbEntity
  8
0
  6
Continuous
 62
     7
370
    25
100
AcDbLine
 10
205.0175381376
 20
299.5648892537
 30
0.0
 11
207.3697633869
 21
301.4268872066
 31
0.0
  0
LINE
  5
B0
330
1F
100
AcDbEntity
  8
0
  6
Continuous
 62
     7
370
    25
100
AcDbLine
 10
205.5845863005
 20
298.5570930732
 30
0.0
 11
205.0175381376
 21
299.5648892537
 31
0.0
  0
LINE
  5
B1
330
1F
100
AcDbEntity
  8
0
  6
Continuous
 62
     7
370
    25
100
AcDbLine
 10
208.3970744625
 20
299.6010807831
 30
0.0
 11
205.5845863005
 21
298.5570930732
 31
0.0
  0
LINE
  5
B2
330
1F
100
AcDbEntity
  8
0
  6
Continuous
 62
     7
370
    25
100
AcDbLine
 10
217.5841663096
 20
274.8511849572
 30
0.0
 11
208.3970744625
 21
299.6010807831
 31
0.0
  0
LINE
  5
B3
330
1F
100
AcDbEntity
  8
0
  6
Continuous
 62
     7
370
    25
100
AcDbLine
 10
214.7716781475
 20
273.8071972473
 30
0.0
 11
217.5841663096
 21
274.8511849572
 31
0.0
  0
LINE
  5
B4
330
1F
100
AcDbEntity
  8
0
  6
Continuous
 62
     7
370
    25
100
AcDbLine
 10
214.9995468512
 20
272.6734986038
 30
0.0
 11
214.7716781475
 21
273.8071972473
 31
0.0
  0
LINE
  5
B5
330
1F
100
AcDbEntity
  8
0
  6
Continuous
 62
     7
370
    25
100
AcDbLine
 10
217.996991989
 20
272.7972832797
 30
0.0
 11
214.9995468512
 21
272.6734986038
 31
0.0
  0
LINE
  5
B6
330
1F
100
AcDbEntity
  8
0
  6
Continuous
 62
     7
370
    25
100
AcDbLine
 10
219.0862971367
 20
246.4197660672
 30
0.0
 11
217.996991989
 21
272.7972832797
 31
0.0
  0
LINE
  5
B7
330
1F
100
AcDbEntity
  8
0
  6
Continuous
 62
     7
370
    25
100
AcDbLine
 10
216.0888519989
 20
246.2959813913
 30
0.0
 11
219.0862971367
 21
246.4197660672
 31
0.0
  0
LINE
  5
B8
330
1F
100
AcDbEntity
  8
0
  6
Continuous
 62
     7
370
    25
100
AcDbLine
 10
215.9552358671
 20
245.147354607
 30
0.0
 11
216.0888519989
 21
246.2959813913
 31
0.0
  0
LINE
  5
B9
330
1F
100
AcDbEntity
  8
0
  6
Continuous
 62
     7
370
    25
100
AcDbLine
 10
218.8442271661
 20
244.3388193423
 30
0.0
 11
215.9552358671
 21
245.147354607
 31
0.0
  0
LINE
  5
BA
330
1F
100
AcDbEntity
  8
0
  6
Continuous
 62
     7
370
    25
100
AcDbLine
 10
211.729116837
 20
218.915695911
 30
0.0
 11
218.8442271661
 21
244.3388193423
 31
0.0
  0
LINE
  5
BB
330
1F
100
AcDbEntity
  8
0
  6
Continuous
 62
     7
370
    25
100
AcDbLine
 10
208.840125538
 20
219.7242311756
 30
0.0
 11
211.729116837
 21
218.915695911
 31
0.0
  0
LINE
  5
BC
330
1F
100
AcDbEntity
  8
0
  6
Continuous
 62
     7
370
    25
100
AcDbLine
 10
208.3581038486
 20
218.6731118431
 30
0.0
 11
208.840125538
 21
219.7242311756
 31
0.0
  0
LINE
  5
BD
330
1F
100
AcDbEntity
  8
0
  6
Continuous
 62
     7
370
    25
100
AcDbLine
 10
210.8558467117
 20
217.011401703
 30
0.0
 11
208.3581038486
 21
218.6731118431
 31
0.0
  0
LINE
  5
BE
330
1F
100
AcDbEntity
  8
0
  6
Continuous
 62
     7
370
    25
100
AcDbLine
 10
196.2327974787
 20
195.0312645076
 30
0.0
 11
210.8558467117
 21
217.011401703
 31
0.0
  0
LINE
  5
BF
330
1F
100
AcDbEntity
  8
0
  6
Continuous
 62
     7
370
    25
100
AcDbLine
 10
193.7350546156
 20
196.6929746477
 30
0.0
 11
196.2327974787
 21
195.0312645076
 31
0.0
  0
LINE
  5
C0
330
1F
100
AcDbEntity
  8
0
  6
Continuous
 62
     7
370
    25
100
AcDbLine
 10
192.95181101
 20
195.8422536507
 30
0.0
 11
193.7350546156
 21
196.6929746477
 31
0.0
  0
LINE
  5
C1
330
1F
100
AcDbEntity
  8
0
  6
Continuous
 62
     7
370
    25
100
AcDbLine
 10
194.813808963
 20
193.4900284015
 30
0.0
 11
192.95181101
 21
195.8422536507
 31
0.0
  0
LINE
  5
C2
330
1F
100
AcDbEntity
  8
0
  6
Continuous
 62
     7
370
    25
100
AcDbLine
 10
174.1142267697
 20
177.1044464153
 30
0.0
 11
194.813808963
 21
193.4900284015
 31
0.0
  0
LINE
  5
C3
330
1F
100
AcDbEntity
  8
0
  6
Continuous
 62
     7
370
    25
100
AcDbLine
 10
172.2522288168
 20
179.4566716646
 30
0.0
 11
174.1142267697
 21
177.1044464153
 31
0.0
  0
LINE
  5
C4
330
1F
100
AcDbEntity
  8
0
  6
Continuous
 62
     7
370
    25
100
AcDbLine
 10
92.3843097171
 20
178.5577681249
 30
0.0
 11
89.5040121409
 21
174.2283471622
 31
0.0
  0
ARC
  5
C5
330
1F
100
AcDbEntity
  8
0
  6
Continuous
 62
     7
370
    25
100
AcDbCircle
 10
92.0512773353
 20
178.779329477
 30
0.0
 40
0.4000000000000061
100
AcDbArc
 50
326.3647845033
 51
56.3647845033
  0
LINE
  5
C6
330
1F
100
AcDbEntity
  8
0
  6
Continuous
 62
     7
370
    25
100
AcDbLine
 10
71.7913472098
 20
192.7383850077
 30
0.0
 11
92.2728386874
 21
179.1123618587
 31
0.0
  0
ARC
  5
C7
330
1F
100
AcDbEntity
  8
0
  6
Continuous
 62
     7
370
    25
100
AcDbCircle
 10
71.5697858578
 20
192.4053526259
 30
0.0
 40
0.4000000000000021
100
AcDbArc
 50
56.3647845033
 51
146.3647845033
  0
LINE
  5
C8
330
1F
100
AcDbEntity
  8
0
  6
Continuous
 62
     7
370
    25
100
AcDbLine
 10
68.3564558999
 20
188.2974930152
 30
0.0
 11
71.2367534761
 21
192.6269139779
 31
0.0
  0
ARC
  5
C9
330
1F
100
AcDbEntity
  8
0
  6
Continuous
 62
     7
370
    25
100
AcDbCircle
 10
68.6894882816
 20
188.0759316632
 30
0.0
 40
0.4000000000000179
100
AcDbArc
 50
146.3647845033
 51
236.3647845033
  0
ARC
  5
CA
330
1F
100
AcDbEntity
  8
0
  6
Continuous
 62
     7
370
    25
100
AcDbCircle
 10
89.1709797591
 20
174.4499085142
 30
0.0
 40
0.400000000000014
100
AcDbArc
 50
236.3647845033
 51
326.3647845033
  0
LINE
  5
CB
330
1F
100
AcDbEntity
  8
0
  6
Continuous
 62
     7
370
    25
100
AcDbLine
 10
70.2578554377
 20
193.5281678929
 30
0.0
 11
66.1806650057
 21
190.3007047745
 31
0.0
  0
ARC
  5
CC
330
1F
100
AcDbEntity
  8
0
  6
Continuous
 62
     7
370
    25
100
AcDbCircle
 10
70.0095890439
 20
193.8417979262
 30
0.0
 40
0.3999999999999955
100
AcDbArc
 50
308.3647845033
 51
38.3647845033
  0
LINE
  5
CD
330
1F
100
AcDbEntity
  8
0
  6
Continuous
 62
     7
370
    25
100
AcDbLine
 10
55.0548358628
 20
213.3783113636
 30
0.0
 11
70.3232190772
 21
194.0900643199
 31
0.0
  0
ARC
  5
CE
330
1F
100
AcDbEntity
  8
0
  6
Continuous
 62
     7
370
    25
100
AcDbCircle
 10
54.7412058296
 20
213.1300449699
 30
0.0
 40
0.4000000000000087
100
AcDbArc
 50
38.3647845033
 51
128.3647845033
  0
LINE
  5
CF
330
1F
100
AcDbEntity
  8
0
  6
Continuous
 62
     7
370
    25
100
AcDbLine
 10
50.4157490038
 20
210.2162118846
 30
0.0
 11
54.4929394358
 21
213.4436750031
 31
0.0
  0
ARC
  5
D0
330
1F
100
AcDbEntity
  8
0
  6
Continuous
 62
     7
370
    25
100
AcDbCircle
 10
50.6640153976
 20
209.9025818514
 30
0.0
 40
0.4000000000000043
100
AcDbArc
 50
128.3647845033
 51
218.3647845033
  0
ARC
  5
D1
330
1F
100
AcDbEntity
  8
0
  6
Continuous
 62
     7
370
    25
100
AcDbCircle
 10
65.9323986119
 20
190.6143348077
 30
0.0
 40
0.3999999999999908
100
AcDbArc
 50
218.3647845033
 51
308.3647845033
  0
LINE
  5
D2
330
1F
100
AcDbEntity
  8
0
  6
Continuous
 62
     7
370
    25
100
AcDbLine
 10
53.8404548536
 20
214.6033145415
 30
0.0
 11
48.9654753727
 21
212.7937358443
 31
0.0
  0
ARC
  5
D3
330
1F
100
AcDbEntity
  8
0
  6
Continuous
 62
     7
370
    25
100
AcDbCircle
 10
53.7012564923
 20
214.9783129631
 30
0.0
 40
0.3999999999999958
100
AcDbArc
 50
290.3647845033
 51
20.3647845033
  0
LINE
  5
D4
330
1F
100
AcDbEntity
  8
0
  6
Continuous
 62
     7
370
    25
100
AcDbLine
 10
45.5155556928
 20
238.1799142531
 30
0.0
 11
54.0762549139
 21
215.1175113244
 31
0.0
  0
ARC
  5
D5
330
1F
100
AcDbEntity
  8
0
  6
Continuous
 62
     7
370
    25
100
AcDbCircle
 10
45.1405572712
 20
238.0407158918
 30
0.0
 40
0.4000000000000032
100
AcDbArc
 50
20.3647845033
 51
110.3647845033
  0
LINE
  5
D6
330
1F
100
AcDbEntity
  8
0
  6
Continuous
 62
     7
370
    25
100
AcDbLine
 10
40.126379429
 20
236.6061356162
 30
0.0
 11
45.0013589098
 21
238.4157143134
 31
0.0
  0
ARC
  5
D7
330
1F
100
AcDbEntity
  8
0
  6
Continuous
 62
     7
370
    25
100
AcDbCircle
 10
40.2655777903
 20
236.2311371946
 30
0.0
 40
0.4000000000000007
100
AcDbArc
 50
110.3647845033
 51
200.3647845033
  0
ARC
  5
D8
330
1F
100
AcDbEntity
  8
0
  6
Continuous
 62
     7
370
    25
100
AcDbCircle
 10
48.8262770114
 20
213.1687342659
 30
0.0
 40
0.4000000000000007
100
AcDbArc
 50
200.3647845033
 51
290.3647845033
  0
LINE
  5
D9
330
1F
100
AcDbEntity
  8
0
  6
Continuous
 62
     7
370
    25
100
AcDbLine
 10
44.7391575208
 20
239.7202258773
 30
0.0
 11
39.5435859487
 21
239.5056657725
 31
0.0
  0
ARC
  5
DA
330
1F
100
AcDbEntity
  8
0
  6
Continuous
 62
     7
370
    25
100
AcDbCircle
 10
44.7226528974
 20
240.119885229
 30
0.0
 40
0.4000000000000207
100
AcDbArc
 50
272.3647845033
 51
2.3647845033
  0
LINE
  5
DB
330
1F
100
AcDbEntity
  8
0
  6
Continuous
 62
     7
370
    25
100
AcDbLine
 10
44.1072779069
 20
264.7154399823
 30
0.0
 11
45.1223122491
 21
240.1363898525
 31
0.0
  0
ARC
  5
DC
330
1F
100
AcDbEntity
  8
0
  6
Continuous
 62
     7
370
    25
100
AcDbCircle
 10
43.7076185552
 20
264.6989353589
 30
0.0
 40
0.3999999999999994
100
AcDbArc
 50
2.3647845033
 51
92.3647845033
  0
LINE
  5
DD
330
1F
100
AcDbEntity
  8
0
  6
Continuous
 62
     7
370
    25
100
AcDbLine
 10
38.4955423596
 20
264.8840346057
 30
0.0
 11
43.6911139317
 21
265.0985947106
 31
0.0
  0
ARC
  5
DE
330
1F
100
AcDbEntity
  8
0
  6
Continuous
 62
     7
370
    25
100
AcDbCircle
 10
38.512046983
 20
264.484375254
 30
0.0
 40
0.3999999999999994
100
AcDbArc
 50
92.3647845033
 51
182.3647845033
  0
ARC
  5
DF
330
1F
100
AcDbEntity
  8
0
  6
Continuous
 62
     7
370
    25
100
AcDbCircle
 10
39.5270813252
 20
239.9053251242
 30
0.0
 40
0.4000000000000204
100
AcDbArc
 50
182.3647845033
 51
272.3647845033
  0
LINE
  5
E0
330
1F
100
AcDbEntity
  8
0
  6
Continuous
 62
     7
370
    25
100
AcDbLine
 10
43.8448618347
 20
266.4202836192
 30
0.0
 11
38.8372769165
 21
267.8217447446
 31
0.0
  0
ARC
  5
E1
330
1F
100
AcDbEntity
  8
0
  6
Continuous
 62
     7
370
    25
100
AcDbCircle
 10
43.9526665367
 20
266.8054824591
 30
0.0
 40
0.3999999999999972
100
AcDbArc
 50
254.3647845033
 51
344.3647845033
  0
LINE
  5
E2
330
1F
100
AcDbEntity
  8
0
  6
Continuous
 62
     7
370
    25
100
AcDbLine
 10
50.9678545469
 20
290.3874064091
 30
0.0
 11
44.3378653766
 21
266.6976777571
 31
0.0
  0
ARC
  5
E3
330
1F
100
AcDbEntity
  8
0
  6
Continuous
 62
     7
370
    25
100
AcDbCircle
 10
50.582655707
 20
290.495211111
 30
0.0
 40
0.4000000000000449
100
AcDbArc
 50
344.3647845033
 51
74.3647845033
  0
LINE
  5
E4
330
1F
100
AcDbEntity
  8
0
  6
Continuous
 62
     7
370
    25
100
AcDbLine
 10
45.6828754907
 20
292.2818710763
 30
0.0
 11
50.690460409
 21
290.8804099509
 31
0.0
  0
ARC
  5
E5
330
1F
100
AcDbEntity
  8
0
  6
Continuous
 62
     7
370
    25
100
AcDbCircle
 10
45.5750707887
 20
291.8966722364
 30
0.0
 40
0.400000000000041
100
AcDbArc
 50
74.3647845033
 51
164.3647845033
  0
ARC
  5
E6
330
1F
100
AcDbEntity
  8
0
  6
Continuous
 62
     7
370
    25
100
AcDbCircle
 10
38.9450816184
 20
268.2069435845
 30
0.0
 40
0.4000000000000142
100
AcDbArc
 50
164.3647845033
 51
254.3647845033
  0
LINE
  5
E7
330
1F
100
AcDbEntity
  8
0
  6
Continuous
 62
     7
370
    25
100
AcDbLine
 10
51.245107688
 20
292.0899000851
 30
0.0
 11
46.9156867253
 21
294.9701976613
 31
0.0
  0
ARC
  5
E8
330
1F
100
AcDbEntity
  8
0
  6
Continuous
 62
     7
370
    25
100
AcDbCircle
 10
51.4666690401
 20
292.4229324668
 30
0.0
 40
0.4000000000000219
100
AcDbArc
 50
236.3647845033
 51
326.3647845034
  0
LINE
  5
E9
330
1F
100
AcDbEntity
  8
0
  6
Continuous
 62
     7
370
    25
100
AcDbLine
 10
65.4257245708
 20
312.6828625923
 30
0.0
 11
51.7997014218
 21
292.2013711148
 31
0.0
  0
ARC
  5
EA
330
1F
100
AcDbEntity
  8
0
  6
Continuous
 62
     7
370
    25
100
AcDbCircle
 10
65.092692189
 20
312.9044239444
 30
0.0
 40
0.4000000000000179
100
AcDbArc
 50
326.3647845033
 51
56.3647845033
  0
LINE
  5
EB
330
1F
100
AcDbEntity
  8
0
  6
Continuous
 62
     7
370
    25
100
AcDbLine
 10
60.9848325783
 20
316.1177539023
 30
0.0
 11
65.314253541
 21
313.2374563261
 31
0.0
  0
ARC
  5
EC
330
1F
100
AcDbEntity
  8
0
  6
Continuous
 62
     7
370
    25
100
AcDbCircle
 10
60.7632712263
 20
315.7847215206
 30
0.0
 40
0.3999999999999924
100
AcDbArc
 50
56.3647845033
 51
146.3647845033
  0
ARC
  5
ED
330
1F
100
AcDbEntity
  8
0
  6
Continuous
 62
     7
370
    25
100
AcDbCircle
 10
47.1372480773
 20
295.303230043
 30
0.0
 40
0.4000000000000435
100
AcDbArc
 50
146.3647845033
 51
236.3647845033
  0
LINE
  5
EE
330
1F
100
AcDbEntity
  8
0
  6
Continuous
 62
     7
370
    25
100
AcDbLine
 10
66.2155074561
 20
314.2163543645
 30
0.0
 11
62.9880443376
 21
318.2935447965
 31
0.0
  0
ARC
  5
EF
330
1F
100
AcDbEntity
  8
0
  6
Continuous
 62
     7
370
    25
100
AcDbCircle
 10
66.5291374893
 20
314.4646207582
 30
0.0
 40
0.3999999999999889
100
AcDbArc
 50
218.3647845033
 51
308.3647845033
  0
LINE
  5
F0
330
1F
100
AcDbEntity
  8
0
  6
Continuous
 62
     7
370
    25
100
AcDbLine
 10
86.0656509267
 20
329.4193739394
 30
0.0
 11
66.777403883
 21
314.150990725
 31
0.0
  0
ARC
  5
F1
330
1F
100
AcDbEntity
  8
0
  6
Continuous
 62
     7
370
    25
100
AcDbCircle
 10
85.817384533
 20
329.7330039726
 30
0.0
 40
0.4000000000000354
100
AcDbArc
 50
308.3647845033
 51
38.3647845033
  0
LINE
  5
F2
330
1F
100
AcDbEntity
  8
0
  6
Continuous
 62
     7
370
    25
100
AcDbLine
 10
82.9035514477
 20
334.0584607984
 30
0.0
 11
86.1310145662
 21
329.9812703663
 31
0.0
  0
ARC
  5
F3
330
1F
100
AcDbEntity
  8
0
  6
Continuous
 62
     7
370
    25
100
AcDbCircle
 10
82.5899214145
 20
333.8101944046
 30
0.0
 40
0.4000000000000001
100
AcDbArc
 50
38.3647845033
 51
128.3647845033
  0
ARC
  5
F4
330
1F
100
AcDbEntity
  8
0
  6
Continuous
 62
     7
370
    25
100
AcDbCircle
 10
63.3016743708
 20
318.5418111903
 30
0.0
 40
0.4000000000000309
100
AcDbArc
 50
128.3647845033
 51
218.3647845033
  0
LINE
  5
F5
330
1F
100
AcDbEntity
  8
0
  6
Continuous
 62
     7
370
    25
100
AcDbLine
 10
87.2906541046
 20
330.6337549486
 30
0.0
 11
85.4810754074
 21
335.5087344294
 31
0.0
  0
ARC
  5
F6
330
1F
100
AcDbEntity
  8
0
  6
Continuous
 62
     7
370
    25
100
AcDbCircle
 10
87.6656525262
 20
330.7729533099
 30
0.0
 40
0.4000000000000565
100
AcDbArc
 50
200.3647845034
 51
290.3647845033
  0
LINE
  5
F7
330
1F
100
AcDbEntity
  8
0
  6
Continuous
 62
     7
370
    25
100
AcDbLine
 10
110.8672538162
 20
338.9586541094
 30
0.0
 11
87.8048508875
 21
330.3979548883
 31
0.0
  0
ARC
  5
F8
330
1F
100
AcDbEntity
  8
0
  6
Continuous
 62
     7
370
    25
100
AcDbCircle
 10
110.7280554549
 20
339.333652531
 30
0.0
 40
0.4000000000000097
100
AcDbArc
 50
290.3647845033
 51
20.3647845034
  0
LINE
  5
F9
330
1F
100
AcDbEntity
  8
0
  6
Continuous
 62
     7
370
    25
100
AcDbLine
 10
109.2934751793
 20
344.3478303732
 30
0.0
 11
111.1030538765
 21
339.4728508923
 31
0.0
  0
ARC
  5
FA
330
1F
100
AcDbEntity
  8
0
  6
Continuous
 62
     7
370
    25
100
AcDbCircle
 10
108.9184767577
 20
344.2086320119
 30
0.0
 40
0.4000000000000032
100
AcDbArc
 50
20.3647845033
 51
110.3647845033
  0
ARC
  5
FB
330
1F
100
AcDbEntity
  8
0
  6
Continuous
 62
     7
370
    25
100
AcDbCircle
 10
85.856073829
 20
335.6479327908
 30
0.0
 40
0.4000000000000515
100
AcDbArc
 50
110.3647845033
 51
200.3647845033
  0
LINE
  5
FC
330
1F
100
AcDbEntity
  8
0
  6
Continuous
 62
     7
370
    25
100
AcDbLine
 10
112.4075654404
 20
339.7350522814
 30
0.0
 11
112.1930053356
 21
344.9306238535
 31
0.0
  0
ARC
  5
FD
330
1F
100
AcDbEntity
  8
0
  6
Continuous
 62
     7
370
    25
100
AcDbCircle
 10
112.8072247921
 20
339.7515569048
 30
0.0
 40
0.4000000000000065
100
AcDbArc
 50
182.3647845033
 51
272.3647845033
  0
LINE
  5
FE
330
1F
100
AcDbEntity
  8
0
  6
Continuous
 62
     7
370
    25
100
AcDbLine
 10
137.4027795454
 20
340.3669318953
 30
0.0
 11
112.8237294156
 21
339.3518975531
 31
0.0
  0
ARC
  5
FF
330
1F
100
AcDbEntity
  8
0
  6
Continuous
 62
     7
370
    25
100
AcDbCircle
 10
137.386274922
 20
340.766591247
 30
0.0
 40
0.4000000000000207
100
AcDbArc
 50
272.3647845033
 51
2.3647845033
  0
LINE
  5
100
330
1F
100
AcDbEntity
  8
0
  6
Continuous
 62
     7
370
    25
100
AcDbLine
 10
137.5713741688
 20
345.9786674426
 30
0.0
 11
137.7859342737
 21
340.7830958704
 31
0.0
  0
ARC
  5
101
330
1F
100
AcDbEntity
  8
0
  6
Continuous
 62
     7
370
    25
100
AcDbCircle
 10
137.1717148171
 20
345.9621628192
 30
0.0
 40
0.4000000000000207
100
AcDbArc
 50
2.3647845033
 51
92.3647845033
  0
ARC
  5
102
330
1F
100
AcDbEntity
  8
0
  6
Continuous
 62
     7
370
    25
100
AcDbCircle
 10
112.5926646873
 20
344.947128477
 30
0.0
 40
0.3999999999999929
100
AcDbArc
 50
92.3647845033
 51
182.3647845033
  0
LINE
  5
103
330
1F
100
AcDbEntity
  8
0
  6
Continuous
 62
     7
370
    25
100
AcDbLine
 10
139.1076231823
 20
340.6293479674
 30
0.0
 11
140.5090843078
 21
345.6369328857
 31
0.0
  0
ARC
  5
104
330
1F
100
AcDbEntity
  8
0
  6
Continuous
 62
     7
370
    25
100
AcDbCircle
 10
139.4928220222
 20
340.5215432655
 30
0.0
 40
0.4000000000000041
100
AcDbArc
 50
164.3647845033
 51
254.3647845033
  0
LINE
  5
105
330
1F
100
AcDbEntity
  8
0
  6
Continuous
 62
     7
370
    25
100
AcDbLine
 10
163.0747459722
 20
333.5063552553
 30
0.0
 11
139.3850173202
 21
340.1363444256
 31
0.0
  0
ARC
  5
106
330
1F
100
AcDbEntity
  8
0
  6
Continuous
 62
     7
370
    25
100
AcDbCircle
 10
163.1825506741
 20
333.8915540952
 30
0.0
 40
0.4000000000000041
100
AcDbArc
 50
254.3647845033
 51
344.3647845033
  0
LINE
  5
107
330
1F
100
AcDbEntity
  8
0
  6
Continuous
 62
     7
370
    25
100
AcDbLine
 10
164.9692106394
 20
338.7913343115
 30
0.0
 11
163.567749514
 21
333.7837493932
 31
0.0
  0
ARC
  5
108
330
1F
100
AcDbEntity
  8
0
  6
Continuous
 62
     7
370
    25
100
AcDbCircle
 10
164.5840117995
 20
338.8991390135
 30
0.0
 40
0.3999999999999844
100
AcDbArc
 50
344.3647845033
 51
74.3647845033
  0
ARC
  5
109
330
1F
100
AcDbEntity
  8
0
  6
Continuous
 62
     7
370
    25
100
AcDbCircle
 10
140.8942831476
 20
345.5291281838
 30
0.0
 40
0.4000000000000468
100
AcDbArc
 50
74.3647845033
 51
164.3647845033
  0
LINE
  5
10A
330
1F
100
AcDbEntity
  8
0
  6
Continuous
 62
     7
370
    25
100
AcDbLine
 10
164.7772396482
 20
333.2291021141
 30
0.0
 11
167.6575372244
 21
337.5585230769
 31
0.0
  0
ARC
  5
10B
330
1F
100
AcDbEntity
  8
0
  6
Continuous
 62
     7
370
    25
100
AcDbCircle
 10
165.1102720299
 20
333.0075407621
 30
0.0
 40
0.3999999999999982
100
AcDbArc
 50
146.3647845033
 51
236.3647845033
  0
LINE
  5
10C
330
1F
100
AcDbEntity
  8
0
  6
Continuous
 62
     7
370
    25
100
AcDbLine
 10
185.3702021554
 20
319.0484852314
 30
0.0
 11
164.8887106779
 21
332.6745083804
 31
0.0
  0
ARC
  5
10D
330
1F
100
AcDbEntity
  8
0
  6
Continuous
 62
     7
370
    25
100
AcDbCircle
 10
185.5917635075
 20
319.3815176132
 30
0.0
 40
0.4000000000000061
100
AcDbArc
 50
236.3647845033
 51
326.3647845033
  0
LINE
  5
10E
330
1F
100
AcDbEntity
  8
0
  6
Continuous
 62
     7
370
    25
100
AcDbLine
 10
188.8050934654
 20
323.4893772239
 30
0.0
 11
185.9247958892
 21
319.1599562611
 31
0.0
  0
ARC
  5
10F
330
1F
100
AcDbEntity
  8
0
  6
Continuous
 62
     7
370
    25
100
AcDbCircle
 10
188.4720610837
 20
323.7109385759
 30
0.0
 40
0.4000000000000061
100
AcDbArc
 50
326.3647845033
 51
56.3647845033
  0
ARC
  5
110
330
1F
100
AcDbEntity
  8
0
  6
Continuous
 62
     7
370
    25
100
AcDbCircle
 10
167.9905696061
 20
337.3369617248
 30
0.0
 40
0.4000000000000219
100
AcDbArc
 50
56.3647845033
 51
146.3647845034
  0
LINE
  5
111
330
1F
100
AcDbEntity
  8
0
  6
Continuous
 62
     7
370
    25
100
AcDbLine
 10
186.9036939276
 20
318.2587023461
 30
0.0
 11
190.9808843596
 21
321.4861654646
 31
0.0
  0
ARC
  5
112
330
1F
100
AcDbEntity
  8
0
  6
Continuous
 62
     7
370
    25
100
AcDbCircle
 10
187.1519603214
 20
317.9450723129
 30
0.0
 40
0.4000000000000177
100
AcDbArc
 50
128.3647845033
 51
218.3647845033
  0
LINE
  5
113
330
1F
100
AcDbEntity
  8
0
  6
Continuous
 62
     7
370
    25
100
AcDbLine
 10
202.1067135025
 20
298.4085588755
 30
0.0
 11
186.8383302881
 21
317.6968059192
 31
0.0
  0
ARC
  5
114
330
1F
100
AcDbEntity
  8
0
  6
Continuous
 62
     7
370
    25
100
AcDbCircle
 10
202.4203435357
 20
298.6568252692
 30
0.0
 40
0.4000000000000354
100
AcDbArc
 50
218.3647845033
 51
308.3647845033
  0
LINE
  5
115
330
1F
100
AcDbEntity
  8
0
  6
Continuous
 62
     7
370
    25
100
AcDbLine
 10
206.7458003615
 20
301.5706583544
 30
0.0
 11
202.6686099295
 21
298.343195236
 31
0.0
  0
ARC
  5
116
330
1F
100
AcDbEntity
  8
0
  6
Continuous
 62
     7
370
    25
100
AcDbCircle
 10
206.4975339677
 20
301.8842883877
 30
0.0
 40
0.4000000000000001
100
AcDbArc
 50
308.3647845033
 51
38.3647845033
  0
ARC
  5
117
330
1F
100
AcDbEntity
  8
0
  6
Continuous
 62
     7
370
    25
100
AcDbCircle
 10
191.2291507534
 20
321.1725354314
 30
0.0
 40
0.4000000000000131
100
AcDbArc
 50
38.3647845033
 51
128.3647845033
  0
LINE
  5
118
330
1F
100
AcDbEntity
  8
0
  6
Continuous
 62
     7
370
    25
100
AcDbLine
 10
203.3210945117
 20
297.1835556976
 30
0.0
 11
208.1960739926
 21
298.9931343948
 31
0.0
  0
ARC
  5
119
330
1F
100
AcDbEntity
  8
0
  6
Continuous
 62
     7
370
    25
100
AcDbCircle
 10
203.460292873
 20
296.808557276
 30
0.0
 40
0.4000000000000101
100
AcDbArc
 50
110.3647845033
 51
200.3647845033
  0
LINE
  5
11A
330
1F
100
AcDbEntity
  8
0
  6
Continuous
 62
     7
370
    25
100
AcDbLine
 10
211.6459936725
 20
273.606955986
 30
0.0
 11
203.0852944514
 21
296.6693589147
 31
0.0
  0
ARC
  5
11B
330
1F
100
AcDbEntity
  8
0
  6
Continuous
 62
     7
370
    25
100
AcDbCircle
 10
212.0209920941
 20
273.7461543473
 30
0.0
 40
0.4000000000000565
100
AcDbArc
 50
200.3647845033
 51
290.3647845033
  0
LINE
  5
11C
330
1F
100
AcDbEntity
  8
0
  6
Continuous
 62
     7
370
    25
100
AcDbLine
 10
217.0351699363
 20
275.1807346229
 30
0.0
 11
212.1601904554
 21
273.3711559257
 31
0.0
  0
ARC
  5
11D
330
1F
100
AcDbEntity
  8
0
  6
Continuous
 62
     7
370
    25
100
AcDbCircle
 10
216.895971575
 20
275.5557330445
 30
0.0
 40
0.4000000000000101
100
AcDbArc
 50
290.3647845033
 51
20.3647845033
  0
ARC
  5
11E
330
1F
100
AcDbEntity
  8
0
  6
Continuous
 62
     7
370
    25
100
AcDbCircle
 10
208.3352723539
 20
298.6181359732
 30
0.0
 40
0.4000000000000565
100
AcDbArc
 50
20.3647845033
 51
110.3647845033
  0
LINE
  5
11F
330
1F
100
AcDbEntity
  8
0
  6
Continuous
 62
     7
370
    25
100
AcDbLine
 10
212.4223918445
 20
272.0666443617
 30
0.0
 11
217.6179634166
 21
272.2812044666
 31
0.0
  0
ARC
  5
120
330
1F
100
AcDbEntity
  8
0
  6
Continuous
 62
     7
370
    25
100
AcDbCircle
 10
212.4388964679
 20
271.66698501
 30
0.0
 40
0.400000000000049
100
AcDbArc
 50
92.3647845033
 51
182.3647845033
  0
LINE
  5
121
330
1F
100
AcDbEntity
  8
0
  6
Continuous
 62
     7
370
    25
100
AcDbLine
 10
213.0542714584
 20
247.0714302568
 30
0.0
 11
212.0392371162
 21
271.6504803866
 31
0.0
  0
ARC
  5
122
330
1F
100
AcDbEntity
  8
0
  6
Continuous
 62
     7
370
    25
100
AcDbCircle
 10
213.4539308101
 20
247.0879348802
 30
0.0
 40
0.4000000000000207
100
AcDbArc
 50
182.3647845033
 51
272.3647845033
  0
LINE
  5
123
330
1F
100
AcDbEntity
  8
0
  6
Continuous
 62
     7
370
    25
100
AcDbLine
 10
218.6660070057
 20
246.9028356334
 30
0.0
 11
213.4704354335
 21
246.6882755285
 31
0.0
  0
ARC
  5
124
330
1F
100
AcDbEntity
  8
0
  6
Continuous
 62
     7
370
    25
100
AcDbCircle
 10
218.6495023823
 20
247.3024949851
 30
0.0
 40
0.4000000000000207
100
AcDbArc
 50
272.3647845033
 51
2.3647845033
  0
ARC
  5
125
330
1F
100
AcDbEntity
  8
0
  6
Continuous
 62
     7
370
    25
100
AcDbCircle
 10
217.6344680401
 20
271.8815451149
 30
0.0
 40
0.400000000000049
100
AcDbArc
 50
2.3647845033
 51
92.3647845033
  0
LINE
  5
126
330
1F
100
AcDbEntity
  8
0
  6
Continuous
 62
     7
370
    25
100
AcDbLine
 10
213.3166875305
 20
245.3665866199
 30
0.0
 11
218.3242724488
 21
243.9651254944
 31
0.0
  0
ARC
  5
127
330
1F
100
AcDbEntity
  8
0
  6
Continuous
 62
     7
370
    25
100
AcDbCircle
 10
213.2088828286
 20
244.98138778
 30
0.0
 40
0.399999999999992
100
AcDbArc
 50
74.3647845033
 51
164.3647845033
  0
LINE
  5
128
330
1F
100
AcDbEntity
  8
0
  6
Continuous
 62
     7
370
    25
100
AcDbLine
 10
206.1936948184
 20
221.39946383
 30
0.0
 11
212.8236839887
 21
245.0891924819
 31
0.0
  0
ARC
  5
129
330
1F
100
AcDbEntity
  8
0
  6
Continuous
 62
     7
370
    25
100
AcDbCircle
 10
206.5788936583
 20
221.2916591281
 30
0.0
 40
0.4000000000000118
100
AcDbArc
 50
164.3647845033
 51
254.3647845033
  0
LINE
  5
12A
330
1F
100
AcDbEntity
  8
0
  6
Continuous
 62
     7
370
    25
100
AcDbLine
 10
211.4786738746
 20
219.5049991628
 30
0.0
 11
206.4710889563
 21
220.9064602882
 31
0.0
  0
ARC
  5
12B
330
1F
100
AcDbEntity
  8
0
  6
Continuous
 62
     7
370
    25
100
AcDbCircle
 10
211.5864785766
 20
219.8901980026
 30
0.0
 40
0.4000000000000118
100
AcDbArc
 50
254.3647845033
 51
344.3647845033
  0
ARC
  5
12C
330
1F
100
AcDbEntity
  8
0
  6
Continuous
 62
     7
370
    25
100
AcDbCircle
 10
218.2164677469
 20
243.5799266546
 30
0.0
 40
0.4000000000000118
100
AcDbArc
 50
344.3647845033
 51
74.3647845033
  0
LINE
  5
12D
330
1F
100
AcDbEntity
  8
0
  6
Continuous
 62
     7
370
    25
100
AcDbLine
 10
205.9164416772
 20
219.696970154
 30
0.0
 11
210.24586264
 21
216.8166725778
 31
0.0
  0
ARC
  5
12E
330
1F
100
AcDbEntity
  8
0
  6
Continuous
 62
     7
370
    25
100
AcDbCircle
 10
205.6948803252
 20
219.3639377722
 30
0.0
 40
0.4000000000000297
100
AcDbArc
 50
56.3647845033
 51
146.3647845033
  0
LINE
  5
12F
330
1F
100
AcDbEntity
  8
0
  6
Continuous
 62
     7
370
    25
100
AcDbLine
 10
191.7358247945
 20
199.1040076467
 30
0.0
 11
205.3618479435
 21
219.5854991243
 31
0.0
  0
ARC
  5
130
330
1F
100
AcDbEntity
  8
0
  6
Continuous
 62
     7
370
    25
100
AcDbCircle
 10
192.0688571763
 20
198.8824462947
 30
0.0
 40
0.4000000000000297
100
AcDbArc
 50
146.3647845033
 51
236.3647845033
  0
LINE
  5
131
330
1F
100
AcDbEntity
  8
0
  6
Continuous
 62
     7
370
    25
100
AcDbLine
 10
196.176716787
 20
195.6691163368
 30
0.0
 11
191.8472958242
 21
198.549413913
 31
0.0
  0
ARC
  5
132
330
1F
100
AcDbEntity
  8
0
  6
Continuous
 62
     7
370
    25
100
AcDbCircle
 10
196.398278139
 20
196.0021487185
 30
0.0
 40
0.400000000000014
100
AcDbArc
 50
236.3647845033
 51
326.3647845033
  0
ARC
  5
133
330
1F
100
AcDbEntity
  8
0
  6
Continuous
 62
     7
370
    25
100
AcDbCircle
 10
210.0243012879
 20
216.483640196
 30
0.0
 40
0.4000000000000297
100
AcDbArc
 50
326.3647845033
 51
56.3647845033
  0
LINE
  5
134
330
1F
100
AcDbEntity
  8
0
  6
Continuous
 62
     7
370
    25
100
AcDbLine
 10
190.9460419092
 20
197.5705158746
 30
0.0
 11
194.1735050277
 21
193.4933254425
 31
0.0
  0
ARC
  5
135
330
1F
100
AcDbEntity
  8
0
  6
Continuous
 62
     7
370
    25
100
AcDbCircle
 10
190.632411876
 20
197.3222494808
 30
0.0
 40
0.4000000000000131
100
AcDbArc
 50
38.3647845033
 51
128.3647845033
  0
LINE
  5
136
330
1F
100
AcDbEntity
  8
0
  6
Continuous
 62
     7
370
    25
100
AcDbLine
 10
171.0958984386
 20
182.3674962997
 30
0.0
 11
190.3841454823
 21
197.6358795141
 31
0.0
  0
ARC
  5
137
330
1F
100
AcDbEntity
  8
0
  6
Continuous
 62
     7
370
    25
100
AcDbCircle
 10
171.3441648323
 20
182.0538662665
 30
0.0
 40
0.3999999999999955
100
AcDbArc
 50
128.3647845033
 51
218.3647845033
  0
LINE
  5
138
330
1F
100
AcDbEntity
  8
0
  6
Continuous
 62
     7
370
    25
100
AcDbLine
 10
174.2579979175
 20
177.7284094407
 30
0.0
 11
171.0305347991
 21
181.8055998727
 31
0.0
  0
ARC
  5
139
330
1F
100
AcDbEntity
  8
0
  6
Continuous
 62
     7
370
    25
100
AcDbCircle
 10
174.5716279508
 20
177.9766758344
 30
0.0
 40
0.4000000000000131
100
AcDbArc
 50
218.3647845033
 51
308.3647845033
  0
ARC
  5
13A
330
1F
100
AcDbEntity
  8
0
  6
Continuous
 62
     7
370
    25
100
AcDbCircle
 10
193.8598749945
 20
193.2450590488
 30
0.0
 40
0.4000000000000354
100
AcDbArc
 50
308.3647845033
 51
38.3647845033
  0
LINE
  5
13B
330
1F
100
AcDbEntity
  8
0
  6
Continuous
 62
     7
370
    25
100
AcDbLine
 10
169.8708952607
 20
181.1531152905
 30
0.0
 11
171.6804739579
 21
176.2781358096
 31
0.0
  0
ARC
  5
13C
330
1F
100
AcDbEntity
  8
0
  6
Continuous
 62
     7
370
    25
100
AcDbCircle
 10
169.4958968391
 20
181.0139169292
 30
0.0
 40
0.4000000000000032
100
AcDbArc
 50
20.3647845033
 51
110.3647845033
  0
LINE
  5
13D
330
1F
100
AcDbEntity
  8
0
  6
Continuous
 62
     7
370
    25
100
AcDbLine
 10
146.2942955491
 20
172.8282161297
 30
0.0
 11
169.3566984778
 21
181.3889153508
 31
0.0
  0
ARC
  5
13E
330
1F
100
AcDbEntity
  8
0
  6
Continuous
 62
     7
370
    25
100
AcDbCircle
 10
146.4334939104
 20
172.4532177081
 30
0.0
 40
0.4000000000000032
100
AcDbArc
 50
110.3647845033
 51
200.3647845033
  0
LINE
  5
13F
330
1F
100
AcDbEntity
  8
0
  6
Continuous
 62
     7
370
    25
100
AcDbLine
 10
147.868074186
 20
167.4390398659
 30
0.0
 11
146.0584954888
 21
172.3140193467
 31
0.0
  0
ARC
  5
140
330
1F
100
AcDbEntity
  8
0
  6
Continuous
 62
     7
370
    25
100
AcDbCircle
 10
148.2430726076
 20
167.5782382272
 30
0.0
 40
0.4000000000000032
100
AcDbArc
 50
200.3647845033
 51
290.3647845033
  0
ARC
  5
141
330
1F
100
AcDbEntity
  8
0
  6
Continuous
 62
     7
370
    25
100
AcDbCircle
 10
171.3054755363
 20
176.1389374483
 30
0.0
 40
0.4000000000000032
100
AcDbArc
 50
290.3647845033
 51
20.3647845033
  0
LINE
  5
142
330
1F
100
AcDbEntity
  8
0
  6
Continuous
 62
     7
370
    25
100
AcDbLine
 10
144.7539839248
 20
172.0518179577
 30
0.0
 11
144.9685440297
 21
166.8562463856
 31
0.0
  0
ARC
  5
143
330
1F
100
AcDbEntity
  8
0
  6
Continuous
 62
     7
370
    25
100
AcDbCircle
 10
144.3543245731
 20
172.0353133343
 30
0.0
 40
0.4000000000000207
100
AcDbArc
 50
2.3647845033
 51
92.3647845033
  0
LINE
  5
144
330
1F
100
AcDbEntity
  8
0
  6
Continuous
 62
     7
370
    25
100
AcDbLine
 10
119.7587698199
 20
171.4199383438
 30
0.0
 11
144.3378199497
 21
172.434972686
 31
0.0
  0
ARC
  5
145
330
1F
100
AcDbEntity
  8
0
  6
Continuous
 62
     7
370
    25
100
AcDbCircle
 10
119.7752744433
 20
171.0202789921
 30
0.0
 40
0.4000000000000065
100
AcDbArc
 50
92.3647845033
 51
182.3647845033
  0
LINE
  5
146
330
1F
100
AcDbEntity
  8
0
  6
Continuous
 62
     7
370
    25
100
AcDbLine
 10
119.5901751965
 20
165.8082027965
 30
0.0
 11
119.3756150916
 21
171.0037743686
 31
0.0
  0
ARC
  5
147
330
1F
100
AcDbEntity
  8
0
  6
Continuous
 62
     7
370
    25
100
AcDbCircle
 10
119.9898345482
 20
165.8247074199
 30
0.0
 40
0.4000000000000213
100
AcDbArc
 50
182.3647845033
 51
272.3647845033
  0
ARC
  5
148
330
1F
100
AcDbEntity
  8
0
  6
Continuous
 62
     7
370
    25
100
AcDbCircle
 10
144.568884678
 20
166.8397417621
 30
0.0
 40
0.4000000000000207
100
AcDbArc
 50
272.3647845033
 51
2.3647845033
  0
LINE
  5
149
330
1F
100
AcDbEntity
  8
0
  6
Continuous
 62
     7
370
    25
100
AcDbLine
 10
118.053926183
 20
171.1575222716
 30
0.0
 11
116.6524650575
 21
166.1499373534
 31
0.0
  0
ARC
  5
14A
330
1F
100
AcDbEntity
  8
0
  6
Continuous
 62
     7
370
    25
100
AcDbCircle
 10
117.6687273431
 20
171.2653269736
 30
0.0
 40
0.4000000000000118
100
AcDbArc
 50
344.3647845033
 51
74.3647845033
  0
LINE
  5
14B
330
1F
100
AcDbEntity
  8
0
  6
Continuous
 62
     7
370
    25
100
AcDbLine
 10
94.0868033931
 20
178.2805149838
 30
0.0
 11
117.776532045
 21
171.6505258135
 31
0.0
  0
ARC
  5
14C
330
1F
100
AcDbEntity
  8
0
  6
Continuous
 62
     7
370
    25
100
AcDbCircle
 10
93.9789986912
 20
177.8953161439
 30
0.0
 40
0.4000000000000194
100
AcDbArc
 50
74.3647845033
 51
164.3647845033
  0
LINE
  5
14D
330
1F
100
AcDbEntity
  8
0
  6
Continuous
 62
     7
370
    25
100
AcDbLine
 10
92.1923387259
 20
172.9955359276
 30
0.0
 11
93.5937998513
 21
178.0031208459
 31
0.0
  0
ARC
  5
14E
330
1F
100
AcDbEntity
  8
0
  6
Continuous
 62
     7
370
    25
100
AcDbCircle
 10
92.5775375657
 20
172.8877312256
 30
0.0
 40
0.4000000000000118
100
AcDbArc
 50
164.3647845033
 51
254.3647845033
  0
ARC
  5
14F
330
1F
100
AcDbEntity
  8
0
  6
Continuous
 62
     7
370
    25
100
AcDbCircle
 10
116.2672662177
 20
166.2577420553
 30
0.0
 40
0.4000000000000156
100
AcDbArc
 50
254.3647845033
 51
344.3647845033
  0
SPLINE
  5
150
330
1F
100
AcDbEntity
  8
0
  6
Continuous
 62
     7
370
    25
100
AcDbSpline
210
0.0
220
0.0
230
1.0
 70
     8
 71
     5
 72
    13
 73
     7
 74
     0
 42
0.00000001
 43
0.00000001
 40
0.0
 40
0.0
 40
0.0
 40
0.0
 40
0.0
 40
0.0
 40
0.5
 40
1.0
 40
1.0
 40
1.0
 40
1.0
 40
1.0
 40
1.0
 10
106.6298128683253
 20
308.8877448387895
 30
0.0
 10
107.2737654929147
 20
309.1499177914383
 30
0.0
 10
111.6134315030497
 20
307.6253120197576
 30
0.0
 10
115.2876661172245
 20
305.503991676198
 30
0.0
 10
117.4089864607841
 20
309.1782262903727
 30
0.0
 10
120.4049445836605
 20
312.668406624472
 30
0.0
 10
121.093710391713
 20
312.7633344995877
 30
0.0
  0
SPLINE
  5
151
330
1F
100
AcDbEntity
  8
0
  6
Continuous
 62
     7
370
    25
100
AcDbSpline
210
0.0
220
0.0
230
1.0
 70
     8
 71
     5
 72
    13
 73
     7
 74
     0
 42
0.00000001
 43
0.00000001
 40
0.0
 40
0.0
 40
0.0
 40
0.0
 40
0.0
 40
0.0
 40
0.5
 40
1.0
 40
1.0
 40
1.0
 40
1.0
 40
1.0
 40
1.0
 10
121.093710391713
 20
312.7633344995877
 30
0.0
 10
121.7835762159667
 20
312.8499069221182
 30
0.0
 10
125.5807746826408
 20
310.2540626195354
 30
0.0
 10
128.5807746826408
 20
307.2540626195355
 30
0.0
 10
131.5807746826408
 20
310.2540626195354
 30
0.0
 10
135.3779731493148
 20
312.8499069221182
 30
0.0
 10
136.0678389735685
 20
312.7633344995877
 30
0.0
  0
SPLINE
  5
152
330
1F
100
AcDbEntity
  8
0
  6
Continuous
 62
     7
370
    25
100
AcDbSpline
210
0.0
220
0.0
230
1.0
 70
     8
 71
     5
 72
    13
 73
     7
 74
     0
 42
0.00000001
 43
0.00000001
 40
0.0
 40
0.0
 40
0.0
 40
0.0
 40
0.0
 40
0.0
 40
0.5
 40
1.0
 40
1.0
 40
1.0
 40
1.0
 40
1.0
 40
1.0
 10
136.0678389735678
 20
312.7633344995878
 30
0.0
 10
136.7566047816202
 20
312.6684066244721
 30
0.0
 10
139.7525629044967
 20
309.1782262903729
 30
0.0
 10
141.8738832480564
 20
305.5039916761982
 30
0.0
 10
145.5481178622311
 20
307.6253120197579
 30
0.0
 10
149.8877838723661
 20
309.1499177914386
 30
0.0
 10
150.5317364969554
 20
308.8877448387898
 30
0.0
  0
SPLINE
  5
153
330
1F
100
AcDbEntity
  8
0
  6
Continuous
 62
     7
370
    25
100
AcDbSpline
210
0.0
220
0.0
230
1.0
 70
     8
 71
     5
 72
    13
 73
     7
 74
     0
 42
0.00000001
 43
0.00000001
 40
0.0
 40
0.0
 40
0.0
 40
0.0
 40
0.0
 40
0.0
 40
0.5
 40
1.0
 40
1.0
 40
1.0
 40
1.0
 40
1.0
 40
1.0
 10
150.5317364969555
 20
308.8877448387898
 30
0.0
 10
151.1724640372271
 20
308.6177858438414
 30
0.0
 10
153.1630122212868
 20
304.4711195001987
 30
0.0
 10
154.2610884326402
 20
300.3730432888454
 30
0.0
 10
158.3591646439935
 20
301.4711195001988
 30
0.0
 10
162.9455571306359
 20
301.8205873771676
 30
0.0
 10
163.4997122483771
 20
301.4006805478622
 30
0.0
  0
SPLINE
  5
154
330
1F
100
AcDbEntity
  8
0
  6
Continuous
 62
     7
370
    25
100
AcDbSpline
210
0.0
220
0.0
230
1.0
 70
     8
 71
     5
 72
    13
 73
     7
 74
     0
 42
0.00000001
 43
0.00000001
 40
0.0
 40
0.0
 40
0.0
 40
0.0
 40
0.0
 40
0.0
 40
0.5
 40
1.0
 40
1.0
 40
1.0
 40
1.0
 40
1.0
 40
1.0
 10
163.4997122483771
 20
301.4006805478622
 30
0.0
 10
164.0487369978508
 20
300.9740876924585
 30
0.0
 10
164.8982226738866
 20
296.4535237979015
 30
0.0
 10
164.8982226738866
 20
292.2108831107822
 30
0.0
 10
169.1408633610059
 20
292.2108831107822
 30
0.0
 10
173.661427255563
 20
291.3613974347466
 30
0.0
 10
174.0880201109666
 20
290.8123726852729
 30
0.0
  0
SPLINE
  5
155
330
1F
100
AcDbEntity
  8
0
  6
Continuous
 62
     7
370
    25
100
AcDbSpline
210
0.0
220
0.0
230
1.0
 70
     8
 71
     5
 72
    13
 73
     7
 74
     0
 42
0.00000001
 43
0.00000001
 40
0.0
 40
0.0
 40
0.0
 40
0.0
 40
0.0
 40
0.0
 40
0.5
 40
1.0
 40
1.0
 40
1.0
 40
1.0
 40
1.0
 40
1.0
 10
174.0880201109666
 20
290.8123726852729
 30
0.0
 10
174.5079269402721
 20
290.2582175675317
 30
0.0
 10
174.1584590633034
 20
285.6718250808893
 30
0.0
 10
173.0603828519501
 20
281.573748869536
 30
0.0
 10
177.1584590633034
 20
280.4756726581827
 30
0.0
 10
181.3051254069462
 20
278.485124474123
 30
0.0
 10
181.5750844018946
 20
277.8443969338514
 30
0.0
  0
SPLINE
  5
156
330
1F
100
AcDbEntity
  8
0
  6
Continuous
 62
     7
370
    25
100
AcDbSpline
210
0.0
220
0.0
230
1.0
 70
     8
 71
     5
 72
    13
 73
     7
 74
     0
 42
0.00000001
 43
0.00000001
 40
0.0
 40
0.0
 40
0.0
 40
0.0
 40
0.0
 40
0.0
 40
0.5
 40
1.0
 40
1.0
 40
1.0
 40
1.0
 40
1.0
 40
1.0
 10
181.5750844018946
 20
277.8443969338514
 30
0.0
 10
181.8372573545434
 20
277.200444309262
 30
0.0
 10
180.3126515828627
 20
272.860778299127
 30
0.0
 10
178.1913312393032
 20
269.1865436849523
 30
0.0
 10
181.865565853478
 20
267.0652233413927
 30
0.0
 10
185.3557461875773
 20
264.0692652185163
 30
0.0
 10
185.450674062693
 20
263.3804994104638
 30
0.0
  0
SPLINE
  5
157
330
1F
100
AcDbEntity
  8
0
  6
Continuous
 62
     7
370
    25
100
AcDbSpline
210
0.0
220
0.0
230
1.0
 70
     8
 71
     5
 72
    13
 73
     7
 74
     0
 42
0.00000001
 43
0.00000001
 40
0.0
 40
0.0
 40
0.0
 40
0.0
 40
0.0
 40
0.0
 40
0.5
 40
1.0
 40
1.0
 40
1.0
 40
1.0
 40
1.0
 40
1.0
 10
185.450674062693
 20
263.3804994104638
 30
0.0
 10
185.5372464852234
 20
262.69063358621
 30
0.0
 10
182.9414021826407
 20
258.893435119536
 30
0.0
 10
179.9414021826408
 20
255.893435119536
 30
0.0
 10
182.9414021826408
 20
252.893435119536
 30
0.0
 10
185.5372464852236
 20
249.096236652862
 30
0.0
 10
185.4506740626931
 20
248.4063708286083
 30
0.0
  0
SPLINE
  5
158
330
1F
100
AcDbEntity
  8
0
  6
Continuous
 62
     7
370
    25
100
AcDbSpline
210
0.0
220
0.0
230
1.0
 70
     8
 71
     5
 72
    13
 73
     7
 74
     0
 42
0.00000001
 43
0.00000001
 40
0.0
 40
0.0
 40
0.0
 40
0.0
 40
0.0
 40
0.0
 40
0.5
 40
1.0
 40
1.0
 40
1.0
 40
1.0
 40
1.0
 40
1.0
 10
185.4506740626931
 20
248.4063708286082
 30
0.0
 10
185.3557461875775
 20
247.7176050205558
 30
0.0
 10
181.8655658534782
 20
244.7216468976793
 30
0.0
 10
178.1913312393035
 20
242.6003265541196
 30
0.0
 10
180.3126515828631
 20
238.9260919399449
 30
0.0
 10
181.8372573545438
 20
234.5864259298099
 30
0.0
 10
181.5750844018951
 20
233.9424733052206
 30
0.0
  0
SPLINE
  5
159
330
1F
100
AcDbEntity
  8
0
  6
Continuous
 62
     7
370
    25
100
AcDbSpline
210
0.0
220
0.0
230
1.0
 70
     8
 71
     5
 72
    13
 73
     7
 74
     0
 42
0.00000001
 43
0.00000001
 40
0.0
 40
0.0
 40
0.0
 40
0.0
 40
0.0
 40
0.0
 40
0.5
 40
1.0
 40
1.0
 40
1.0
 40
1.0
 40
1.0
 40
1.0
 10
181.5750844018951
 20
233.9424733052206
 30
0.0
 10
181.3051254069467
 20
233.3017457649489
 30
0.0
 10
177.1584590633039
 20
231.3111975808892
 30
0.0
 10
173.0603828519506
 20
230.2131213695358
 30
0.0
 10
174.158459063304
 20
226.1150451581825
 30
0.0
 10
174.5079269402728
 20
221.5286526715402
 30
0.0
 10
174.0880201109674
 20
220.974497553799
 30
0.0
  0
SPLINE
  5
15A
330
1F
100
AcDbEntity
  8
0
  6
Continuous
 62
     7
370
    25
100
AcDbSpline
210
0.0
220
0.0
230
1.0
 70
     8
 71
     5
 72
    13
 73
     7
 74
     0
 42
0.00000001
 43
0.00000001
 40
0.0
 40
0.0
 40
0.0
 40
0.0
 40
0.0
 40
0.0
 40
0.5
 40
1.0
 40
1.0
 40
1.0
 40
1.0
 40
1.0
 40
1.0
 10
174.0880201109674
 20
220.9744975537989
 30
0.0
 10
173.6614272555637
 20
220.4254728043252
 30
0.0
 10
169.1408633610066
 20
219.5759871282895
 30
0.0
 10
164.8982226738873
 20
219.5759871282895
 30
0.0
 10
164.8982226738874
 20
215.3333464411702
 30
0.0
 10
164.0487369978518
 20
210.8127825466131
 30
0.0
 10
163.499712248378
 20
210.3861896912094
 30
0.0
  0
SPLINE
  5
15B
330
1F
100
AcDbEntity
  8
0
  6
Continuous
 62
     7
370
    25
100
AcDbSpline
210
0.0
220
0.0
230
1.0
 70
     8
 71
     5
 72
    13
 73
     7
 74
     0
 42
0.00000001
 43
0.00000001
 40
0.0
 40
0.0
 40
0.0
 40
0.0
 40
0.0
 40
0.0
 40
0.5
 40
1.0
 40
1.0
 40
1.0
 40
1.0
 40
1.0
 40
1.0
 10
163.499712248378
 20
210.3861896912094
 30
0.0
 10
162.9455571306368
 20
209.966282861904
 30
0.0
 10
158.3591646439944
 20
210.3157507388727
 30
0.0
 10
154.2610884326411
 20
211.413826950226
 30
0.0
 10
153.1630122212878
 20
207.3157507388727
 30
0.0
 10
151.1724640372282
 20
203.1690843952299
 30
0.0
 10
150.5317364969566
 20
202.8991254002815
 30
0.0
  0
SPLINE
  5
15C
330
1F
100
AcDbEntity
  8
0
  6
Continuous
 62
     7
370
    25
100
AcDbSpline
210
0.0
220
0.0
230
1.0
 70
     8
 71
     5
 72
    13
 73
     7
 74
     0
 42
0.00000001
 43
0.00000001
 40
0.0
 40
0.0
 40
0.0
 40
0.0
 40
0.0
 40
0.0
 40
0.5
 40
1.0
 40
1.0
 40
1.0
 40
1.0
 40
1.0
 40
1.0
 10
150.5317364969565
 20
202.8991254002815
 30
0.0
 10
149.8877838723672
 20
202.6369524476328
 30
0.0
 10
145.5481178622322
 20
204.1615582193134
 30
0.0
 10
141.8738832480574
 20
206.282878562873
 30
0.0
 10
139.7525629044978
 20
202.6086439486982
 30
0.0
 10
136.7566047816214
 20
199.1184636145989
 30
0.0
 10
136.0678389735689
 20
199.0235357394832
 30
0.0
  0
SPLINE
  5
15D
330
1F
100
AcDbEntity
  8
0
  6
Continuous
 62
     7
370
    25
100
AcDbSpline
210
0.0
220
0.0
230
1.0
 70
     8
 71
     5
 72
    13
 73
     7
 74
     0
 42
0.00000001
 43
0.00000001
 40
0.0
 40
0.0
 40
0.0
 40
0.0
 40
0.0
 40
0.0
 40
0.5
 40
1.0
 40
1.0
 40
1.0
 40
1.0
 40
1.0
 40
1.0
 10
136.0678389735685
 20
199.0235357394832
 30
0.0
 10
135.3779731493148
 20
198.9369633169527
 30
0.0
 10
131.5807746826408
 20
201.5328076195354
 30
0.0
 10
128.5807746826408
 20
204.5328076195354
 30
0.0
 10
125.5807746826408
 20
201.5328076195354
 30
0.0
 10
121.7835762159667
 20
198.9369633169527
 30
0.0
 10
121.093710391713
 20
199.0235357394832
 30
0.0
  0
SPLINE
  5
15E
330
1F
100
AcDbEntity
  8
0
  6
Continuous
 62
     7
370
    25
100
AcDbSpline
210
0.0
220
0.0
230
1.0
 70
     8
 71
     5
 72
    13
 73
     7
 74
     0
 42
0.00000001
 43
0.00000001
 40
0.0
 40
0.0
 40
0.0
 40
0.0
 40
0.0
 40
0.0
 40
0.5
 40
1.0
 40
1.0
 40
1.0
 40
1.0
 40
1.0
 40
1.0
 10
121.0937103917133
 20
199.0235357394831
 30
0.0
 10
120.4049445836609
 20
199.1184636145988
 30
0.0
 10
117.4089864607845
 20
202.608643948698
 30
0.0
 10
115.2876661172248
 20
206.2828785628728
 30
0.0
 10
111.6134315030501
 20
204.1615582193132
 30
0.0
 10
107.2737654929151
 20
202.6369524476324
 30
0.0
 10
106.6298128683257
 20
202.8991254002812
 30
0.0
  0
SPLINE
  5
15F
330
1F
100
AcDbEntity
  8
0
  6
Continuous
 62
     7
370
    25
100
AcDbSpline
210
0.0
220
0.0
230
1.0
 70
     8
 71
     5
 72
    13
 73
     7
 74
     0
 42
0.00000001
 43
0.00000001
 40
0.0
 40
0.0
 40
0.0
 40
0.0
 40
0.0
 40
0.0
 40
0.5
 40
1.0
 40
1.0
 40
1.0
 40
1.0
 40
1.0
 40
1.0
 10
106.6298128683257
 20
202.8991254002812
 30
0.0
 10
105.989085328054
 20
203.1690843952296
 30
0.0
 10
103.9985371439943
 20
207.3157507388723
 30
0.0
 10
102.900460932641
 20
211.4138269502257
 30
0.0
 10
98.80238472128771
 20
210.3157507388723
 30
0.0
 10
94.21599223464531
 20
209.9662828619036
 30
0.0
 10
93.6618371169041
 20
210.386189691209
 30
0.0
  0
SPLINE
  5
160
330
1F
100
AcDbEntity
  8
0
  6
Continuous
 62
     7
370
    25
100
AcDbSpline
210
0.0
220
0.0
230
1.0
 70
     8
 71
     5
 72
    13
 73
     7
 74
     0
 42
0.00000001
 43
0.00000001
 40
0.0
 40
0.0
 40
0.0
 40
0.0
 40
0.0
 40
0.0
 40
0.5
 40
1.0
 40
1.0
 40
1.0
 40
1.0
 40
1.0
 40
1.0
 10
93.66183711690408
 20
210.386189691209
 30
0.0
 10
93.11281236743037
 20
210.8127825466126
 30
0.0
 10
92.2633266913947
 20
215.3333464411697
 30
0.0
 10
92.26332669139467
 20
219.575987128289
 30
0.0
 10
88.02068600427539
 20
219.575987128289
 30
0.0
 10
83.5001221097183
 20
220.4254728043246
 30
0.0
 10
83.07352925431465
 20
220.9744975537983
 30
0.0
  0
SPLINE
  5
161
330
1F
100
AcDbEntity
  8
0
  6
Continuous
 62
     7
370
    25
100
AcDbSpline
210
0.0
220
0.0
230
1.0
 70
     8
 71
     5
 72
    13
 73
     7
 74
     0
 42
0.00000001
 43
0.00000001
 40
0.0
 40
0.0
 40
0.0
 40
0.0
 40
0.0
 40
0.0
 40
0.5
 40
1.0
 40
1.0
 40
1.0
 40
1.0
 40
1.0
 40
1.0
 10
83.07352925431464
 20
220.9744975537983
 30
0.0
 10
82.65362242500922
 20
221.5286526715395
 30
0.0
 10
83.00309030197792
 20
226.1150451581819
 30
0.0
 10
84.10116651333122
 20
230.2131213695352
 30
0.0
 10
80.0030903019779
 20
231.3111975808885
 30
0.0
 10
75.85642395833514
 20
233.3017457649482
 30
0.0
 10
75.58646496338677
 20
233.9424733052198
 30
0.0
  0
SPLINE
  5
162
330
1F
100
AcDbEntity
  8
0
  6
Continuous
 62
     7
370
    25
100
AcDbSpline
210
0.0
220
0.0
230
1.0
 70
     8
 71
     5
 72
    13
 73
     7
 74
     0
 42
0.00000001
 43
0.00000001
 40
0.0
 40
0.0
 40
0.0
 40
0.0
 40
0.0
 40
0.0
 40
0.5
 40
1.0
 40
1.0
 40
1.0
 40
1.0
 40
1.0
 40
1.0
 10
75.58646496338677
 20
233.9424733052198
 30
0.0
 10
75.32429201073798
 20
234.5864259298092
 30
0.0
 10
76.84889778241863
 20
238.9260919399442
 30
0.0
 10
78.97021812597825
 20
242.600326554119
 30
0.0
 10
75.29598351180347
 20
244.7216468976786
 30
0.0
 10
71.80580317770415
 20
247.717605020555
 30
0.0
 10
71.71087530258849
 20
248.4063708286074
 30
0.0
  0
SPLINE
  5
163
330
1F
100
AcDbEntity
  8
0
  6
Continuous
 62
     7
370
    25
100
AcDbSpline
210
0.0
220
0.0
230
1.0
 70
     8
 71
     5
 72
    13
 73
     7
 74
     0
 42
0.00000001
 43
0.00000001
 40
0.0
 40
0.0
 40
0.0
 40
0.0
 40
0.0
 40
0.0
 40
0.5
 40
1.0
 40
1.0
 40
1.0
 40
1.0
 40
1.0
 40
1.0
 10
71.71087530258849
 20
248.4063708286074
 30
0.0
 10
71.62430288005805
 20
249.0962366528612
 30
0.0
 10
74.22014718264077
 20
252.8934351195353
 30
0.0
 10
77.22014718264076
 20
255.8934351195353
 30
0.0
 10
74.22014718264074
 20
258.8934351195353
 30
0.0
 10
71.624302880058
 20
262.6906335862092
 30
0.0
 10
71.71087530258843
 20
263.380499410463
 30
0.0
  0
SPLINE
  5
164
330
1F
100
AcDbEntity
  8
0
  6
Continuous
 62
     7
370
    25
100
AcDbSpline
210
0.0
220
0.0
230
1.0
 70
     8
 71
     5
 72
    13
 73
     7
 74
     0
 42
0.00000001
 43
0.00000001
 40
0.0
 40
0.0
 40
0.0
 40
0.0
 40
0.0
 40
0.0
 40
0.5
 40
1.0
 40
1.0
 40
1.0
 40
1.0
 40
1.0
 40
1.0
 10
71.71087530258843
 20
263.380499410463
 30
0.0
 10
71.8058031777041
 20
264.0692652185155
 30
0.0
 10
75.29598351180341
 20
267.0652233413919
 30
0.0
 10
78.97021812597816
 20
269.1865436849516
 30
0.0
 10
76.84889778241852
 20
272.8607782991263
 30
0.0
 10
75.32429201073784
 20
277.2004443092613
 30
0.0
 10
75.58646496338662
 20
277.8443969338506
 30
0.0
  0
SPLINE
  5
165
330
1F
100
AcDbEntity
  8
0
  6
Continuous
 62
     7
370
    25
100
AcDbSpline
210
0.0
220
0.0
230
1.0
 70
     8
 71
     5
 72
    13
 73
     7
 74
     0
 42
0.00000001
 43
0.00000001
 40
0.0
 40
0.0
 40
0.0
 40
0.0
 40
0.0
 40
0.0
 40
0.5
 40
1.0
 40
1.0
 40
1.0
 40
1.0
 40
1.0
 40
1.0
 10
75.58646496338665
 20
277.8443969338506
 30
0.0
 10
75.85642395833499
 20
278.4851244741223
 30
0.0
 10
80.00309030197775
 20
280.475672658182
 30
0.0
 10
84.10116651333105
 20
281.5737488695353
 30
0.0
 10
83.00309030197772
 20
285.6718250808887
 30
0.0
 10
82.65362242500898
 20
290.2582175675311
 30
0.0
 10
83.07352925431438
 20
290.8123726852723
 30
0.0
  0
SPLINE
  5
166
330
1F
100
AcDbEntity
  8
0
  6
Continuous
 62
     7
370
    25
100
AcDbSpline
210
0.0
220
0.0
230
1.0
 70
     8
 71
     5
 72
    13
 73
     7
 74
     0
 42
0.00000001
 43
0.00000001
 40
0.0
 40
0.0
 40
0.0
 40
0.0
 40
0.0
 40
0.0
 40
0.5
 40
1.0
 40
1.0
 40
1.0
 40
1.0
 40
1.0
 40
1.0
 10
83.0735292543144
 20
290.8123726852723
 30
0.0
 10
83.50012210971806
 20
291.361397434746
 30
0.0
 10
88.02068600427513
 20
292.2108831107817
 30
0.0
 10
92.26332669139443
 20
292.2108831107817
 30
0.0
 10
92.26332669139443
 20
296.453523797901
 30
0.0
 10
93.11281236743007
 20
300.9740876924581
 30
0.0
 10
93.66183711690377
 20
301.4006805478617
 30
0.0
  0
SPLINE
  5
167
330
1F
100
AcDbEntity
  8
0
  6
Continuous
 62
     7
370
    25
100
AcDbSpline
210
0.0
220
0.0
230
1.0
 70
     8
 71
     5
 72
    13
 73
     7
 74
     0
 42
0.00000001
 43
0.00000001
 40
0.0
 40
0.0
 40
0.0
 40
0.0
 40
0.0
 40
0.0
 40
0.5
 40
1.0
 40
1.0
 40
1.0
 40
1.0
 40
1.0
 40
1.0
 10
93.66183711690378
 20
301.4006805478617
 30
0.0
 10
94.215992234645
 20
301.8205873771671
 30
0.0
 10
98.8023847212874
 20
301.4711195001983
 30
0.0
 10
102.9004609326407
 20
300.3730432888451
 30
0.0
 10
103.998537143994
 20
304.4711195001984
 30
0.0
 10
105.9890853280537
 20
308.6177858438411
 30
0.0
 10
106.6298128683253
 20
308.8877448387895
 30
0.0
  0
ARC
  5
168
330
1F
100
AcDbEntity
  8
0
  6
Continuous
 62
     7
370
    25
100
AcDbCircle
 10
128.5807746826
 20
255.8934351195
 30
0.0
 40
66.00000000000004
100
AcDbArc
 50
93.7526793014
 51
101.2473206986
  0
LINE
  5
169
330
1F
100
AcDbEntity
  8
0
  6
Continuous
 62
     7
370
    25
100
AcDbLine
 10
115.7078404742
 20
320.6258656692
 30
0.0
 11
112.3665099669
 21
333.0958808874
 31
0.0
  0
LINE
  5
16A
330
1F
100
AcDbEntity
  8
0
  6
Continuous
 62
     7
370
    25
100
AcDbLine
 10
116.8217334628
 20
337.5511043833
 30
0.0
 11
112.3665099669
 21
333.0958808874
 31
0.0
  0
ARC
  5
16B
330
1F
100
AcDbEntity
  8
0
  6
Continuous
 62
     7
370
    25
100
AcDbCircle
 10
128.5807746826
 20
255.8934351195
 30
0.0
 40
82.49999999999999
100
AcDbArc
 50
98.1944948837
 51
111.8055051163
  0
LINE
  5
16C
330
1F
100
AcDbEntity
  8
0
  6
Continuous
 62
     7
370
    25
100
AcDbLine
 10
97.9355684712
 20
332.4905717257
 30
0.0
 11
104.0215169462
 21
330.8598467466
 31
0.0
  0
LINE
  5
16D
330
1F
100
AcDbEntity
  8
0
  6
Continuous
 62
     7
370
    25
100
AcDbLine
 10
107.3628474535
 20
318.3898315285
 30
0.0
 11
104.0215169462
 21
330.8598467466
 31
0.0
  0
ARC
  5
16E
330
1F
100
AcDbEntity
  8
0
  6
Continuous
 62
     7
370
    25
100
AcDbCircle
 10
128.5807746826
 20
255.8934351195
 30
0.0
 40
66.00000000000001
100
AcDbArc
 50
108.7526793014
 51
116.2473206986
  0
LINE
  5
16F
330
1F
100
AcDbEntity
  8
0
  6
Continuous
 62
     7
370
    25
100
AcDbLine
 10
99.3924892086
 20
315.0884010464
 30
0.0
 11
92.9375343462
 21
326.2687108286
 31
0.0
  0
LINE
  5
170
330
1F
100
AcDbEntity
  8
0
  6
Continuous
 62
     7
370
    25
100
AcDbLine
 10
96.0878530919
 20
331.7252229562
 30
0.0
 11
92.9375343462
 21
326.2687108286
 31
0.0
  0
ARC
  5
171
330
1F
100
AcDbEntity
  8
0
  6
Continuous
 62
     7
370
    25
100
AcDbCircle
 10
128.5807746826
 20
255.8934351195
 30
0.0
 40
82.5
100
AcDbArc
 50
113.1944948837
 51
126.8055051163
  0
LINE
  5
172
330
1F
100
AcDbEntity
  8
0
  6
Continuous
 62
     7
370
    25
100
AcDbLine
 10
79.1549807971
 20
321.9490245786
 30
0.0
 11
85.4556182885
 21
321.9490245786
 31
0.0
  0
LINE
  5
173
330
1F
100
AcDbEntity
  8
0
  6
Continuous
 62
     7
370
    25
100
AcDbLine
 10
91.9105731508
 20
310.7687147964
 30
0.0
 11
85.4556182885
 21
321.9490245786
 31
0.0
  0
ARC
  5
174
330
1F
100
AcDbEntity
  8
0
  6
Continuous
 62
     7
370
    25
100
AcDbCircle
 10
128.5807746826
 20
255.8934351195
 30
0.0
 40
65.99999999999999
100
AcDbArc
 50
123.7526793014
 51
131.2473206986
  0
LINE
  5
175
330
1F
100
AcDbEntity
  8
0
  6
Continuous
 62
     7
370
    25
100
AcDbLine
 10
85.0662713621
 20
305.51689732
 30
0.0
 11
75.9375866512
 21
314.6455820309
 31
0.0
  0
LINE
  5
176
330
1F
100
AcDbEntity
  8
0
  6
Continuous
 62
     7
370
    25
100
AcDbLine
 10
77.5683116303
 20
320.7315305059
 30
0.0
 11
75.9375866512
 21
314.6455820309
 31
0.0
  0
ARC
  5
177
330
1F
100
AcDbEntity
  8
0
  6
Continuous
 62
     7
370
    25
100
AcDbCircle
 10
128.5807746826
 20
255.8934351195
 30
0.0
 40
82.50000000000001
100
AcDbArc
 50
128.1944948837
 51
141.8055051163
  0
LINE
  5
178
330
1F
100
AcDbEntity
  8
0
  6
Continuous
 62
     7
370
    25
100
AcDbLine
 10
63.7426792963
 20
306.9058981719
 30
0.0
 11
69.8286277713
 21
308.536623151
 31
0.0
  0
LINE
  5
179
330
1F
100
AcDbEntity
  8
0
  6
Continuous
 62
     7
370
    25
100
AcDbLine
 10
78.9573124821
 20
299.4079384401
 30
0.0
 11
69.8286277713
 21
308.536623151
 31
0.0
  0
ARC
  5
17A
330
1F
100
AcDbEntity
  8
0
  6
Continuous
 62
     7
370
    25
100
AcDbCircle
 10
128.5807746826
 20
255.8934351195
 30
0.0
 40
66.0
100
AcDbArc
 50
138.7526793014
 51
146.2473206986
  0
LINE
  5
17B
330
1F
100
AcDbEntity
  8
0
  6
Continuous
 62
     7
370
    25
100
AcDbLine
 10
73.7054950058
 20
292.5636366513
 30
0.0
 11
62.5251852236
 21
299.0185915137
 31
0.0
  0
LINE
  5
17C
330
1F
100
AcDbEntity
  8
0
  6
Continuous
 62
     7
370
    25
100
AcDbLine
 10
62.5251852236
 20
305.3192290051
 30
0.0
 11
62.5251852236
 21
299.0185915137
 31
0.0
  0
ARC
  5
17D
330
1F
100
AcDbEntity
  8
0
  6
Continuous
 62
     7
370
    25
100
AcDbCircle
 10
128.5807746826
 20
255.8934351195
 30
0.0
 40
82.5
100
AcDbArc
 50
143.1944948837
 51
156.8055051163
  0
LINE
  5
17E
330
1F
100
AcDbEntity
  8
0
  6
Continuous
 62
     7
370
    25
100
AcDbLine
 10
52.748986846
 20
288.3863567103
 30
0.0
 11
58.2054989736
 21
291.536675456
 31
0.0
  0
LINE
  5
17F
330
1F
100
AcDbEntity
  8
0
  6
Continuous
 62
     7
370
    25
100
AcDbLine
 10
69.3858087558
 20
285.0817205936
 30
0.0
 11
58.2054989736
 21
291.536675456
 31
0.0
  0
ARC
  5
180
330
1F
100
AcDbEntity
  8
0
  6
Continuous
 62
     7
370
    25
100
AcDbCircle
 10
128.5807746826
 20
255.8934351195
 30
0.0
 40
66.00000000000003
100
AcDbArc
 50
153.7526793014
 51
161.2473206986
  0
LINE
  5
181
330
1F
100
AcDbEntity
  8
0
  6
Continuous
 62
     7
370
    25
100
AcDbLine
 10
66.0843782737
 20
277.1113623486
 30
0.0
 11
53.6143630555
 21
280.4526928559
 31
0.0
  0
LINE
  5
182
330
1F
100
AcDbEntity
  8
0
  6
Continuous
 62
     7
370
    25
100
AcDbLine
 10
51.9836380765
 20
286.5386413309
 30
0.0
 11
53.6143630555
 21
280.4526928559
 31
0.0
  0
ARC
  5
183
330
1F
100
AcDbEntity
  8
0
  6
Continuous
 62
     7
370
    25
100
AcDbCircle
 10
128.5807746826
 20
255.8934351195
 30
0.0
 40
82.50000000000001
100
AcDbArc
 50
158.1944948837
 51
171.8055051163
  0
LINE
  5
184
330
1F
100
AcDbEntity
  8
0
  6
Continuous
 62
     7
370
    25
100
AcDbLine
 10
46.9231054189
 20
267.6524763393
 30
0.0
 11
51.3783289148
 21
272.1076998353
 31
0.0
  0
LINE
  5
185
330
1F
100
AcDbEntity
  8
0
  6
Continuous
 62
     7
370
    25
100
AcDbLine
 10
63.848344133
 20
268.7663693279
 30
0.0
 11
51.3783289148
 21
272.1076998353
 31
0.0
  0
ARC
  5
186
330
1F
100
AcDbEntity
  8
0
  6
Continuous
 62
     7
370
    25
100
AcDbCircle
 10
128.5807746826
 20
255.8934351195
 30
0.0
 40
66.00000000000001
100
AcDbArc
 50
168.7526793014
 51
176.2473206986
  0
LINE
  5
187
330
1F
100
AcDbEntity
  8
0
  6
Continuous
 62
     7
370
    25
100
AcDbLine
 10
62.7222876768
 20
260.2131213695
 30
0.0
 11
49.812377952
 21
260.2131213695
 31
0.0
  0
LINE
  5
188
330
1F
100
AcDbEntity
  8
0
  6
Continuous
 62
     7
370
    25
100
AcDbLine
 10
46.6620592064
 20
265.6696334971
 30
0.0
 11
49.812377952
 21
260.2131213695
 31
0.0
  0
ARC
  5
189
330
1F
100
AcDbEntity
  8
0
  6
Continuous
 62
     7
370
    25
100
AcDbCircle
 10
128.5807746826
 20
255.8934351195
 30
0.0
 40
82.50000000000001
100
AcDbArc
 50
173.1944948837
 51
186.8055051163
  0
LINE
  5
18A
330
1F
100
AcDbEntity
  8
0
  6
Continuous
 62
     7
370
    25
100
AcDbLine
 10
46.6620592064
 20
246.117236742
 30
0.0
 11
49.812377952
 21
251.5737488695
 31
0.0
  0
LINE
  5
18B
330
1F
100
AcDbEntity
  8
0
  6
Continuous
 62
     7
370
    25
100
AcDbLine
 10
62.7222876768
 20
251.5737488695
 30
0.0
 11
49.812377952
 21
251.5737488695
 31
0.0
  0
ARC
  5
18C
330
1F
100
AcDbEntity
  8
0
  6
Continuous
 62
     7
370
    25
100
AcDbCircle
 10
128.5807746826
 20
255.8934351195
 30
0.0
 40
66.00000000000003
100
AcDbArc
 50
183.7526793014
 51
191.2473206986
  0
LINE
  5
18D
330
1F
100
AcDbEntity
  8
0
  6
Continuous
 62
     7
370
    25
100
AcDbLine
 10
63.848344133
 20
243.0205009111
 30
0.0
 11
51.3783289148
 21
239.6791704038
 31
0.0
  0
LINE
  5
18E
330
1F
100
AcDbEntity
  8
0
  6
Continuous
 62
     7
370
    25
100
AcDbLine
 10
46.9231054189
 20
244.1343938997
 30
0.0
 11
51.3783289148
 21
239.6791704038
 31
0.0
  0
ARC
  5
18F
330
1F
100
AcDbEntity
  8
0
  6
Continuous
 62
     7
370
    25
100
AcDbCircle
 10
128.5807746826
 20
255.8934351195
 30
0.0
 40
82.50000000000003
100
AcDbArc
 50
188.1944948837
 51
201.8055051163
  0
LINE
  5
190
330
1F
100
AcDbEntity
  8
0
  6
Continuous
 62
     7
370
    25
100
AcDbLine
 10
51.9836380765
 20
225.2482289081
 30
0.0
 11
53.6143630555
 21
231.3341773831
 31
0.0
  0
LINE
  5
191
330
1F
100
AcDbEntity
  8
0
  6
Continuous
 62
     7
370
    25
100
AcDbLine
 10
66.0843782737
 20
234.6755078904
 30
0.0
 11
53.6143630555
 21
231.3341773831
 31
0.0
  0
ARC
  5
192
330
1F
100
AcDbEntity
  8
0
  6
Continuous
 62
     7
370
    25
100
AcDbCircle
 10
128.5807746826
 20
255.8934351195
 30
0.0
 40
66.00000000000001
100
AcDbArc
 50
198.7526793014
 51
206.2473206986
  0
LINE
  5
193
330
1F
100
AcDbEntity
  8
0
  6
Continuous
 62
     7
370
    25
100
AcDbLine
 10
69.3858087558
 20
226.7051496455
 30
0.0
 11
58.2054989736
 21
220.2501947831
 31
0.0
  0
LINE
  5
194
330
1F
100
AcDbEntity
  8
0
  6
Continuous
 62
     7
370
    25
100
AcDbLine
 10
52.748986846
 20
223.4005135288
 30
0.0
 11
58.2054989736
 21
220.2501947831
 31
0.0
  0
ARC
  5
195
330
1F
100
AcDbEntity
  8
0
  6
Continuous
 62
     7
370
    25
100
AcDbCircle
 10
128.5807746826
 20
255.8934351195
 30
0.0
 40
82.50000000000001
100
AcDbArc
 50
203.1944948837
 51
216.8055051163
  0
LINE
  5
196
330
1F
100
AcDbEntity
  8
0
  6
Continuous
 62
     7
370
    25
100
AcDbLine
 10
62.5251852236
 20
206.467641234
 30
0.0
 11
62.5251852236
 21
212.7682787254
 31
0.0
  0
LINE
  5
197
330
1F
100
AcDbEntity
  8
0
  6
Continuous
 62
     7
370
    25
100
AcDbLine
 10
73.7054950058
 20
219.2232335877
 30
0.0
 11
62.5251852236
 21
212.7682787254
 31
0.0
  0
ARC
  5
198
330
1F
100
AcDbEntity
  8
0
  6
Continuous
 62
     7
370
    25
100
AcDbCircle
 10
128.5807746826
 20
255.8934351195
 30
0.0
 40
66.00000000000001
100
AcDbArc
 50
213.7526793014
 51
221.2473206986
  0
LINE
  5
199
330
1F
100
AcDbEntity
  8
0
  6
Continuous
 62
     7
370
    25
100
AcDbLine
 10
78.9573124821
 20
212.378931799
 30
0.0
 11
69.8286277713
 21
203.2502470881
 31
0.0
  0
LINE
  5
19A
330
1F
100
AcDbEntity
  8
0
  6
Continuous
 62
     7
370
    25
100
AcDbLine
 10
63.7426792963
 20
204.8809720672
 30
0.0
 11
69.8286277713
 21
203.2502470881
 31
0.0
  0
ARC
  5
19B
330
1F
100
AcDbEntity
  8
0
  6
Continuous
 62
     7
370
    25
100
AcDbCircle
 10
128.5807746826
 20
255.8934351195
 30
0.0
 40
82.5
100
AcDbArc
 50
218.1944948837
 51
231.8055051163
  0
LINE
  5
19C
330
1F
100
AcDbEntity
  8
0
  6
Continuous
 62
     7
370
    25
100
AcDbLine
 10
77.5683116303
 20
191.0553397332
 30
0.0
 11
75.9375866512
 21
197.1412882082
 31
0.0
  0
LINE
  5
19D
330
1F
100
AcDbEntity
  8
0
  6
Continuous
 62
     7
370
    25
100
AcDbLine
 10
85.0662713621
 20
206.269972919
 30
0.0
 11
75.9375866512
 21
197.1412882082
 31
0.0
  0
ARC
  5
19E
330
1F
100
AcDbEntity
  8
0
  6
Continuous
 62
     7
370
    25
100
AcDbCircle
 10
128.5807746826
 20
255.8934351195
 30
0.0
 40
66.0
100
AcDbArc
 50
228.7526793014
 51
236.2473206986
  0
LINE
  5
19F
330
1F
100
AcDbEntity
  8
0
  6
Continuous
 62
     7
370
    25
100
AcDbLine
 10
91.9105731508
 20
201.0181554426
 30
0.0
 11
85.4556182885
 21
189.8378456605
 31
0.0
  0
LINE
  5
1A0
330
1F
100
AcDbEntity
  8
0
  6
Continuous
 62
     7
370
    25
100
AcDbLine
 10
79.1549807971
 20
189.8378456605
 30
0.0
 11
85.4556182885
 21
189.8378456605
 31
0.0
  0
ARC
  5
1A1
330
1F
100
AcDbEntity
  8
0
  6
Continuous
 62
     7
370
    25
100
AcDbCircle
 10
128.5807746826
 20
255.8934351195
 30
0.0
 40
82.49999999999999
100
AcDbArc
 50
233.1944948837
 51
246.8055051163
  0
LINE
  5
1A2
330
1F
100
AcDbEntity
  8
0
  6
Continuous
 62
     7
370
    25
100
AcDbLine
 10
96.0878530919
 20
180.0616472829
 30
0.0
 11
92.9375343462
 21
185.5181594105
 31
0.0
  0
LINE
  5
1A3
330
1F
100
AcDbEntity
  8
0
  6
Continuous
 62
     7
370
    25
100
AcDbLine
 10
99.3924892086
 20
196.6984691926
 30
0.0
 11
92.9375343462
 21
185.5181594105
 31
0.0
  0
ARC
  5
1A4
330
1F
100
AcDbEntity
  8
0
  6
Continuous
 62
     7
370
    25
100
AcDbCircle
 10
128.5807746826
 20
255.8934351195
 30
0.0
 40
66.00000000000001
100
AcDbArc
 50
243.7526793014
 51
251.2473206986
  0
LINE
  5
1A5
330
1F
100
AcDbEntity
  8
0
  6
Continuous
 62
     7
370
    25
100
AcDbLine
 10
107.3628474535
 20
193.3970387106
 30
0.0
 11
104.0215169462
 21
180.9270234924
 31
0.0
  0
LINE
  5
1A6
330
1F
100
AcDbEntity
  8
0
  6
Continuous
 62
     7
370
    25
100
AcDbLine
 10
97.9355684712
 20
179.2962985134
 30
0.0
 11
104.0215169462
 21
180.9270234924
 31
0.0
  0
ARC
  5
1A7
330
1F
100
AcDbEntity
  8
0
  6
Continuous
 62
     7
370
    25
100
AcDbCircle
 10
128.5807746826
 20
255.8934351195
 30
0.0
 40
82.5
100
AcDbArc
 50
248.1944948837
 51
261.8055051163
  0
LINE
  5
1A8
330
1F
100
AcDbEntity
  8
0
  6
Continuous
 62
     7
370
    25
100
AcDbLine
 10
116.8217334628
 20
174.2357658558
 30
0.0
 11
112.3665099669
 21
178.6909893517
 31
0.0
  0
LINE
  5
1A9
330
1F
100
AcDbEntity
  8
0
  6
Continuous
 62
     7
370
    25
100
AcDbLine
 10
115.7078404742
 20
191.1610045699
 30
0.0
 11
112.3665099669
 21
178.6909893517
 31
0.0
  0
ARC
  5
1AA
330
1F
100
AcDbEntity
  8
0
  6
Continuous
 62
     7
370
    25
100
AcDbCircle
 10
128.5807746826
 20
255.8934351195
 30
0.0
 40
66.0
100
AcDbArc
 50
258.7526793014
 51
266.2473206986
  0
LINE
  5
1AB
330
1F
100
AcDbEntity
  8
0
  6
Continuous
 62
     7
370
    25
100
AcDbLine
 10
124.2610884326
 20
190.0349481137
 30
0.0
 11
124.2610884326
 21
177.1250383889
 31
0.0
  0
LINE
  5
1AC
330
1F
100
AcDbEntity
  8
0
  6
Continuous
 62
     7
370
    25
100
AcDbLine
 10
118.8045763051
 20
173.9747196433
 30
0.0
 11
124.2610884326
 21
177.1250383889
 31
0.0
  0
ARC
  5
1AD
330
1F
100
AcDbEntity
  8
0
  6
Continuous
 62
     7
370
    25
100
AcDbCircle
 10
128.5807746826
 20
255.8934351195
 30
0.0
 40
82.49999999999999
100
AcDbArc
 50
263.1944948837
 51
276.8055051163
  0
LINE
  5
1AE
330
1F
100
AcDbEntity
  8
0
  6
Continuous
 62
     7
370
    25
100
AcDbLine
 10
138.3569730602
 20
173.9747196433
 30
0.0
 11
132.9004609326
 21
177.1250383889
 31
0.0
  0
LINE
  5
1AF
330
1F
100
AcDbEntity
  8
0
  6
Continuous
 62
     7
370
    25
100
AcDbLine
 10
132.9004609326
 20
190.0349481137
 30
0.0
 11
132.9004609326
 21
177.1250383889
 31
0.0
  0
ARC
  5
1B0
330
1F
100
AcDbEntity
  8
0
  6
Continuous
 62
     7
370
    25
100
AcDbCircle
 10
128.5807746826
 20
255.8934351195
 30
0.0
 40
66.0
100
AcDbArc
 50
273.7526793014
 51
281.2473206986
  0
LINE
  5
1B1
330
1F
100
AcDbEntity
  8
0
  6
Continuous
 62
     7
370
    25
100
AcDbLine
 10
141.4537088911
 20
191.1610045699
 30
0.0
 11
144.7950393984
 21
178.6909893517
 31
0.0
  0
LINE
  5
1B2
330
1F
100
AcDbEntity
  8
0
  6
Continuous
 62
     7
370
    25
100
AcDbLine
 10
140.3398159024
 20
174.2357658558
 30
0.0
 11
144.7950393984
 21
178.6909893517
 31
0.0
  0
ARC
  5
1B3
330
1F
100
AcDbEntity
  8
0
  6
Continuous
 62
     7
370
    25
100
AcDbCircle
 10
128.5807746826
 20
255.8934351195
 30
0.0
 40
82.49999999999999
100
AcDbArc
 50
278.1944948837
 51
291.8055051163
  0
LINE
  5
1B4
330
1F
100
AcDbEntity
  8
0
  6
Continuous
 62
     7
370
    25
100
AcDbLine
 10
159.225980894
 20
179.2962985134
 30
0.0
 11
153.1400324191
 21
180.9270234924
 31
0.0
  0
LINE
  5
1B5
330
1F
100
AcDbEntity
  8
0
  6
Continuous
 62
     7
370
    25
100
AcDbLine
 10
149.7987019117
 20
193.3970387106
 30
0.0
 11
153.1400324191
 21
180.9270234924
 31
0.0
  0
ARC
  5
1B6
330
1F
100
AcDbEntity
  8
0
  6
Continuous
 62
     7
370
    25
100
AcDbCircle
 10
128.5807746826
 20
255.8934351195
 30
0.0
 40
66.0
100
AcDbArc
 50
288.7526793014
 51
296.2473206986
  0
LINE
  5
1B7
330
1F
100
AcDbEntity
  8
0
  6
Continuous
 62
     7
370
    25
100
AcDbLine
 10
157.7690601567
 20
196.6984691927
 30
0.0
 11
164.2240150191
 21
185.5181594105
 31
0.0
  0
LINE
  5
1B8
330
1F
100
AcDbEntity
  8
0
  6
Continuous
 62
     7
370
    25
100
AcDbLine
 10
161.0736962734
 20
180.0616472829
 30
0.0
 11
164.2240150191
 21
185.5181594105
 31
0.0
  0
ARC
  5
1B9
330
1F
100
AcDbEntity
  8
0
  6
Continuous
 62
     7
370
    25
100
AcDbCircle
 10
128.5807746826
 20
255.8934351195
 30
0.0
 40
82.50000000000001
100
AcDbArc
 50
293.1944948837
 51
306.8055051163
  0
LINE
  5
1BA
330
1F
100
AcDbEntity
  8
0
  6
Continuous
 62
     7
370
    25
100
AcDbLine
 10
178.0065685682
 20
189.8378456605
 30
0.0
 11
171.7059310768
 21
189.8378456605
 31
0.0
  0
LINE
  5
1BB
330
1F
100
AcDbEntity
  8
0
  6
Continuous
 62
     7
370
    25
100
AcDbLine
 10
165.2509762145
 20
201.0181554427
 30
0.0
 11
171.7059310768
 21
189.8378456605
 31
0.0
  0
ARC
  5
1BC
330
1F
100
AcDbEntity
  8
0
  6
Continuous
 62
     7
370
    25
100
AcDbCircle
 10
128.5807746826
 20
255.8934351195
 30
0.0
 40
66.0
100
AcDbArc
 50
303.7526793014
 51
311.2473206986
  0
LINE
  5
1BD
330
1F
100
AcDbEntity
  8
0
  6
Continuous
 62
     7
370
    25
100
AcDbLine
 10
172.0952780032
 20
206.269972919
 30
0.0
 11
181.2239627141
 21
197.1412882082
 31
0.0
  0
LINE
  5
1BE
330
1F
100
AcDbEntity
  8
0
  6
Continuous
 62
     7
370
    25
100
AcDbLine
 10
179.593237735
 20
191.0553397332
 30
0.0
 11
181.2239627141
 21
197.1412882082
 31
0.0
  0
ARC
  5
1BF
330
1F
100
AcDbEntity
  8
0
  6
Continuous
 62
     7
370
    25
100
AcDbCircle
 10
128.5807746826
 20
255.8934351195
 30
0.0
 40
82.5
100
AcDbArc
 50
308.1944948837
 51
321.8055051163
  0
LINE
  5
1C0
330
1F
100
AcDbEntity
  8
0
  6
Continuous
 62
     7
370
    25
100
AcDbLine
 10
193.418870069
 20
204.8809720672
 30
0.0
 11
187.332921594
 21
203.2502470881
 31
0.0
  0
LINE
  5
1C1
330
1F
100
AcDbEntity
  8
0
  6
Continuous
 62
     7
370
    25
100
AcDbLine
 10
178.2042368831
 20
212.378931799
 30
0.0
 11
187.332921594
 21
203.2502470881
 31
0.0
  0
ARC
  5
1C2
330
1F
100
AcDbEntity
  8
0
  6
Continuous
 62
     7
370
    25
100
AcDbCircle
 10
128.5807746826
 20
255.8934351195
 30
0.0
 40
66.0
100
AcDbArc
 50
318.7526793014
 51
326.2473206986
  0
LINE
  5
1C3
330
1F
100
AcDbEntity
  8
0
  6
Continuous
 62
     7
370
    25
100
AcDbLine
 10
183.4560543595
 20
219.2232335877
 30
0.0
 11
194.6363641417
 21
212.7682787254
 31
0.0
  0
LINE
  5
1C4
330
1F
100
AcDbEntity
  8
0
  6
Continuous
 62
     7
370
    25
100
AcDbLine
 10
194.6363641417
 20
206.467641234
 30
0.0
 11
194.6363641417
 21
212.7682787254
 31
0.0
  0
ARC
  5
1C5
330
1F
100
AcDbEntity
  8
0
  6
Continuous
 62
     7
370
    25
100
AcDbCircle
 10
128.5807746826
 20
255.8934351195
 30
0.0
 40
82.5
100
AcDbArc
 50
323.1944948837
 51
336.8055051163
  0
LINE
  5
1C6
330
1F
100
AcDbEntity
  8
0
  6
Continuous
 62
     7
370
    25
100
AcDbLine
 10
204.4125625193
 20
223.4005135288
 30
0.0
 11
198.9560503917
 21
220.2501947831
 31
0.0
  0
LINE
  5
1C7
330
1F
100
AcDbEntity
  8
0
  6
Continuous
 62
     7
370
    25
100
AcDbLine
 10
187.7757406095
 20
226.7051496455
 30
0.0
 11
198.9560503917
 21
220.2501947831
 31
0.0
  0
ARC
  5
1C8
330
1F
100
AcDbEntity
  8
0
  6
Continuous
 62
     7
370
    25
100
AcDbCircle
 10
128.5807746826
 20
255.8934351195
 30
0.0
 40
66.0
100
AcDbArc
 50
333.7526793014
 51
341.2473206986
  0
LINE
  5
1C9
330
1F
100
AcDbEntity
  8
0
  6
Continuous
 62
     7
370
    25
100
AcDbLine
 10
191.0771710916
 20
234.6755078904
 30
0.0
 11
203.5471863097
 21
231.3341773831
 31
0.0
  0
LINE
  5
1CA
330
1F
100
AcDbEntity
  8
0
  6
Continuous
 62
     7
370
    25
100
AcDbLine
 10
205.1779112888
 20
225.2482289081
 30
0.0
 11
203.5471863097
 21
231.3341773831
 31
0.0
  0
ARC
  5
1CB
330
1F
100
AcDbEntity
  8
0
  6
Continuous
 62
     7
370
    25
100
AcDbCircle
 10
128.5807746826
 20
255.8934351195
 30
0.0
 40
82.5
100
AcDbArc
 50
338.1944948837
 51
351.8055051163
  0
LINE
  5
1CC
330
1F
100
AcDbEntity
  8
0
  6
Continuous
 62
     7
370
    25
100
AcDbLine
 10
210.2384439464
 20
244.1343938997
 30
0.0
 11
205.7832204505
 21
239.6791704038
 31
0.0
  0
LINE
  5
1CD
330
1F
100
AcDbEntity
  8
0
  6
Continuous
 62
     7
370
    25
100
AcDbLine
 10
193.3132052323
 20
243.0205009111
 30
0.0
 11
205.7832204505
 21
239.6791704038
 31
0.0
  0
ARC
  5
1CE
330
1F
100
AcDbEntity
  8
0
  6
Continuous
 62
     7
370
    25
100
AcDbCircle
 10
128.5807746826
 20
255.8934351195
 30
0.0
 40
66.0
100
AcDbArc
 50
348.7526793014
 51
356.2473206986
  0
LINE
  5
1CF
330
1F
100
AcDbEntity
  8
0
  6
Continuous
 62
     7
370
    25
100
AcDbLine
 10
194.4392616885
 20
251.5737488695
 30
0.0
 11
207.3491714132
 21
251.5737488695
 31
0.0
  0
LINE
  5
1D0
330
1F
100
AcDbEntity
  8
0
  6
Continuous
 62
     7
370
    25
100
AcDbLine
 10
210.4994901589
 20
246.117236742
 30
0.0
 11
207.3491714132
 21
251.5737488695
 31
0.0
  0
ARC
  5
1D1
330
1F
100
AcDbEntity
  8
0
  6
Continuous
 62
     7
370
    25
100
AcDbCircle
 10
128.5807746826
 20
255.8934351195
 30
0.0
 40
82.49999999999997
100
AcDbArc
 50
353.1944948837
 51
6.8055051163
  0
LINE
  5
1D2
330
1F
100
AcDbEntity
  8
0
  6
Continuous
 62
     7
370
    25
100
AcDbLine
 10
210.4994901589
 20
265.6696334971
 30
0.0
 11
207.3491714132
 21
260.2131213695
 31
0.0
  0
LINE
  5
1D3
330
1F
100
AcDbEntity
  8
0
  6
Continuous
 62
     7
370
    25
100
AcDbLine
 10
194.4392616885
 20
260.2131213695
 30
0.0
 11
207.3491714132
 21
260.2131213695
 31
0.0
  0
ARC
  5
1D4
330
1F
100
AcDbEntity
  8
0
  6
Continuous
 62
     7
370
    25
100
AcDbCircle
 10
128.5807746826
 20
255.8934351195
 30
0.0
 40
65.99999999999999
100
AcDbArc
 50
3.7526793014
 51
11.2473206986
  0
LINE
  5
1D5
330
1F
100
AcDbEntity
  8
0
  6
Continuous
 62
     7
370
    25
100
AcDbLine
 10
193.3132052323
 20
268.7663693279
 30
0.0
 11
205.7832204505
 21
272.1076998353
 31
0.0
  0
LINE
  5
1D6
330
1F
100
AcDbEntity
  8
0
  6
Continuous
 62
     7
370
    25
100
AcDbLine
 10
210.2384439464
 20
267.6524763393
 30
0.0
 11
205.7832204505
 21
272.1076998353
 31
0.0
  0
ARC
  5
1D7
330
1F
100
AcDbEntity
  8
0
  6
Continuous
 62
     7
370
    25
100
AcDbCircle
 10
128.5807746826
 20
255.8934351195
 30
0.0
 40
82.50000000000001
100
AcDbArc
 50
8.1944948837
 51
21.8055051163
  0
LINE
  5
1D8
330
1F
100
AcDbEntity
  8
0
  6
Continuous
 62
     7
370
    25
100
AcDbLine
 10
205.1779112888
 20
286.5386413309
 30
0.0
 11
203.5471863097
 21
280.4526928559
 31
0.0
  0
LINE
  5
1D9
330
1F
100
AcDbEntity
  8
0
  6
Continuous
 62
     7
370
    25
100
AcDbLine
 10
191.0771710916
 20
277.1113623486
 30
0.0
 11
203.5471863097
 21
280.4526928559
 31
0.0
  0
ARC
  5
1DA
330
1F
100
AcDbEntity
  8
0
  6
Continuous
 62
     7
370
    25
100
AcDbCircle
 10
128.5807746826
 20
255.8934351195
 30
0.0
 40
65.99999999999999
100
AcDbArc
 50
18.7526793014
 51
26.2473206986
  0
LINE
  5
1DB
330
1F
100
AcDbEntity
  8
0
  6
Continuous
 62
     7
370
    25
100
AcDbLine
 10
187.7757406095
 20
285.0817205936
 30
0.0
 11
198.9560503917
 21
291.536675456
 31
0.0
  0
LINE
  5
1DC
330
1F
100
AcDbEntity
  8
0
  6
Continuous
 62
     7
370
    25
100
AcDbLine
 10
204.4125625193
 20
288.3863567103
 30
0.0
 11
198.9560503917
 21
291.536675456
 31
0.0
  0
ARC
  5
1DD
330
1F
100
AcDbEntity
  8
0
  6
Continuous
 62
     7
370
    25
100
AcDbCircle
 10
128.5807746826
 20
255.8934351195
 30
0.0
 40
82.5
100
AcDbArc
 50
23.1944948837
 51
36.8055051163
  0
LINE
  5
1DE
330
1F
100
AcDbEntity
  8
0
  6
Continuous
 62
     7
370
    25
100
AcDbLine
 10
194.6363641417
 20
305.3192290051
 30
0.0
 11
194.6363641417
 21
299.0185915137
 31
0.0
  0
LINE
  5
1DF
330
1F
100
AcDbEntity
  8
0
  6
Continuous
 62
     7
370
    25
100
AcDbLine
 10
183.4560543595
 20
292.5636366513
 30
0.0
 11
194.6363641417
 21
299.0185915137
 31
0.0
  0
ARC
  5
1E0
330
1F
100
AcDbEntity
  8
0
  6
Continuous
 62
     7
370
    25
100
AcDbCircle
 10
128.5807746826
 20
255.8934351195
 30
0.0
 40
66.0
100
AcDbArc
 50
33.7526793014
 51
41.2473206986
  0
LINE
  5
1E1
330
1F
100
AcDbEntity
  8
0
  6
Continuous
 62
     7
370
    25
100
AcDbLine
 10
178.2042368831
 20
299.4079384401
 30
0.0
 11
187.332921594
 21
308.536623151
 31
0.0
  0
LINE
  5
1E2
330
1F
100
AcDbEntity
  8
0
  6
Continuous
 62
     7
370
    25
100
AcDbLine
 10
193.418870069
 20
306.9058981719
 30
0.0
 11
187.332921594
 21
308.536623151
 31
0.0
  0
ARC
  5
1E3
330
1F
100
AcDbEntity
  8
0
  6
Continuous
 62
     7
370
    25
100
AcDbCircle
 10
128.5807746826
 20
255.8934351195
 30
0.0
 40
82.49999999999999
100
AcDbArc
 50
38.1944948837
 51
51.8055051163
  0
LINE
  5
1E4
330
1F
100
AcDbEntity
  8
0
  6
Continuous
 62
     7
370
    25
100
AcDbLine
 10
179.593237735
 20
320.7315305059
 30
0.0
 11
181.2239627141
 21
314.6455820309
 31
0.0
  0
LINE
  5
1E5
330
1F
100
AcDbEntity
  8
0
  6
Continuous
 62
     7
370
    25
100
AcDbLine
 10
172.0952780032
 20
305.51689732
 30
0.0
 11
181.2239627141
 21
314.6455820309
 31
0.0
  0
ARC
  5
1E6
330
1F
100
AcDbEntity
  8
0
  6
Continuous
 62
     7
370
    25
100
AcDbCircle
 10
128.5807746826
 20
255.8934351195
 30
0.0
 40
66.00000000000001
100
AcDbArc
 50
48.7526793014
 51
56.2473206986
  0
LINE
  5
1E7
330
1F
100
AcDbEntity
  8
0
  6
Continuous
 62
     7
370
    25
100
AcDbLine
 10
165.2509762145
 20
310.7687147964
 30
0.0
 11
171.7059310768
 21
321.9490245786
 31
0.0
  0
LINE
  5
1E8
330
1F
100
AcDbEntity
  8
0
  6
Continuous
 62
     7
370
    25
100
AcDbLine
 10
178.0065685682
 20
321.9490245786
 30
0.0
 11
171.7059310768
 21
321.9490245786
 31
0.0
  0
ARC
  5
1E9
330
1F
100
AcDbEntity
  8
0
  6
Continuous
 62
     7
370
    25
100
AcDbCircle
 10
128.5807746826
 20
255.8934351195
 30
0.0
 40
82.5
100
AcDbArc
 50
53.1944948837
 51
66.8055051163
  0
LINE
  5
1EA
330
1F
100
AcDbEntity
  8
0
  6
Continuous
 62
     7
370
    25
100
AcDbLine
 10
161.0736962734
 20
331.7252229562
 30
0.0
 11
164.2240150191
 21
326.2687108286
 31
0.0
  0
LINE
  5
1EB
330
1F
100
AcDbEntity
  8
0
  6
Continuous
 62
     7
370
    25
100
AcDbLine
 10
157.7690601567
 20
315.0884010464
 30
0.0
 11
164.2240150191
 21
326.2687108286
 31
0.0
  0
ARC
  5
1EC
330
1F
100
AcDbEntity
  8
0
  6
Continuous
 62
     7
370
    25
100
AcDbCircle
 10
128.5807746826
 20
255.8934351195
 30
0.0
 40
66.0
100
AcDbArc
 50
63.7526793014
 51
71.2473206986
  0
LINE
  5
1ED
330
1F
100
AcDbEntity
  8
0
  6
Continuous
 62
     7
370
    25
100
AcDbLine
 10
149.7987019117
 20
318.3898315285
 30
0.0
 11
153.1400324191
 21
330.8598467466
 31
0.0
  0
LINE
  5
1EE
330
1F
100
AcDbEntity
  8
0
  6
Continuous
 62
     7
370
    25
100
AcDbLine
 10
159.225980894
 20
332.4905717257
 30
0.0
 11
153.1400324191
 21
330.8598467466
 31
0.0
  0
ARC
  5
1EF
330
1F
100
AcDbEntity
  8
0
  6
Continuous
 62
     7
370
    25
100
AcDbCircle
 10
128.5807746826
 20
255.8934351195
 30
0.0
 40
82.50000000000004
100
AcDbArc
 50
68.1944948837
 51
81.8055051163
  0
LINE
  5
1F0
330
1F
100
AcDbEntity
  8
0
  6
Continuous
 62
     7
370
    25
100
AcDbLine
 10
140.3398159024
 20
337.5511043833
 30
0.0
 11
144.7950393984
 21
333.0958808874
 31
0.0
  0
LINE
  5
1F1
330
1F
100
AcDbEntity
  8
0
  6
Continuous
 62
     7
370
    25
100
AcDbLine
 10
141.4537088911
 20
320.6258656692
 30
0.0
 11
144.7950393984
 21
333.0958808874
 31
0.0
  0
ARC
  5
1F2
330
1F
100
AcDbEntity
  8
0
  6
Continuous
 62
     7
370
    25
100
AcDbCircle
 10
128.5807746826
 20
255.8934351195
 30
0.0
 40
66.00000000000004
100
AcDbArc
 50
78.7526793014
 51
86.2473206986
  0
LINE
  5
1F3
330
1F
100
AcDbEntity
  8
0
  6
Continuous
 62
     7
370
    25
100
AcDbLine
 10
132.9004609326
 20
321.7519221254
 30
0.0
 11
132.9004609326
 21
334.6618318501
 31
0.0
  0
LINE
  5
1F4
330
1F
100
AcDbEntity
  8
0
  6
Continuous
 62
     7
370
    25
100
AcDbLine
 10
138.3569730602
 20
337.8121505958
 30
0.0
 11
132.9004609326
 21
334.6618318501
 31
0.0
  0
ARC
  5
1F5
330
1F
100
AcDbEntity
  8
0
  6
Continuous
 62
     7
370
    25
100
AcDbCircle
 10
128.5807746826
 20
255.8934351195
 30
0.0
 40
82.5
100
AcDbArc
 50
83.1944948837
 51
96.8055051163
  0
LINE
  5
1F6
330
1F
100
AcDbEntity
  8
0
  6
Continuous
 62
     7
370
    25
100
AcDbLine
 10
118.8045763051
 20
337.8121505958
 30
0.0
 11
124.2610884326
 21
334.6618318501
 31
0.0
  0
LINE
  5
1F7
330
1F
100
AcDbEntity
  8
0
  6
Continuous
 62
     7
370
    25
100
AcDbLine
 10
124.2610884326
 20
321.7519221254
 30
0.0
 11
124.2610884326
 21
334.6618318501
 31
0.0
  0
MTEXT
  5
1F9
330
1F
100
AcDbEntity
  8
0
  6
Continuous
 62
     7
100
AcDbMText
 10
28.5807746826
 20
154.8738687279
 30
0.0
 40
4.83362
 41
0.0
 71
     1
 72
     1
  1
SOLIDWORKS Educational Product.
  7
SLDTEXTSTYLE0
 73
     1
 44
1.0
  0
MTEXT
  5
1FA
330
1F
100
AcDbEntity
  8
0
  6
Continuous
 62
     7
100
AcDbMText
 10
28.5807746826
 20
147.6234387279
 30
0.0
 40
4.83362
 41
0.0
 71
     1
 72
     1
  1
For Instructional Use Only.
  7
SLDTEXTSTYLE0
 73
     1
 44
1.0
  0
ENDSEC
  0
SECTION
  2
OBJECTS
  0
DICTIONARY
  5
C
330
0
100
AcDbDictionary
281
     1
  3
ACAD_GROUP
350
D
  3
ACAD_LAYOUT
350
1A
  3
ACAD_MLINESTYLE
350
17
  3
ACAD_PLOTSETTINGS
350
19
  3
ACAD_PLOTSTYLENAME
350
E
  3
ACAD_SCALELIST
350
47
  3
DWGPROPS
350
1FB
  0
DICTIONARY
  5
D
102
{ACAD_REACTORS
330
C
102
}
330
C
100
AcDbDictionary
281
     1
  0
DICTIONARY
  5
1A
102
{ACAD_REACTORS
330
C
102
}
330
C
100
AcDbDictionary
281
     1
  3
Layout1
350
1E
  3
Layout2
350
26
  3
Model
350
22
  0
DICTIONARY
  5
17
102
{ACAD_REACTORS
330
C
102
}
330
C
100
AcDbDictionary
281
     1
  3
Standard
350
18
  0
DICTIONARY
  5
19
102
{ACAD_REACTORS
330
C
102
}
330
C
100
AcDbDictionary
281
     1
  0
ACDBDICTIONARYWDFLT
  5
E
102
{ACAD_REACTORS
330
C
102
}
330
C
100
AcDbDictionary
281
     1
  3
Normal
350
F
100
AcDbDictionaryWithDefault
340
F
  0
DICTIONARY
  5
47
102
{ACAD_REACTORS
330
C
102
}
330
C
100
AcDbDictionary
281
     1
  3
A0
350
48
  3
A1
350
49
  3
A2
350
4A
  3
A3
350
4B
  3
A4
350
4C
  3
A5
350
4D
  3
A6
350
4E
  3
A7
350
4F
  3
A8
350
50
  3
A9
350
51
  3
B0
350
52
  3
B1
350
53
  3
B2
350
54
  3
B3
350
55
  3
B4
350
56
  3
B5
350
57
  3
B6
350
58
  3
B7
350
59
  3
B8
350
5A
  3
B9
350
5B
  3
C0
350
5C
  3
C1
350
5D
  3
C2
350
5E
  3
C3
350
5F
  3
C4
350
60
  3
C5
350
61
  3
C6
350
62
  3
C7
350
63
  3
C8
350
64
  3
C9
350
65
  3
D0
350
66
  3
D1
350
67
  3
D2
350
68
  0
XRECORD
  5
1FB
102
{ACAD_REACTORS
330
C
102
}
330
C
100
AcDbXrecord
280
     1
  1
DWGPROPS COOKIE
  2

  3

  4

  6

  7

  8
Brad Greer
  9

300
=
301
=
302
=
303
=
304
=
305
=
306
=
307
=
308
=
309
=
 40
0.0
 41
2459303.254803055
 42
2459303.254852315
  1

 90
        0
  0
LAYOUT
  5
1E
102
{ACAD_REACTORS
330
1A
102
}
330
1A
100
AcDbPlotSettings
  1

  2
none_device
  4

  6

 40
0.0
 41
0.0
 42
0.0
 43
0.0
 44
0.0
 45
0.0
 46
0.0
 47
0.0
 48
0.0
 49
0.0
140
0.0
141
0.0
142
1.0
143
1.0
 70
   688
 72
     1
 73
     0
 74
     5
  7

 75
    16
147
1.0
148
0.0
149
0.0
100
AcDbLayout
  1
Layout1
 70
     1
 71
     1
 10
0.0
 20
0.0
 11
420.0
 21
297.0
 12
0.0
 22
0.0
 32
0.0
 14
1.0000000000E+20
 24
1.0000000000E+20
 34
1.0000000000E+20
 15
-1.0000000000E+20
 25
-1.0000000000E+20
 35
-1.0000000000E+20
146
0.0
 13
0.0
 23
0.0
 33
0.0
 16
1.0
 26
0.0
 36
0.0
 17
0.0
 27
1.0
 37
0.0
 76
     0
330
1B
  0
LAYOUT
  5
26
102
{ACAD_REACTORS
330
1A
102
}
330
1A
100
AcDbPlotSettings
  1

  2
none_device
  4

  6

 40
0.0
 41
0.0
 42
0.0
 43
0.0
 44
0.0
 45
0.0
 46
0.0
 47
0.0
 48
0.0
 49
0.0
140
0.0
141
0.0
142
1.0
143
1.0
 70
   688
 72
     1
 73
     0
 74
     5
  7

 75
    16
147
1.0
148
0.0
149
0.0
100
AcDbLayout
  1
Layout2
 70
     1
 71
     2
 10
0.0
 20
0.0
 11
0.0
 21
0.0
 12
0.0
 22
0.0
 32
0.0
 14
0.0
 24
0.0
 34
0.0
 15
0.0
 25
0.0
 35
0.0
146
0.0
 13
0.0
 23
0.0
 33
0.0
 16
1.0
 26
0.0
 36
0.0
 17
0.0
 27
1.0
 37
0.0
 76
     0
330
23
  0
LAYOUT
  5
22
102
{ACAD_REACTORS
330
1A
102
}
330
1A
100
AcDbPlotSettings
  1

  2
none_device
  4
ANSI_A_(11.00_x_8.50_Inches)
  6

 40
6.35
 41
19.05
 42
6.35000508
 43
19.05000254
 44
279.4
 45
215.9
 46
-4.0649193472
 47
-184.5745948494
 48
0.0
 49
0.0
140
0.0
141
0.0
142
0.042075
143
1.0
 70
  1696
 72
     0
 73
     0
 74
     0
  7

 75
     0
147
0.0179189148
148
-1300.4909072572
149
0.0
100
AcDbLayout
  1
Model
 70
     1
 71
     0
 10
0.0
 20
0.0
 11
420.0
 21
297.0
 12
0.0
 22
0.0
 32
0.0
 14
28.5807746826
 24
155.8934351195
 34
0.0
 15
228.5807746826
 25
355.8934351195
 35
0.0
146
0.0
 13
0.0
 23
0.0
 33
0.0
 16
1.0
 26
0.0
 36
0.0
 17
0.0
 27
1.0
 37
0.0
 76
     0
330
1F
331
29
  0
MLINESTYLE
  5
18
102
{ACAD_REACTORS
330
17
102
}
330
17
100
AcDbMlineStyle
  2
Standard
 70
     0
  3

 62
   256
 51
90.0
 52
90.0
 71
     2
 49
0.5
 62
   256
  6
BYLAYER
 49
-0.5
 62
   256
  6
BYLAYER
  0
ACDBPLACEHOLDER
  5
F
102
{ACAD_REACTORS
330
E
102
}
330
E
  0
SCALE
  5
48
102
{ACAD_REACTORS
330
47
102
}
330
47
100
AcDbScale
 70
     0
300
1:1
140
1.0
141
1.0
290
     1
  0
SCALE
  5
49
102
{ACAD_REACTORS
330
47
102
}
330
47
100
AcDbScale
 70
     0
300
1:2
140
1.0
141
2.0
290
     0
  0
SCALE
  5
4A
102
{ACAD_REACTORS
330
47
102
}
330
47
100
AcDbScale
 70
     0
300
1:4
140
1.0
141
4.0
290
     0
  0
SCALE
  5
4B
102
{ACAD_REACTORS
330
47
102
}
330
47
100
AcDbScale
 70
     0
300
1:5
140
1.0
141
5.0
290
     0
  0
SCALE
  5
4C
102
{ACAD_REACTORS
330
47
102
}
330
47
100
AcDbScale
 70
     0
300
1:8
140
1.0
141
8.0
290
     0
  0
SCALE
  5
4D
102
{ACAD_REACTORS
330
47
102
}
330
47
100
AcDbScale
 70
     0
300
1:10
140
1.0
141
10.0
290
     0
  0
SCALE
  5
4E
102
{ACAD_REACTORS
330
47
102
}
330
47
100
AcDbScale
 70
     0
300
1:16
140
1.0
141
16.0
290
     0
  0
SCALE
  5
4F
102
{ACAD_REACTORS
330
47
102
}
330
47
100
AcDbScale
 70
     0
300
1:20
140
1.0
141
20.0
290
     0
  0
SCALE
  5
50
102
{ACAD_REACTORS
330
47
102
}
330
47
100
AcDbScale
 70
     0
300
1:30
140
1.0
141
30.0
290
     0
  0
SCALE
  5
51
102
{ACAD_REACTORS
330
47
102
}
330
47
100
AcDbScale
 70
     0
300
1:40
140
1.0
141
40.0
290
     0
  0
SCALE
  5
52
102
{ACAD_REACTORS
330
47
102
}
330
47
100
AcDbScale
 70
     0
300
1:50
140
1.0
141
50.0
290
     0
  0
SCALE
  5
53
102
{ACAD_REACTORS
330
47
102
}
330
47
100
AcDbScale
 70
     0
300
1:100
140
1.0
141
100.0
290
     0
  0
SCALE
  5
54
102
{ACAD_REACTORS
330
47
102
}
330
47
100
AcDbScale
 70
     0
300
2:1
140
2.0
141
1.0
290
     0
  0
SCALE
  5
55
102
{ACAD_REACTORS
330
47
102
}
330
47
100
AcDbScale
 70
     0
300
4:1
140
4.0
141
1.0
290
     0
  0
SCALE
  5
56
102
{ACAD_REACTORS
330
47
102
}
330
47
100
AcDbScale
 70
     0
300
8:1
140
8.0
141
1.0
290
     0
  0
SCALE
  5
57
102
{ACAD_REACTORS
330
47
102
}
330
47
100
AcDbScale
 70
     0
300
10:1
140
10.0
141
1.0
290
     0
  0
SCALE
  5
58
102
{ACAD_REACTORS
330
47
102
}
330
47
100
AcDbScale
 70
     0
300
100:1
140
100.0
141
1.0
290
     0
  0
SCALE
  5
59
102
{ACAD_REACTORS
330
47
102
}
330
47
100
AcDbScale
 70
     0
300
1/128" = 1'-0"
140
0.0078125
141
12.0
290
     0
  0
SCALE
  5
5A
102
{ACAD_REACTORS
330
47
102
}
330
47
100
AcDbScale
 70
     0
300
1/64" = 1'-0"
140
0.015625
141
12.0
290
     0
  0
SCALE
  5
5B
102
{ACAD_REACTORS
330
47
102
}
330
47
100
AcDbScale
 70
     0
300
1/32" = 1'-0"
140
0.03125
141
12.0
290
     0
  0
SCALE
  5
5C
102
{ACAD_REACTORS
330
47
102
}
330
47
100
AcDbScale
 70
     0
300
1/16" = 1'-0"
140
0.0625
141
12.0
290
     0
  0
SCALE
  5
5D
102
{ACAD_REACTORS
330
47
102
}
330
47
100
AcDbScale
 70
     0
300
3/32" = 1'-0"
140
0.09375
141
12.0
290
     0
  0
SCALE
  5
5E
102
{ACAD_REACTORS
330
47
102
}
330
47
100
AcDbScale
 70
     0
300
1/8" = 1'-0"
140
0.125
141
12.0
290
     0
  0
SCALE
  5
5F
102
{ACAD_REACTORS
330
47
102
}
330
47
100
AcDbScale
 70
     0
300
3/16" = 1'-0"
140
0.1875
141
12.0
290
     0
  0
SCALE
  5
60
102
{ACAD_REACTORS
330
47
102
}
330
47
100
AcDbScale
 70
     0
300
1/4" = 1'-0"
140
0.25
141
12.0
290
     0
  0
SCALE
  5
61
102
{ACAD_REACTORS
330
47
102
}
330
47
100
AcDbScale
 70
     0
300
3/8" = 1'-0"
140
0.375
141
12.0
290
     0
  0
SCALE
  5
62
102
{ACAD_REACTORS
330
47
102
}
330
47
100
AcDbScale
 70
     0
300
1/2" = 1'-0"
140
0.5
141
12.0
290
     0
  0
SCALE
  5
63
102
{ACAD_REACTORS
330
47
102
}
330
47
100
AcDbScale
 70
     0
300
3/4" = 1'-0"
140
0.75
141
12.0
290
     0
  0
SCALE
  5
64
102
{ACAD_REACTORS
330
47
102
}
330
47
100
AcDbScale
 70
     0
300
1" = 1'-0"
140
1.0
141
12.0
290
     0
  0
SCALE
  5
65
102
{ACAD_REACTORS
330
47
102
}
330
47
100
AcDbScale
 70
     0
300
1-1/2" = 1'-0"
140
1.5
141
12.0
290
     0
  0
SCALE
  5
66
102
{ACAD_REACTORS
330
47
102
}
330
47
100
AcDbScale
 70
     0
300
3" = 1'-0"
140
3.0
141
12.0
290
     0
  0
SCALE
  5
67
102
{ACAD_REACTORS
330
47
102
}
330
47
100
AcDbScale
 70
     0
300
6" = 1'-0"
140
6.0
141
12.0
290
     0
  0
SCALE
  5
68
102
{ACAD_REACTORS
330
47
102
}
330
47
100
AcDbScale
 70
     0
300
1'-0" = 1'-0"
140
12.0
141
12.0
290
     0
  0
ENDSEC
  0
EOF
